<svg width="200" height="272" viewBox="0 0 200 272" fill="none" xmlns="http://www.w3.org/2000/svg">
<rect width="200" height="272" rx="8" fill="#F5FBFF"/>
<path d="M111.795 162.156H173.333C177.079 162.156 180.127 159.137 180.127 155.427V27.729C180.127 24.0191 177.079 21 173.333 21H111.795C108.048 21 105 24.0191 105 27.729V155.427C105 159.137 108.048 162.156 111.795 162.156Z" fill="#DFF3FE"/>
<path d="M166.669 47.5323C171.263 47.5323 174.988 43.8552 174.988 39.3193C174.988 34.7834 171.263 31.1063 166.669 31.1063C162.075 31.1063 158.35 34.7834 158.35 39.3193C158.35 43.8552 162.075 47.5323 166.669 47.5323Z" fill="#7BBEE4"/>
<mask id="mask0_1712_25317" style="mask-type:luminance" maskUnits="userSpaceOnUse" x="159" y="32" width="15" height="15">
<path d="M166.673 46.5099C170.697 46.5099 173.958 43.291 173.958 39.3203C173.958 35.3496 170.697 32.1307 166.673 32.1307C162.65 32.1307 159.388 35.3496 159.388 39.3203C159.388 43.291 162.65 46.5099 166.673 46.5099Z" fill="white"/>
</mask>
<g mask="url(#mask0_1712_25317)">
<path d="M171.245 47.354H162.126C162.048 47.354 161.996 47.3285 161.945 47.2773C161.893 47.2261 161.867 47.1494 161.867 47.0982L162.332 38.1688C162.487 35.252 164.399 32.9493 166.698 32.9493C168.998 32.9493 170.909 35.2264 171.064 38.1688L171.529 47.0982C171.529 47.1749 171.504 47.2261 171.452 47.2773C171.374 47.3285 171.297 47.354 171.245 47.354ZM162.384 46.8423H170.961L170.522 38.1688C170.393 35.5334 168.688 33.4354 166.672 33.4354C164.657 33.4354 162.952 35.5079 162.823 38.1688L162.384 46.8423Z" fill="white"/>
<path d="M170.806 42.7994L166.673 41.8527L162.539 42.7994C161.428 43.0552 160.55 43.874 160.24 44.9486L159.335 49.6052H173.984L173.079 44.9486C172.795 43.874 171.917 43.0552 170.806 42.7994Z" fill="white"/>
<path d="M166.673 44.3605C165.691 44.3605 164.89 43.5673 164.89 42.595V39.3201H168.455V42.595C168.455 43.5929 167.654 44.3605 166.673 44.3605Z" fill="white"/>
<path d="M169.668 37.0686C169.539 37.0431 169.409 37.0431 169.28 37.0942C169.177 35.4823 168.066 34.3821 166.697 34.3821C165.328 34.3821 164.217 35.4823 164.113 37.0942C163.984 37.0431 163.855 37.0431 163.726 37.0686C163.338 37.171 163.132 37.6059 163.235 38.0409C163.338 38.4759 163.752 38.7829 164.139 38.6805C164.191 38.655 164.268 38.6294 164.32 38.6038C164.708 39.8063 165.638 40.7274 166.723 40.7274C167.808 40.7274 168.712 39.8063 169.125 38.6038C169.177 38.6294 169.229 38.655 169.306 38.6805C169.694 38.7829 170.081 38.5014 170.21 38.0409C170.262 37.6059 170.029 37.1454 169.668 37.0686Z" fill="white"/>
<path d="M166.672 40.9833C165.612 40.9833 164.605 40.1645 164.114 38.9364C163.597 39.0388 163.081 38.6806 162.951 38.0921C162.874 37.7851 162.926 37.478 163.081 37.2222C163.21 37.0175 163.416 36.864 163.649 36.8128C163.726 36.7872 163.778 36.7872 163.856 36.7872C164.062 35.2265 165.225 34.1007 166.672 34.1007C168.118 34.1007 169.281 35.2009 169.488 36.7872C169.539 36.7872 169.643 36.7872 169.694 36.8128C169.927 36.864 170.133 37.0175 170.263 37.2222C170.418 37.478 170.469 37.7851 170.392 38.0921C170.237 38.655 169.72 39.0132 169.229 38.9364C168.738 40.1645 167.731 40.9833 166.672 40.9833ZM164.269 38.3479C164.295 38.3479 164.321 38.3479 164.346 38.3735C164.424 38.3991 164.476 38.4503 164.501 38.527C164.889 39.6784 165.742 40.4716 166.646 40.4716C167.55 40.4716 168.403 39.704 168.79 38.527C168.816 38.4503 168.867 38.3991 168.945 38.3735C169.023 38.3479 169.1 38.3479 169.178 38.3991C169.203 38.4247 169.255 38.4247 169.281 38.4503C169.539 38.5015 169.798 38.2968 169.875 37.9897C169.927 37.8106 169.901 37.6315 169.823 37.5036C169.772 37.4269 169.694 37.3501 169.591 37.3245C169.513 37.2989 169.436 37.3245 169.358 37.3501C169.281 37.3757 169.203 37.3757 169.126 37.3245C169.048 37.2733 169.023 37.1966 168.997 37.1198C168.893 35.687 167.912 34.638 166.646 34.638C165.38 34.638 164.398 35.687 164.295 37.1198C164.295 37.1966 164.243 37.2733 164.166 37.3245C164.088 37.3757 164.011 37.3757 163.933 37.3501C163.856 37.3245 163.778 37.3245 163.701 37.3245C163.571 37.3501 163.494 37.4524 163.468 37.5036C163.391 37.6315 163.365 37.8106 163.416 37.9897C163.494 38.2968 163.752 38.5015 164.011 38.4503C164.036 38.4503 164.088 38.4247 164.114 38.3991C164.191 38.3735 164.243 38.3479 164.269 38.3479Z" fill="#7BBEE4"/>
<path d="M164.037 37.5033C165.329 37.273 166.698 36.1216 167.499 35.0982C167.654 36.0193 168.481 37.0683 169.333 37.4521C169.333 37.4521 169.747 33.8189 166.672 33.9468C163.598 34.0492 164.037 37.5033 164.037 37.5033Z" fill="#7BBEE4"/>
</g>
<path d="M111.096 28.8041C111.881 28.8041 112.517 28.174 112.517 27.3968C112.517 26.6197 111.881 25.9896 111.096 25.9896C110.311 25.9896 109.675 26.6197 109.675 27.3968C109.675 28.174 110.311 28.8041 111.096 28.8041Z" fill="white"/>
<path d="M116.264 28.8041C117.048 28.8041 117.685 28.174 117.685 27.3968C117.685 26.6197 117.048 25.9896 116.264 25.9896C115.479 25.9896 114.843 26.6197 114.843 27.3968C114.843 28.174 115.479 28.8041 116.264 28.8041Z" fill="white"/>
<path d="M121.43 28.8041C122.214 28.8041 122.851 28.174 122.851 27.3968C122.851 26.6197 122.214 25.9896 121.43 25.9896C120.645 25.9896 120.009 26.6197 120.009 27.3968C120.009 28.174 120.645 28.8041 121.43 28.8041Z" fill="white"/>
<path d="M142.537 111.318C158.389 111.318 171.24 98.5911 171.24 82.892C171.24 67.1929 158.389 54.4663 142.537 54.4663C126.686 54.4663 113.835 67.1929 113.835 82.892C113.835 98.5911 126.686 111.318 142.537 111.318Z" fill="white"/>
<path d="M131.399 76.2656H128.35V93.8941H131.399V76.2656Z" fill="#7BBEE4"/>
<path d="M132.459 95.6849V94.4312H127.292V95.6849H126.233V97.0921H133.544V95.6849H132.459Z" fill="#7BBEE4"/>
<path d="M129.489 93.4592C129.334 93.4592 129.231 93.3569 129.231 93.2034V76.9821C129.231 76.8285 129.334 76.7262 129.489 76.7262C129.644 76.7262 129.747 76.8285 129.747 76.9821V93.2034C129.747 93.3313 129.644 93.4592 129.489 93.4592Z" fill="#7BBEE4"/>
<path d="M132.175 74.9348H127.602V75.7791H132.175V74.9348Z" fill="#7BBEE4"/>
<path d="M144.086 76.2656H141.038V93.8941H144.086V76.2656Z" fill="#7BBEE4"/>
<path d="M145.119 95.6849V94.4312H139.978V95.6849H138.893V97.0921H146.204V95.6849H145.119Z" fill="#7BBEE4"/>
<path d="M142.174 93.4592C142.019 93.4592 141.916 93.3569 141.916 93.2034V76.9821C141.916 76.8285 142.019 76.7262 142.174 76.7262C142.329 76.7262 142.432 76.8285 142.432 76.9821V93.2034C142.432 93.3313 142.303 93.4592 142.174 93.4592Z" fill="#7BBEE4"/>
<path d="M144.835 74.9348H140.262V75.7791H144.835V74.9348Z" fill="#7BBEE4"/>
<path d="M156.746 76.2656H153.698V93.8941H156.746V76.2656Z" fill="#7BBEE4"/>
<path d="M157.779 95.6849V94.4312H152.638V95.6849H151.553V97.0921H158.864V95.6849H157.779Z" fill="#7BBEE4"/>
<path d="M154.833 93.4592C154.678 93.4592 154.575 93.3569 154.575 93.2034V76.9821C154.575 76.8285 154.678 76.7262 154.833 76.7262C154.988 76.7262 155.091 76.8285 155.091 76.9821V93.2034C155.091 93.3313 154.962 93.4592 154.833 93.4592Z" fill="#7BBEE4"/>
<path d="M157.495 74.9348H152.922V75.7791H157.495V74.9348Z" fill="#7BBEE4"/>
<path d="M160.544 72.1202H124.557V74.295H160.544V72.1202Z" fill="#7BBEE4"/>
<path d="M160.544 97.7059H124.557V99.8807H160.544V97.7059Z" fill="#7BBEE4"/>
<path d="M142.538 63.5235L124.557 70.8666H160.544L142.538 63.5235Z" fill="#7BBEE4"/>
<path d="M160.544 157.295H124.556C124.401 157.295 124.298 157.193 124.298 157.04C124.298 156.886 124.401 156.784 124.556 156.784H160.544C160.699 156.784 160.802 156.886 160.802 157.04C160.802 157.193 160.699 157.295 160.544 157.295Z" fill="white"/>
<path d="M170.413 128.229C170.413 129.432 169.431 130.404 168.217 130.404H117.064C115.85 130.404 114.868 129.432 114.868 128.229C114.868 127.027 115.85 126.055 117.064 126.055H168.217C169.431 126.055 170.413 127.027 170.413 128.229Z" fill="white"/>
<path d="M166.641 128.229C166.641 129.432 165.659 130.404 164.445 130.404H117.064C115.85 130.404 114.868 129.432 114.868 128.229C114.868 127.027 115.85 126.055 117.064 126.055H164.445C165.659 126.055 166.641 127.027 166.641 128.229Z" fill="#7BBEE4"/>
<path d="M131.842 128.229C131.842 129.432 130.86 130.404 129.646 130.404H117.064C115.85 130.404 114.868 129.432 114.868 128.229C114.868 127.027 115.85 126.055 117.064 126.055H129.646C130.86 126.055 131.842 127.027 131.842 128.229Z" fill="black"/>
<path d="M146.88 149.513C150.33 147.2 151.234 142.555 148.898 139.138C146.562 135.721 141.872 134.827 138.422 137.14C134.972 139.453 134.068 144.098 136.404 147.515C138.74 150.932 143.43 151.826 146.88 149.513Z" fill="white"/>
<path d="M142.045 147.675C141.967 147.675 141.889 147.624 141.838 147.573L138.867 143.479C138.789 143.377 138.815 143.198 138.919 143.121C139.022 143.044 139.203 143.07 139.28 143.172L142.019 146.984L146.411 140.921C146.488 140.818 146.643 140.767 146.772 140.869C146.876 140.946 146.927 141.1 146.824 141.228L142.225 147.573C142.2 147.624 142.122 147.675 142.045 147.675Z" fill="#027CD5"/>
<path d="M46.6531 161.14L44.5434 175.277L43.3472 175.343C43.3472 175.343 46.0441 183.782 53.0909 184.956C60.116 186.13 59.3983 178.018 59.3983 178.018L55.2659 176.147L56.6796 164.751L46.6531 161.14Z" fill="white"/>
<path d="M55.2883 176.365H55.2666C55.1578 176.343 55.0708 176.235 55.0708 176.126L56.4628 164.903L46.8495 161.445L44.7833 175.321C44.7615 175.43 44.6528 175.517 44.544 175.495C44.4353 175.473 44.3483 175.365 44.3701 175.256L46.4798 161.119C46.4798 161.053 46.5233 160.988 46.5885 160.966C46.6537 160.923 46.719 160.923 46.7842 160.945L56.8108 164.555C56.8978 164.599 56.963 164.686 56.963 164.794L55.5493 176.191C55.484 176.278 55.3753 176.365 55.2883 176.365Z" fill="black"/>
<path d="M48.0721 147.373C49.1955 147.591 50.0998 148.161 50.7026 149.058C51.004 147.699 51.9082 146.504 53.0865 145.716C54.2373 144.928 55.6348 144.52 57.0322 144.357C60.1011 144.004 63.3619 144.955 65.554 147.101C67.7461 149.248 68.7599 152.618 67.8009 155.525C66.8418 158.433 63.8277 160.634 60.7588 160.389C61.115 162.074 61.3616 163.813 61.0876 165.498C60.8136 167.182 59.9642 168.867 58.5119 169.791C56.8679 170.851 54.6757 170.796 52.8673 170.063C51.0588 169.329 49.5791 167.97 48.2639 166.53C47.4967 165.688 46.8116 164.791 46.0718 163.922C45.6882 163.487 45.332 163.025 44.921 162.617C44.647 162.346 44.3182 162.155 44.1264 161.829C43.0303 160.09 42.263 158.867 42.5644 155.498C42.7015 154.275 44.4277 146.667 48.0721 147.373Z" fill="black"/>
<path d="M58.4459 153.854C58.4459 153.854 60.0869 158.194 60.532 161.34C60.6432 162.099 60.2538 162.858 59.5585 163.238C58.4459 163.862 56.3877 164.567 53.1056 164.187C47.6819 163.563 47.6262 159.577 47.3481 158.004C47.0143 156.051 47.9322 154.532 51.1308 155.319C55.6367 156.431 58.4459 153.854 58.4459 153.854Z" fill="white"/>
<path d="M45.6877 160.532C45.6877 160.532 45.0353 159.27 44.6003 157.965C44.6003 157.965 41.9468 156.573 41.5336 158.705C41.1203 160.836 44.3393 162.641 45.6877 160.532Z" fill="white"/>
<path d="M44.0738 161.684C44.7263 161.684 45.4222 161.401 45.9007 160.64C45.9442 160.575 45.9442 160.488 45.9007 160.423C45.9007 160.401 45.2482 159.161 44.8133 157.878C44.7915 157.834 44.748 157.769 44.7045 157.747C44.6393 157.704 43.1603 156.965 42.1598 157.443C41.7248 157.66 41.4421 158.052 41.3333 158.639C41.0941 159.944 42.0293 161.053 43.0951 161.467C43.3996 161.619 43.7475 161.684 44.0738 161.684ZM45.4657 160.51C44.9655 161.227 44.139 161.445 43.2691 161.097C42.3991 160.749 41.5726 159.814 41.7683 158.748C41.8553 158.291 42.0511 158.008 42.3556 157.856C42.9863 157.552 44.0085 157.9 44.4435 158.117C44.8133 159.183 45.3135 160.183 45.4657 160.51Z" fill="black"/>
<path d="M44.7471 160.271C44.8124 160.271 44.8559 160.249 44.8994 160.205C44.9863 160.118 44.9863 159.988 44.8994 159.901C44.3774 159.401 43.6161 159.161 42.8984 159.292C42.7897 159.314 42.7027 159.422 42.7244 159.531C42.7462 159.64 42.8549 159.727 42.9636 159.705C43.5509 159.618 44.1598 159.814 44.5948 160.205C44.6383 160.249 44.7036 160.271 44.7471 160.271Z" fill="black"/>
<path d="M66.2459 270.475C66.7678 258.6 68.7688 226.802 68.7905 226.606L22.7904 228.412L6.5 270.649L66.2459 270.475Z" fill="black"/>
<path d="M47.4109 270.758C47.2804 270.736 47.1934 270.649 47.1934 270.519L48.7811 253.054C48.7811 252.945 48.8681 252.858 48.9768 252.858C49.0203 252.858 53.0222 252.619 54.7404 249.683C54.8057 249.574 54.9362 249.552 55.0449 249.596C55.1537 249.661 55.1754 249.792 55.1319 249.9C53.479 252.706 50.0425 253.206 49.1943 253.293L47.6283 270.584C47.6283 270.671 47.5196 270.758 47.4109 270.758Z" fill="white"/>
<path d="M20.8591 208.642L22.7731 228.412L39.6289 228.608L20.8591 208.642Z" fill="#7BBEE4"/>
<path d="M147.57 173.147C147.048 171.842 145.569 171.233 144.243 171.647C141.654 172.451 136.804 172.908 130.04 173.039C121.384 173.191 118.513 178.585 116.055 184.305C113.598 190.025 109.944 198.79 100.809 197.507C95.1104 196.702 86.9979 189.307 81.691 183.848C77.9718 180.02 73.013 177.671 67.7061 177.171L56.7008 176.149L55.8961 173.017L53.7429 175.431L52.1987 173.517L43.7816 170.624L42.0417 175.431C42.0417 175.431 32.4937 174.713 23.1196 178.628C11.0704 183.674 14.0066 201.378 17.6605 208.186C21.3144 214.993 27.8393 238.07 46.6526 237.526C65.4659 236.982 76.1449 217.886 76.1449 217.886L98.7861 219.952C125.777 219.148 132.607 193.092 134.086 184.957C134.325 183.587 135.39 182.478 136.761 182.195C145.678 180.347 147.657 174.583 147.657 174.583C147.853 174.17 147.788 173.648 147.57 173.147Z" fill="#7BBEE4"/>
<path d="M132.868 190.459C133.411 188.567 133.846 186.719 134.107 185C134.325 183.608 135.412 182.521 136.783 182.238C145.7 180.389 147.679 174.626 147.679 174.626C147.875 174.147 147.809 173.625 147.614 173.125C147.092 171.82 145.613 171.211 144.286 171.624C141.698 172.429 136.848 172.886 130.084 173.016C125.19 173.103 121.688 174.495 119.753 177.279C118.883 178.541 118.078 180.085 117.251 181.76L132.868 190.459Z" fill="white"/>
<path d="M132.867 190.677C132.846 190.677 132.824 190.677 132.802 190.677C132.693 190.634 132.628 190.525 132.65 190.416C133.215 188.502 133.629 186.675 133.89 184.979C134.107 183.522 135.26 182.347 136.717 182.043C145.417 180.259 147.418 174.626 147.44 174.583C147.614 174.191 147.592 173.756 147.374 173.234C146.896 172.081 145.547 171.472 144.308 171.864C141.741 172.669 136.935 173.147 130.04 173.256C125.168 173.343 121.753 174.735 119.883 177.41C118.97 178.715 118.121 180.39 117.382 181.847C117.338 181.956 117.208 181.999 117.099 181.934C116.99 181.89 116.947 181.76 117.012 181.651C117.752 180.172 118.622 178.476 119.535 177.149C121.471 174.343 125.016 172.886 130.04 172.799C136.891 172.69 141.633 172.234 144.177 171.429C145.634 170.972 147.222 171.69 147.788 173.06C148.049 173.691 148.07 174.235 147.853 174.713C147.831 174.757 145.765 180.607 136.804 182.456C135.499 182.717 134.499 183.761 134.303 185.044C134.042 186.762 133.629 188.611 133.063 190.525C133.041 190.612 132.954 190.677 132.867 190.677Z" fill="black"/>
<path d="M50.8943 180.302C50.8725 180.302 50.8508 180.302 50.829 180.302C47.7188 179.411 44.7392 178.106 41.9552 176.431C41.8465 176.366 41.8247 176.235 41.89 176.127C41.9552 176.018 42.0857 175.996 42.1945 176.061C44.8914 177.671 47.7623 178.932 50.7638 179.824L51.4162 177.91C51.4597 177.801 51.5685 177.736 51.699 177.779C51.8077 177.823 51.873 177.932 51.8295 178.062L51.1118 180.172C51.0683 180.259 50.9813 180.302 50.8943 180.302Z" fill="white"/>
<path d="M55.439 179.52C55.3955 179.52 55.352 179.498 55.3085 179.476C55.2215 179.411 55.1997 179.259 55.265 179.172L56.7005 177.258C56.7657 177.171 56.918 177.149 57.0049 177.214C57.0919 177.28 57.1137 177.432 57.0484 177.519L55.613 179.433C55.5695 179.498 55.5042 179.52 55.439 179.52Z" fill="white"/>
<path d="M137.936 178.736C137.827 178.736 137.74 178.649 137.718 178.54C137.696 178.432 137.783 178.323 137.914 178.301C140.981 177.931 143.939 177.083 146.744 175.778C146.744 175.757 146.744 175.735 146.766 175.713C146.809 175.604 146.94 175.539 147.049 175.583L147.179 175.626C147.266 175.648 147.31 175.735 147.31 175.822C147.31 175.909 147.266 175.996 147.179 176.018C144.265 177.409 141.155 178.301 137.957 178.693C137.957 178.736 137.936 178.736 137.936 178.736Z" fill="black"/>
<path d="M61.2691 205.423L54.853 178.976L54.7443 176.192L53.7221 176.279L52.3083 176.388L53.0696 179.302L57.3325 207.924L61.2691 205.423Z" fill="white"/>
<path d="M45.6104 216.191C45.5234 216.191 45.4582 216.147 45.4147 216.082L37.1064 200.4C36.5191 199.291 36.4321 197.986 36.8454 196.812C36.8889 196.703 37.0194 196.638 37.1281 196.681C37.2369 196.725 37.3021 196.855 37.2586 196.964C36.8889 198.03 36.9541 199.204 37.4979 200.205L45.8062 215.886C45.8714 215.995 45.8279 216.125 45.7192 216.191C45.6757 216.191 45.6322 216.191 45.6104 216.191Z" fill="white"/>
<path d="M44.022 217.604C43.9567 217.604 43.8915 217.582 43.848 217.517C43.7827 217.43 43.7827 217.278 43.8915 217.213C44.022 217.104 58.0504 205.99 67.6202 202.445C67.7289 202.401 67.8594 202.466 67.9029 202.575C67.9464 202.684 67.8812 202.814 67.7724 202.858C58.2679 206.381 44.3047 217.452 44.1525 217.561C44.109 217.582 44.0655 217.604 44.022 217.604Z" fill="white"/>
<path d="M28.015 227.979C27.928 227.979 27.8627 227.935 27.8192 227.87L19.9894 213.842C19.9241 213.733 19.9676 213.602 20.0764 213.537C20.1851 213.472 20.3156 213.515 20.3809 213.624L28.2107 227.653C28.276 227.761 28.2325 227.892 28.1237 227.957C28.102 227.979 28.0585 227.979 28.015 227.979Z" fill="white"/>
<path d="M78.4739 226.389V222.105C78.4739 220.952 79.4092 220.017 80.5619 220.017H97.3307C98.4835 220.017 99.4187 220.952 99.4187 222.105V226.389H102.007V222.105C102.007 219.516 99.8972 217.429 97.3307 217.429H80.5619C77.9737 217.429 75.8857 219.538 75.8857 222.105V226.389H78.4739Z" fill="black"/>
<path d="M78.6907 228.304H75.8633C74.4713 228.304 73.3186 227.151 73.3186 225.759C73.3186 224.367 74.4713 223.214 75.8633 223.214H78.6907C80.0827 223.214 81.2354 224.367 81.2354 225.759C81.2354 227.173 80.0827 228.304 78.6907 228.304Z" fill="white"/>
<path d="M78.6905 228.521H75.863C74.3406 228.521 73.1008 227.281 73.1008 225.759C73.1008 224.236 74.3406 222.997 75.863 222.997H78.6905C80.2129 222.997 81.4526 224.236 81.4526 225.759C81.4526 227.281 80.2129 228.521 78.6905 228.521ZM75.863 223.432C74.5798 223.432 73.5358 224.476 73.5358 225.759C73.5358 227.042 74.5798 228.086 75.863 228.086H78.6905C79.9737 228.086 81.0176 227.042 81.0176 225.759C81.0176 224.476 79.9737 223.432 78.6905 223.432H75.863Z" fill="black"/>
<path d="M102.025 228.304H99.1978C97.8058 228.304 96.6531 227.151 96.6531 225.759C96.6531 224.367 97.8058 223.214 99.1978 223.214H102.025C103.417 223.214 104.57 224.367 104.57 225.759C104.57 227.173 103.417 228.304 102.025 228.304Z" fill="white"/>
<path d="M102.025 228.521H99.1975C97.675 228.521 96.4353 227.281 96.4353 225.759C96.4353 224.236 97.675 222.997 99.1975 222.997H102.025C103.547 222.997 104.787 224.236 104.787 225.759C104.787 227.281 103.547 228.521 102.025 228.521ZM99.1975 223.432C97.9143 223.432 96.8703 224.476 96.8703 225.759C96.8703 227.042 97.9143 228.086 99.1975 228.086H102.025C103.308 228.086 104.352 227.042 104.352 225.759C104.352 224.476 103.308 223.432 102.025 223.432H99.1975Z" fill="black"/>
<path d="M126.3 270.453H61.53L65.6624 225.302H120.058L126.3 270.453Z" fill="white"/>
<path d="M126.3 270.671H61.5298C61.4645 270.671 61.421 270.65 61.3775 270.606C61.334 270.563 61.3123 270.497 61.3123 270.432L65.4447 225.259C65.4447 225.15 65.5534 225.063 65.6622 225.063H120.058C120.166 225.063 120.253 225.15 120.275 225.259L126.495 270.432C126.495 270.497 126.495 270.563 126.452 270.606C126.408 270.65 126.365 270.671 126.3 270.671ZM61.769 270.236H126.039L119.884 225.498H65.8579L61.769 270.236Z" fill="black"/>
<path d="M122.494 270.672C122.386 270.672 122.299 270.585 122.277 270.476L119.123 245.573C119.101 245.464 119.188 245.355 119.319 245.333C119.428 245.312 119.536 245.399 119.558 245.529L122.712 270.432C122.734 270.541 122.647 270.65 122.516 270.672C122.516 270.672 122.516 270.672 122.494 270.672Z" fill="black"/>
<path d="M118.338 270.453H53.5898L58.7227 225.302H114.206L118.338 270.453Z" fill="white"/>
<path d="M118.339 270.671H53.5903C53.525 270.671 53.4598 270.65 53.438 270.606C53.3945 270.563 53.3728 270.497 53.3945 270.432L58.5491 225.259C58.5709 225.15 58.6579 225.063 58.7666 225.063H114.25C114.358 225.063 114.445 225.15 114.467 225.259L118.6 270.432C118.6 270.497 118.578 270.563 118.534 270.606C118.447 270.65 118.404 270.671 118.339 270.671ZM53.8295 270.236H118.099L114.01 225.498H58.9189L53.8295 270.236Z" fill="black"/>
<path d="M113.012 246.683H56.7893C56.6588 246.683 56.5718 246.596 56.5718 246.465C56.5718 246.335 56.6588 246.248 56.7893 246.248H112.772L112.076 236.547C112.076 236.417 112.163 236.33 112.272 236.308C112.403 236.308 112.49 236.395 112.511 236.504L113.229 246.422C113.229 246.487 113.207 246.53 113.164 246.596C113.142 246.661 113.077 246.683 113.012 246.683Z" fill="black"/>
<path d="M91.282 245.55H80.8857V250.357H91.282V245.55Z" fill="white"/>
<path d="M91.3044 250.574H80.9082C80.7777 250.574 80.6907 250.487 80.6907 250.356V245.55C80.6907 245.419 80.7777 245.332 80.9082 245.332H91.3044C91.4349 245.332 91.5219 245.419 91.5219 245.55V250.356C91.5219 250.487 91.4132 250.574 91.3044 250.574ZM81.1039 250.139H91.0652V245.767H81.1039V250.139Z" fill="black"/>
<path d="M67.6885 202.64L72.8866 200.987C86.4148 197.442 92.7004 204.902 95.8758 214.493C96.4631 216.255 96.9633 217.843 97.2895 219.061C97.681 220.474 96.2456 221.692 94.9188 221.083C93.8096 220.561 92.6569 219.365 92.0697 216.82C92.0697 216.82 93.1789 221.997 90.9169 221.997C88.916 221.997 87.7633 218.8 87.7633 218.8C87.7633 218.8 88.3722 221.997 86.6105 221.997C84.6748 221.997 83.3916 218.517 83.3916 218.517C83.3916 218.517 84.2398 221.997 82.4999 222.258C81.5864 222.388 80.7164 221.845 79.629 219.931C78.9112 218.669 77.5845 217.908 76.149 217.908C73.9741 217.908 72.0384 216.516 71.3424 214.472L67.6885 202.64Z" fill="white"/>
<path d="M82.2816 222.497C81.3029 222.497 80.4329 221.714 79.4759 220.04C78.8017 218.865 77.5402 218.126 76.17 218.126C73.9081 218.126 71.8854 216.69 71.1459 214.537C71.1024 214.428 71.1676 214.298 71.2764 214.254C71.3851 214.211 71.5156 214.276 71.5591 214.385C72.2333 216.364 74.0821 217.691 76.17 217.691C77.6925 217.691 79.1062 218.517 79.8457 219.822C81.0636 221.954 81.9119 222.128 82.4991 222.041C82.7601 221.997 82.9558 221.888 83.1081 221.671C83.7388 220.757 83.2168 218.604 83.2168 218.582C83.1951 218.474 83.2603 218.365 83.3691 218.321C83.4778 218.278 83.5866 218.343 83.6301 218.452C83.6518 218.495 84.8698 221.78 86.6315 221.78C86.9143 221.78 87.1318 221.693 87.284 221.497C87.806 220.866 87.6537 219.365 87.5667 218.843C87.545 218.735 87.6102 218.626 87.719 218.604C87.8277 218.582 87.9365 218.626 87.98 218.735C88.0017 218.756 89.111 221.801 90.9379 221.801C91.2424 221.801 91.4816 221.693 91.6556 221.453C92.4169 220.496 92.0689 217.821 91.8514 216.864C91.8296 216.756 91.8949 216.625 92.0254 216.603C92.1341 216.582 92.2646 216.647 92.2864 216.777C92.7649 218.887 93.6783 220.279 95.0268 220.888C95.5706 221.149 96.1795 221.062 96.6145 220.67C97.0713 220.279 97.2453 219.692 97.0713 219.126C96.745 217.995 96.2665 216.473 95.6576 214.581C91.7209 202.618 84.2826 198.247 72.9293 201.205L67.753 202.858C67.6442 202.901 67.5137 202.836 67.4702 202.705C67.4267 202.597 67.492 202.466 67.6225 202.423L72.8206 200.77C79.1279 199.117 84.3696 199.747 88.3932 202.64C91.7426 205.033 94.2438 208.904 96.0708 214.428C96.7015 216.321 97.18 217.865 97.5063 218.996C97.7238 219.735 97.4845 220.496 96.8973 220.997C96.31 221.497 95.527 221.606 94.8311 221.279C93.8741 220.823 93.1129 220.018 92.5474 218.887C92.5909 219.931 92.5039 221.084 91.9819 221.714C91.7209 222.041 91.3511 222.215 90.9162 222.215C89.5894 222.215 88.6325 220.953 88.067 219.974C88.067 220.605 87.9582 221.323 87.5885 221.758C87.3492 222.062 87.0012 222.215 86.6098 222.215C85.3483 222.215 84.3913 220.953 83.8041 219.909C83.8476 220.605 83.7823 221.388 83.4343 221.888C83.2168 222.215 82.9123 222.41 82.5426 222.454C82.4556 222.497 82.3686 222.497 82.2816 222.497Z" fill="black"/>
<path d="M92.0459 216.951C91.9372 216.951 91.8502 216.886 91.8284 216.777C91.5239 215.428 91.1107 214.123 90.567 212.862C90.5235 212.753 90.567 212.623 90.6757 212.579C90.7845 212.536 90.915 212.579 90.9585 212.688C91.5022 213.971 91.9372 215.32 92.2417 216.69C92.2634 216.799 92.1982 216.929 92.0677 216.951C92.0894 216.951 92.0677 216.951 92.0459 216.951Z" fill="black"/>
<path d="M87.7165 218.908C87.6078 218.908 87.5208 218.843 87.499 218.734C87.151 216.885 86.716 215.036 86.2158 213.21C86.1723 213.101 86.2593 212.97 86.368 212.949C86.4768 212.905 86.6073 212.992 86.629 213.101C87.151 214.928 87.586 216.798 87.934 218.669C87.9557 218.777 87.8687 218.908 87.76 218.93C87.7382 218.908 87.7165 218.908 87.7165 218.908Z" fill="black"/>
<path d="M83.4107 218.757C83.3237 218.757 83.215 218.692 83.1933 218.583C82.9323 217.561 82.5843 216.451 82.258 215.386C82.084 214.842 81.91 214.32 81.7795 213.82C81.736 213.711 81.8013 213.58 81.9318 213.559C82.0405 213.515 82.171 213.58 82.1928 213.711C82.345 214.211 82.4973 214.733 82.6713 215.277C83.0193 216.343 83.3672 217.474 83.6282 218.496C83.65 218.605 83.5848 218.735 83.476 218.757C83.4543 218.735 83.4325 218.757 83.4107 218.757Z" fill="black"/>
<path d="M70.2507 224.302C70.2072 224.302 70.1419 224.28 70.0984 224.237C65.1396 219.8 62.0729 213.471 61.6814 206.816C61.6814 206.685 61.7684 206.598 61.8771 206.576C62.0076 206.576 62.0946 206.663 62.1164 206.772C62.5079 213.297 65.5093 219.539 70.3812 223.889C70.4682 223.976 70.4682 224.106 70.4029 224.193C70.3812 224.28 70.3159 224.302 70.2507 224.302Z" fill="white"/>
<path d="M128.538 197.05C128.495 197.05 128.451 197.028 128.408 197.006C124.123 193.766 119.534 190.895 114.749 188.481C114.641 188.437 114.597 188.285 114.662 188.198C114.706 188.089 114.858 188.046 114.945 188.111C119.752 190.547 124.363 193.418 128.669 196.68C128.756 196.745 128.778 196.898 128.712 196.985C128.669 197.028 128.604 197.05 128.538 197.05Z" fill="white"/>
</svg>
