<svg width="200" height="272" viewBox="0 0 200 272" fill="none" xmlns="http://www.w3.org/2000/svg">
<rect width="200" height="272" rx="8" fill="#F5FBFF"/>
<path d="M179.166 26.9204C179.187 27.0237 179.207 27.1064 179.228 27.1891C178.36 27.5818 177.554 28.1192 176.851 28.7393C176.789 28.6773 176.706 28.6153 176.624 28.5739C175.569 27.8505 174.123 28.1192 173.399 29.194C172.676 30.2482 172.944 31.695 174.019 32.4185C174.102 32.4805 174.185 32.5218 174.267 32.5631C173.936 33.4313 173.75 34.3821 173.688 35.3329C173.585 35.3329 173.502 35.3535 173.399 35.3742C172.138 35.6222 171.311 36.8211 171.539 38.0819C171.787 39.3428 172.986 40.1695 174.247 39.9422C174.35 39.9215 174.433 39.9008 174.515 39.8802C174.908 40.7483 175.445 41.5544 176.065 42.2572C176.003 42.3192 175.941 42.4018 175.9 42.4845C175.177 43.5387 175.445 44.9855 176.52 45.709C177.574 46.4324 179.021 46.1637 179.745 45.0889C179.807 45.0062 179.848 44.9235 179.889 44.8409C180.757 45.1716 181.708 45.3576 182.659 45.4196C182.659 45.5229 182.68 45.6056 182.7 45.709C182.948 46.9698 184.147 47.7966 185.408 47.5692C186.669 47.3212 187.496 46.1224 187.268 44.8615C187.248 44.7582 187.227 44.6755 187.206 44.5928C188.074 44.2001 188.881 43.6627 189.583 43.0426C189.645 43.1046 189.728 43.1666 189.811 43.208C190.865 43.9314 192.312 43.6627 193.035 42.5879C193.759 41.5337 193.49 40.0869 192.415 39.3634C192.332 39.3014 192.25 39.2601 192.167 39.2187C192.498 38.3506 192.684 37.3998 192.746 36.449C192.849 36.449 192.932 36.4283 193.035 36.4077C194.296 36.1596 195.123 34.9608 194.895 33.7C194.647 32.4391 193.449 31.6123 192.188 31.8397C192.084 31.8604 192.002 31.881 191.919 31.9017C191.526 31.0336 190.989 30.2275 190.369 29.5247C190.431 29.4627 190.493 29.38 190.534 29.2974C191.258 28.2432 190.989 26.7963 189.914 26.0729C188.86 25.3495 187.413 25.6182 186.69 26.693C186.628 26.7757 186.586 26.8583 186.545 26.941C185.677 26.6103 184.726 26.4243 183.775 26.3623C183.775 26.2589 183.755 26.1763 183.734 26.0729C183.486 24.8121 182.287 23.9853 181.026 24.2126C179.765 24.4607 178.938 25.6595 179.166 26.9204ZM187.475 35.0848C187.909 37.4205 186.38 39.6941 184.044 40.1282C181.708 40.5623 179.435 39.0327 179.001 36.6971C178.566 34.3614 180.096 32.0877 182.432 31.6537C184.767 31.199 187.02 32.7285 187.475 35.0848Z" fill="white"/>
<path d="M95.198 188.413H171.179C176.119 188.413 180.171 184.361 180.171 179.421L180.191 26.198C180.191 21.258 176.14 17.2067 171.2 17.2067H95.2187C90.2787 17.2067 86.2275 21.258 86.2275 26.198L86.2068 179.401C86.2068 184.361 90.258 188.413 95.198 188.413Z" fill="white"/>
<path d="M171.179 188.619H95.1979C92.7589 188.619 90.4439 187.668 88.7077 185.912C86.9715 184.175 86 181.86 86 179.421L86.0207 26.1979C86.0207 21.1339 90.1546 17 95.2186 17H171.2C173.639 17 175.954 17.9508 177.69 19.7077C179.426 21.444 180.398 23.7589 180.398 26.1979L180.377 179.421C180.398 184.485 176.264 188.619 171.179 188.619ZM95.2186 17.3927C90.3819 17.3927 86.4341 21.3406 86.4341 26.1773L86.4134 179.401C86.4134 181.736 87.3229 183.948 88.9971 185.602C90.6713 187.276 92.8623 188.185 95.1979 188.185H171.179C176.016 188.185 179.964 184.237 179.964 179.401L179.984 26.1773C179.984 23.8416 179.075 21.63 177.401 19.9764C175.726 18.3022 173.536 17.3927 171.2 17.3927H95.2186Z" fill="black"/>
<path d="M168.762 183.184H97.638C95.7777 183.184 94.0002 182.46 92.6773 181.117C91.3545 179.794 90.6104 178.016 90.6104 176.156L90.631 28.968C90.631 25.1028 93.7728 21.9404 97.6587 21.9404H168.783C170.643 21.9404 172.42 22.6638 173.743 24.0073C175.066 25.3302 175.81 27.1078 175.81 28.968L175.79 176.156C175.79 180.021 172.627 183.184 168.762 183.184ZM97.6587 22.3744C94.0208 22.3744 91.0444 25.3302 91.0444 28.9887L91.0237 176.177C91.0237 177.933 91.7058 179.587 92.9667 180.848C94.2275 182.109 95.8811 182.791 97.638 182.791H168.762C172.4 182.791 175.376 179.835 175.376 176.177L175.397 28.9887C175.397 27.2318 174.715 25.5782 173.454 24.3174C172.193 23.0565 170.539 22.3744 168.783 22.3744H97.6587Z" fill="black"/>
<path d="M142.014 27.2104H123.329C123.205 27.2104 123.122 27.1277 123.122 27.0037C123.122 26.8797 123.205 26.797 123.329 26.797H142.014C142.138 26.797 142.221 26.8797 142.221 27.0037C142.221 27.107 142.138 27.2104 142.014 27.2104Z" fill="black"/>
<path d="M169.463 43.3126L169.443 168.859C169.443 172.725 166.28 175.887 162.415 175.887H104.127C100.262 175.887 97.0994 172.725 97.0994 168.859L97.12 43.3126C97.12 39.4474 100.282 36.285 104.148 36.285H162.436C166.301 36.285 169.463 39.4474 169.463 43.3126Z" fill="#DFF3FE"/>
<path d="M169.567 91.5557V83.9907L161.341 74.9994C160.783 74.3793 160.452 73.4285 160.452 72.3744V36.0373L157.207 36.0166V70.4728L153.321 66.2148C152.577 65.4087 151.647 64.954 150.675 64.954L110.762 64.8507V35.934H107.517V64.8507L96.8518 64.83V72.395L107.517 72.4157V129.443H96.8518V134.218H105.636C106.277 134.218 114.421 134.218 114.421 134.218H144.288C145.508 134.218 146.479 135.582 146.479 137.339V144.904L143.71 147.529C142.697 148.48 141.539 148.996 140.361 148.996H129.572C128.497 148.996 121.015 148.996 121.015 148.996L96.8518 148.955V156.52L110.266 156.541V176.156H115.372V157.946C115.372 157.182 115.826 156.541 116.343 156.541H140.547C141.601 156.541 142.635 156.086 143.524 155.239L146.479 152.448V163.32C146.479 164.767 147.265 165.904 148.278 165.904H157.186V176.197L160.431 176.239V165.904H169.547V161.129H160.431V139.24L169.547 130.6V123.035L160.431 131.675V81.593L169.567 91.5557ZM128.456 129.443H110.762V72.4364L128.456 72.4777V129.443ZM157.186 161.15H150.696C150.159 161.15 149.725 160.551 149.725 159.765V149.389L157.186 142.32V161.15ZM157.186 131.861C157.186 133.66 156.525 135.375 155.45 136.388L149.725 141.824V134.073C149.725 131.469 148.298 129.422 146.479 129.443H131.701V72.4777L150.221 72.5191C151.461 72.5191 152.639 73.0771 153.61 74.1313L157.186 78.0378V131.861Z" fill="white"/>
<path d="M137.179 41.452C125.666 41.452 116.344 50.7946 116.385 62.3075C116.427 82.3777 137.324 103.523 137.324 103.523C137.324 103.523 158.117 82.1916 158.076 62.3075C158.055 50.7739 148.692 41.452 137.179 41.452Z" fill="#7BBEE4"/>
<path d="M148.672 75.023C154.925 68.7646 154.907 58.609 148.633 52.3398C142.358 46.0706 132.203 46.0618 125.95 52.3202C119.697 58.5786 119.714 68.7342 125.988 75.0034C132.263 81.2725 142.419 81.2813 148.672 75.023Z" fill="white"/>
<path d="M142.685 56.6834H126.475V70.4812H142.685V56.6834Z" fill="white"/>
<path d="M142.685 70.5445H126.474C126.437 70.5445 126.411 70.5194 126.411 70.4817V56.6839C126.411 56.6462 126.437 56.621 126.474 56.621H142.685C142.722 56.621 142.748 56.6462 142.748 56.6839V70.4817C142.748 70.5194 142.722 70.5445 142.685 70.5445ZM126.537 70.4188H142.622V56.7467H126.537V70.4188Z" fill="black"/>
<path d="M148.258 56.6929H140.863V70.4907H148.258V56.6929Z" fill="white"/>
<path d="M148.258 70.554H140.863C140.825 70.554 140.8 70.5289 140.8 70.4912V56.6934C140.8 56.6557 140.825 56.6306 140.863 56.6306H148.258C148.296 56.6306 148.321 56.6557 148.321 56.6934V70.4912C148.321 70.5289 148.296 70.554 148.258 70.554ZM140.925 70.4283H148.195V56.7562H140.925V70.4283Z" fill="black"/>
<path d="M132.731 56.7797L132.725 64.6211H134.799L134.792 56.7734L132.731 56.7797Z" fill="#DFF3FE"/>
<path d="M143.954 56.7732V64.6146H145.544V56.7669L143.954 56.7732Z" fill="#DFF3FE"/>
<path d="M153.444 131.385C148.111 131.385 143.791 135.705 143.812 141.038C143.833 150.339 153.506 160.136 153.506 160.136C153.506 160.136 163.138 150.256 163.117 141.038C163.097 135.705 158.777 131.385 153.444 131.385Z" fill="#7BBEE4"/>
<path d="M157.846 145.987C160.257 143.571 160.246 139.651 157.822 137.233C155.398 134.814 151.478 134.812 149.067 137.228C146.656 139.644 146.667 143.564 149.092 145.982C151.516 148.401 155.436 148.403 157.846 145.987Z" fill="white"/>
<path d="M111.092 108.999C105.76 108.999 101.44 113.319 101.46 118.652C101.481 127.953 111.154 137.75 111.154 137.75C111.154 137.75 120.786 127.87 120.766 118.652C120.766 113.34 116.425 108.999 111.092 108.999Z" fill="#7BBEE4"/>
<path d="M115.49 123.611C117.902 121.197 117.894 117.277 115.471 114.857C113.048 112.437 109.128 112.432 106.716 114.847C104.304 117.262 104.313 121.182 106.736 123.602C109.158 126.022 113.078 126.026 115.49 123.611Z" fill="white"/>
<path d="M10.9398 225.238C10.8762 225.471 2.07322 249.059 11.767 260.704C21.4609 272.35 44.5394 264.565 44.5394 264.565L39.5971 230.117L10.9398 225.238Z" fill="white"/>
<path d="M28.736 267.322C21.0573 267.322 15.1604 265.116 11.618 260.831C2.62417 250.013 9.28471 229.289 10.7271 225.259C10.7483 225.216 10.7484 225.174 10.7484 225.174C10.7908 225.068 10.8756 225.004 10.9816 225.026L39.6389 229.904C39.7238 229.926 39.8086 229.989 39.8086 230.074L44.7509 264.522C44.7721 264.628 44.7085 264.713 44.6025 264.755C44.5388 264.777 38.7268 266.728 31.8117 267.216C30.7511 267.28 29.7329 267.322 28.736 267.322ZM11.0877 225.471C10.4938 227.168 8.62715 232.853 7.8211 239.428C6.67566 248.783 8.07562 255.889 11.9362 260.555C16.8785 266.516 25.4481 267.216 31.7693 266.771C37.9844 266.325 43.3086 264.713 44.3055 264.395L39.4268 230.286L11.0877 225.471Z" fill="black"/>
<path d="M46.4482 234.423L8.07593 229.607C8.07593 229.607 12.7001 217.262 17.197 206.232C20.9515 197.005 29.9241 190.981 39.8725 191.002C52.239 191.023 69.9934 191.468 86.7507 193.378C97.7385 194.629 107.114 201.926 110.996 212.277C112.269 215.671 113.478 219.574 114.411 223.965L75.6994 236.926L46.4482 234.423Z" fill="#7BBEE4"/>
<path d="M96.5925 259.6C96.5925 259.6 108.28 261.213 113.307 256.355C118.335 251.498 123.638 220.974 123.638 220.974H105.12L96.5925 259.6Z" fill="white"/>
<path d="M101.068 260.088C98.5864 260.088 96.7622 259.834 96.5713 259.813C96.5076 259.813 96.4652 259.77 96.4228 259.728C96.3804 259.685 96.3804 259.622 96.3804 259.558L104.908 220.931C104.929 220.825 105.014 220.762 105.12 220.762H123.638C123.701 220.762 123.765 220.783 123.807 220.846C123.85 220.889 123.871 220.952 123.85 221.016C123.638 222.268 118.462 251.646 113.456 256.504C110.38 259.494 104.929 260.088 101.068 260.088ZM96.847 259.431C98.5015 259.622 108.641 260.576 113.159 256.207C117.826 251.667 122.874 224.113 123.383 221.186H105.289L96.847 259.431Z" fill="black"/>
<path d="M103.148 204.853H35.1211V262.019H103.148V204.853Z" fill="white"/>
<path d="M103.127 262.231H35.1001C34.9728 262.231 34.8879 262.146 34.8879 262.019V232.959C34.8879 232.831 34.9728 232.747 35.1001 232.747C35.2273 232.747 35.3122 232.831 35.3122 232.959V261.807H102.914V235.78C102.914 235.653 102.999 235.568 103.127 235.568C103.254 235.568 103.339 235.653 103.339 235.78V262.04C103.339 262.146 103.254 262.231 103.127 262.231Z" fill="black"/>
<path d="M84.9902 255.953C84.8629 255.953 84.7781 255.868 84.7781 255.74V206.932C84.7781 206.805 84.8629 206.72 84.9902 206.72C85.1175 206.72 85.2023 206.805 85.2023 206.932V255.74C85.2023 255.847 85.1175 255.953 84.9902 255.953Z" fill="black"/>
<path d="M62.5696 222.501H40.1699C40.0426 222.501 39.9578 222.416 39.9578 222.289V210.58C39.9578 210.453 40.0426 210.368 40.1699 210.368H62.5696C62.6969 210.368 62.7817 210.453 62.7817 210.58V222.289C62.7817 222.395 62.6969 222.501 62.5696 222.501ZM40.4032 222.077H62.3787V210.792H40.4032V222.077Z" fill="black"/>
<path d="M43.3105 220.825C43.1832 220.825 43.0984 220.74 43.0984 220.613V212.255C43.0984 212.128 43.1832 212.043 43.3105 212.043C43.4378 212.043 43.5226 212.128 43.5226 212.255V220.613C43.5226 220.719 43.4378 220.825 43.3105 220.825Z" fill="black"/>
<path d="M46.5344 220.825C46.4071 220.825 46.3223 220.74 46.3223 220.613V212.255C46.3223 212.128 46.4071 212.043 46.5344 212.043C46.6617 212.043 46.7465 212.128 46.7465 212.255V220.613C46.7465 220.719 46.6617 220.825 46.5344 220.825Z" fill="black"/>
<path d="M49.7807 220.825C49.6535 220.825 49.5686 220.74 49.5686 220.613V212.255C49.5686 212.128 49.6535 212.043 49.7807 212.043C49.908 212.043 49.9928 212.128 49.9928 212.255V220.613C49.9928 220.719 49.8868 220.825 49.7807 220.825Z" fill="black"/>
<path d="M53.0048 220.825C52.8776 220.825 52.7927 220.74 52.7927 220.613V212.255C52.7927 212.128 52.8776 212.043 53.0048 212.043C53.1321 212.043 53.217 212.128 53.217 212.255V220.613C53.217 220.719 53.1109 220.825 53.0048 220.825Z" fill="black"/>
<path d="M56.2287 220.825C56.1014 220.825 56.0166 220.74 56.0166 220.613V212.255C56.0166 212.128 56.1014 212.043 56.2287 212.043C56.356 212.043 56.4408 212.128 56.4408 212.255V220.613C56.4408 220.719 56.356 220.825 56.2287 220.825Z" fill="black"/>
<path d="M59.4526 220.825C59.3253 220.825 59.2405 220.74 59.2405 220.613V212.255C59.2405 212.128 59.3253 212.043 59.4526 212.043C59.5799 212.043 59.6647 212.128 59.6647 212.255V220.613C59.6647 220.719 59.5799 220.825 59.4526 220.825Z" fill="black"/>
<path d="M148.796 269.147H113.16L94.4084 220.974H130.044L148.796 269.147Z" fill="white"/>
<path d="M148.795 269.358H113.159C113.075 269.358 112.99 269.295 112.969 269.231L94.2173 221.059C94.1961 220.995 94.1961 220.91 94.2385 220.868C94.2809 220.804 94.3446 220.783 94.4082 220.783H130.044C130.129 220.783 130.214 220.847 130.235 220.91L148.986 269.083C149.008 269.146 149.008 269.231 148.965 269.273C148.923 269.316 148.859 269.358 148.795 269.358ZM113.308 268.934H148.477L129.896 221.186H94.7264L113.308 268.934Z" fill="black"/>
<path d="M126.161 232.196H108.512L107.134 228.674H124.782L126.161 232.196Z" fill="#DFF3FE"/>
<path d="M135.813 248.423H110.783L105.947 235.781H130.977L135.813 248.423Z" fill="#DFF3FE"/>
<path d="M105.462 220.974C107.923 219.235 110.405 217.474 113.247 216.477C116.09 215.48 119.356 215.31 122.008 216.732C123.365 216.159 125.062 216.52 126.08 217.58C128.923 216.965 132.104 218.662 133.165 221.398C134.226 224.135 133.059 227.528 130.535 229.013C130.111 229.268 129.623 229.48 129.135 229.48C128.626 229.48 128.117 229.247 127.883 228.801C127.12 229.374 125.995 229.395 125.232 228.822C124.871 229.141 124.299 229.141 123.853 228.95C123.408 228.759 123.068 228.377 122.729 228.016C120.968 226.022 119.462 223.413 118.317 220.995H105.462V220.974Z" fill="white"/>
<path d="M129.113 229.671C128.583 229.671 128.095 229.437 127.798 229.077C127.013 229.544 125.995 229.544 125.21 229.077C124.764 229.374 124.149 229.331 123.725 229.141C123.237 228.928 122.877 228.525 122.537 228.144C121.031 226.425 119.546 224.092 118.146 221.207H105.44C105.356 221.207 105.271 221.144 105.228 221.059C105.207 220.974 105.228 220.868 105.313 220.825C107.753 219.107 110.277 217.304 113.162 216.286C116.343 215.162 119.568 215.247 122.007 216.498C123.407 215.968 125.061 216.307 126.122 217.347C129.028 216.774 132.252 218.535 133.334 221.313C134.437 224.113 133.207 227.656 130.619 229.183C130.067 229.501 129.58 229.671 129.113 229.671ZM127.883 228.547C127.904 228.547 127.925 228.547 127.925 228.547C127.989 228.568 128.031 228.61 128.074 228.653C128.264 229.034 128.752 229.225 129.134 229.225C129.516 229.225 129.94 229.077 130.428 228.801C132.846 227.38 133.992 224.071 132.973 221.462C131.955 218.832 128.88 217.198 126.122 217.792C126.058 217.813 125.974 217.792 125.931 217.729C124.977 216.732 123.365 216.392 122.092 216.922C122.028 216.944 121.965 216.944 121.901 216.922C119.546 215.671 116.428 215.586 113.31 216.689C110.701 217.622 108.368 219.192 106.119 220.783H118.295C118.38 220.783 118.443 220.825 118.486 220.91C119.886 223.816 121.371 226.171 122.877 227.868C123.195 228.228 123.513 228.568 123.916 228.759C124.277 228.928 124.765 228.95 125.083 228.674C125.146 228.61 125.274 228.61 125.337 228.653C126.037 229.141 127.055 229.141 127.755 228.631C127.777 228.568 127.819 228.547 127.883 228.547Z" fill="black"/>
<path d="M125.4 228.144H125.379C125.273 228.122 125.188 228.016 125.209 227.91C125.803 223.71 124.891 220.21 122.473 217.517C122.388 217.432 122.409 217.304 122.494 217.22C122.579 217.135 122.706 217.156 122.791 217.241C125.294 220.041 126.248 223.647 125.633 227.974C125.591 228.059 125.506 228.144 125.4 228.144Z" fill="black"/>
<path d="M128.242 228.144C128.221 228.144 128.2 228.144 128.179 228.144C128.073 228.101 128.009 227.995 128.03 227.889C128.964 224.623 128.391 220.974 126.482 218.132C126.418 218.026 126.439 217.898 126.545 217.835C126.652 217.771 126.779 217.792 126.842 217.899C128.815 220.826 129.409 224.601 128.433 227.995C128.412 228.08 128.327 228.144 128.242 228.144Z" fill="black"/>
<path d="M131.509 227.635C131.488 227.635 131.488 227.635 131.467 227.635C131.361 227.614 131.276 227.508 131.297 227.38C131.764 224.983 131.997 221.653 130.47 219.277C130.406 219.171 130.427 219.044 130.534 218.98C130.64 218.917 130.767 218.938 130.83 219.044C132.421 221.526 132.188 224.983 131.721 227.465C131.7 227.571 131.615 227.635 131.509 227.635Z" fill="black"/>
<path d="M24.6852 245.623C24.6852 245.623 78.2027 243.311 79.7512 244.965C81.2996 246.62 80.5784 248.274 71.924 249.844C71.924 249.844 75.2118 258.647 89.9541 262.019H95.8298C95.8298 262.019 94.3025 266.707 86.4754 267.11C79.7936 267.45 40.382 268.553 28.9912 268.871C25.0246 268.977 21.0792 268.065 17.6428 266.071C13.2308 263.547 9.05203 259.389 7.60962 250.629L24.6852 245.623Z" fill="white"/>
<path d="M28.3327 269.104C24.4721 269.104 20.7388 268.128 17.5146 266.283C13.9298 264.225 8.96626 260.365 7.39658 250.692C7.37537 250.586 7.46023 250.459 7.56629 250.459C7.67235 250.437 7.79959 250.522 7.79959 250.628C9.34805 260.131 14.2056 263.907 17.7268 265.922C21.0782 267.831 24.96 268.807 28.969 268.68C40.7841 268.34 79.8139 267.258 86.4532 266.919C94.0258 266.537 95.6167 262.019 95.6167 261.977C95.6591 261.871 95.7652 261.807 95.8925 261.849C95.9986 261.892 96.0622 261.998 96.0198 262.125C95.9561 262.316 94.344 266.961 86.4744 267.365C79.8139 267.704 40.7841 268.807 28.969 269.125C28.7781 269.104 28.5448 269.104 28.3327 269.104Z" fill="black"/>
<path d="M95.8289 262.232H89.9533C89.932 262.232 89.9321 262.232 89.9108 262.232C82.2534 260.471 77.714 257.226 75.2747 254.829C72.602 252.198 71.7747 250.014 71.7323 249.929C71.7111 249.865 71.711 249.801 71.7535 249.759C71.7747 249.695 71.8383 249.674 71.9019 249.653C76.9928 248.72 79.7716 247.659 80.1534 246.535C80.2807 246.132 80.1109 245.665 79.6019 245.114C79.3049 244.817 75.9958 244.223 51.6022 244.88C38.1963 245.241 24.8328 245.814 24.7055 245.835C24.5995 245.835 24.4934 245.75 24.4934 245.623C24.4934 245.495 24.5783 245.411 24.7055 245.411C24.8328 245.411 38.2387 244.838 51.6658 244.456C78.9019 243.714 79.6867 244.541 79.9413 244.817C80.5564 245.474 80.7685 246.089 80.5776 246.662C80.1534 247.977 77.5019 249.038 72.2626 250.014C72.9201 251.435 76.9292 258.816 90.0169 261.829H95.8713C95.9986 261.829 96.0835 261.913 96.0835 262.041C96.041 262.147 95.9562 262.232 95.8289 262.232Z" fill="black"/>
<path d="M57.3716 170.638L47.1899 178.211C45.6202 179.378 46.0021 181.86 47.8687 182.432C48.3778 182.581 48.9717 182.708 49.6505 182.75C49.4384 184.363 50.6899 185.826 52.3232 185.826C54.7838 185.847 58.008 185.869 59.0898 185.784L64.2443 173.205L57.3716 170.638Z" fill="black"/>
<path d="M57.8593 175.772L56.0139 191.914C56.0139 191.914 58.8351 196.135 65.7926 196.284C72.7501 196.432 70.5016 192.275 70.5016 192.275L70.9683 182.284C70.9683 182.305 63.9471 174.796 57.8593 175.772Z" fill="white"/>
<path d="M56.0141 192.126H55.9929C55.8868 192.105 55.802 191.999 55.802 191.893L57.6474 175.729C57.6686 175.644 57.7323 175.56 57.8171 175.538C63.9474 174.563 70.8412 181.838 71.117 182.135C71.2018 182.22 71.2018 182.347 71.117 182.432C71.0321 182.517 70.9049 182.517 70.82 182.432C70.7564 182.369 63.9262 175.157 58.0505 175.941L56.2262 191.935C56.205 192.062 56.1202 192.126 56.0141 192.126Z" fill="black"/>
<path d="M70.5012 192.487C70.3739 192.487 70.2891 192.381 70.2891 192.275L70.7557 182.284C70.7557 182.157 70.8618 182.072 70.9678 182.072C71.0951 182.072 71.18 182.178 71.18 182.284L70.7133 192.275C70.7133 192.402 70.6285 192.487 70.5012 192.487Z" fill="black"/>
<path d="M75.0004 167.839C75.0004 167.839 79.9428 180.651 72.2641 184.766C64.5642 188.882 58.243 178.657 57.8612 177.618C57.4794 176.6 56.5037 172.061 56.5037 172.061L70.9065 166.906L73.8762 167.33L75.0004 167.839Z" fill="white"/>
<path d="M68.5731 185.954C67.6186 185.954 66.6641 185.763 65.6883 185.403C61.0005 183.642 57.8824 178.254 57.6702 177.703C57.2884 176.685 56.3339 172.294 56.2915 172.103C56.2703 171.997 56.3339 171.891 56.4187 171.848L70.8216 166.694C70.864 166.672 70.8852 166.672 70.9277 166.694L73.8973 167.118C73.9185 167.118 73.9398 167.118 73.961 167.139L75.1064 167.669C75.1488 167.691 75.1912 167.733 75.2124 167.776C75.2337 167.818 76.4639 171.042 76.7397 174.754C77.1003 179.697 75.5943 183.239 72.3701 184.957C71.1186 185.615 69.8458 185.954 68.5731 185.954ZM56.7369 172.188C56.9278 173.036 57.7339 176.663 58.0521 177.533C58.3915 178.424 61.5944 183.387 65.8368 184.978C68.0004 185.784 70.1216 185.657 72.158 184.554C79.2851 180.736 75.2336 169.048 74.8306 167.966L73.7913 167.5L70.9064 167.097L56.7369 172.188Z" fill="black"/>
<path d="M74.659 165.993C74.659 165.993 78.8378 165.23 78.5196 168.114C78.2015 170.999 72.8348 170.469 70.9045 167.923L74.659 165.993Z" fill="black"/>
<path d="M56.5031 173.227L81.0664 164.869C81.5119 164.721 81.7452 164.233 81.5967 163.787C81.4482 163.342 80.9603 163.109 80.5149 163.278L54.9333 172.463L56.5031 173.227Z" fill="#7BBEE4"/>
<path d="M75.0002 165.993L72.773 160.648C70.7791 155.875 65.264 153.69 60.5337 155.811C59.558 156.236 58.561 156.787 57.5428 157.445C53.8944 159.821 52.3247 164.36 53.6399 168.517L54.8914 172.463L75.0002 165.993Z" fill="#7BBEE4"/>
<path d="M61.1061 169.939C61.0425 169.939 60.9576 169.896 60.9152 169.833C58.688 166.142 56.6092 161.051 59.2819 157.636C59.3243 157.593 59.3455 157.551 59.3667 157.53C59.388 157.466 59.4304 157.402 59.494 157.381C59.6 157.339 59.7273 157.381 59.7698 157.487C59.8334 157.636 59.7486 157.721 59.6213 157.89C57.0971 161.093 59.1334 166.014 61.2758 169.599C61.3395 169.705 61.297 169.833 61.2122 169.896C61.191 169.917 61.1485 169.939 61.1061 169.939Z" fill="black"/>
<path d="M57.86 174.138C57.86 174.138 56.863 170.426 53.8934 172.929C50.9449 175.432 55.8449 180.905 59.366 178.72L57.86 174.138Z" fill="white"/>
<path d="M57.6041 179.421C56.0557 179.421 54.5496 178.466 53.6375 177.193C52.4497 175.56 52.4921 173.821 53.7648 172.739C54.6981 171.954 55.5466 171.657 56.3102 171.912C57.5829 172.315 58.0496 173.99 58.0708 174.075C58.092 174.181 58.0284 174.309 57.9223 174.33C57.8163 174.351 57.689 174.287 57.6678 174.181C57.6678 174.16 57.2435 172.633 56.2041 172.315C55.589 172.124 54.8678 172.378 54.0618 173.078C52.7466 174.181 53.1709 175.815 53.9981 176.96C55.1648 178.572 57.4132 179.675 59.2799 178.53C59.3859 178.466 59.5132 178.508 59.5769 178.593C59.6405 178.699 59.5981 178.827 59.5132 178.89C58.8769 179.272 58.2405 179.421 57.6041 179.421Z" fill="black"/>
<path d="M58.0509 177.384C57.9661 177.384 57.8812 177.341 57.86 177.256C57.4782 176.323 56.3964 175.729 55.3995 175.92C55.2934 175.941 55.1661 175.856 55.1449 175.75C55.1237 175.644 55.2085 175.517 55.3146 175.496C56.4176 175.305 57.6055 175.899 58.1358 176.896C58.157 176.917 58.1782 176.938 58.1994 176.981L58.2418 177.108C58.2843 177.214 58.2206 177.341 58.1145 177.384C58.1145 177.384 58.0934 177.384 58.0509 177.384Z" fill="black"/>
</svg>
