<svg width="200" height="272" viewBox="0 0 200 272" fill="none" xmlns="http://www.w3.org/2000/svg">
<rect width="200" height="272" rx="8" fill="#F5FBFF"/>
<path d="M178.084 117.237V119.038C178.084 121.754 175.878 123.945 173.162 123.945H28.5564C25.8405 123.945 23.6348 121.739 23.6348 119.038V117.237H178.084Z" fill="white"/>
<path d="M173.162 124.095H28.5566C25.7656 124.095 23.4849 121.83 23.4849 119.039V117.238C23.4849 117.148 23.5449 117.088 23.6349 117.088C23.7249 117.088 23.785 117.148 23.785 117.238V119.039C23.785 121.665 25.9157 123.795 28.5566 123.795H173.162C175.788 123.795 177.934 121.665 177.934 119.039V117.238C177.934 117.148 177.994 117.088 178.084 117.088C178.174 117.088 178.234 117.148 178.234 117.238V119.039C178.234 121.83 175.953 124.095 173.162 124.095Z" fill="black"/>
<path d="M178.083 117.237H23.6494V30.8515C23.6494 27.7004 26.2003 25.1495 29.3514 25.1495H172.381C175.532 25.1495 178.083 27.7004 178.083 30.8515V117.237Z" fill="white"/>
<path d="M178.084 117.387H23.6501C23.56 117.387 23.5 117.327 23.5 117.237V30.8521C23.5 27.626 26.1259 25.0001 29.352 25.0001H172.382C175.608 25.0001 178.234 27.626 178.234 30.8521V117.237C178.234 117.312 178.159 117.387 178.084 117.387ZM23.8001 117.087H177.934V30.8521C177.934 27.791 175.443 25.3002 172.382 25.3002H29.352C26.291 25.3002 23.8001 27.791 23.8001 30.8521V117.087Z" fill="black"/>
<path d="M172.802 112.105H154.661C154.571 112.105 154.511 112.045 154.511 111.955C154.511 111.865 154.571 111.805 154.661 111.805H172.652V30.9868C172.652 30.7617 172.457 30.5666 172.232 30.5666H29.4873C29.2623 30.5666 29.0672 30.7617 29.0672 30.9868V111.805H54.7712C54.8612 111.805 54.9212 111.865 54.9212 111.955C54.9212 112.045 54.8612 112.105 54.7712 112.105H28.9171C28.8271 112.105 28.7671 112.045 28.7671 111.955V30.9868C28.7671 30.5967 29.0972 30.2665 29.4873 30.2665H172.232C172.622 30.2665 172.952 30.5967 172.952 30.9868V111.955C172.952 112.045 172.892 112.105 172.802 112.105Z" fill="black"/>
<path d="M124.216 138.874H77.5051C74.8341 138.874 72.6733 136.714 72.6733 134.043V123.959H129.048V134.028C129.048 136.699 126.887 138.874 124.216 138.874Z" fill="white"/>
<path d="M124.216 139.025H77.5052C74.7592 139.025 72.5234 136.789 72.5234 134.043V123.96C72.5234 123.87 72.5835 123.81 72.6735 123.81H129.048C129.138 123.81 129.198 123.87 129.198 123.96V134.028C129.198 136.789 126.962 139.025 124.216 139.025ZM72.8235 124.095V134.028C72.8235 136.609 74.9243 138.71 77.5052 138.71H124.216C126.797 138.71 128.898 136.609 128.898 134.028V124.095H72.8235Z" fill="black"/>
<path d="M126.947 127.605H74.7736C74.6836 127.605 74.6235 127.545 74.6235 127.455C74.6235 127.365 74.6836 127.305 74.7736 127.305H126.947C127.037 127.305 127.097 127.365 127.097 127.455C127.097 127.545 127.037 127.605 126.947 127.605Z" fill="black"/>
<path d="M81.9626 47.2239H67.6476C67.5576 47.2239 67.4976 47.1639 67.4976 47.0739C67.4976 46.9838 67.5576 46.9238 67.6476 46.9238H81.9626C82.0527 46.9238 82.1127 46.9838 82.1127 47.0739C82.1127 47.1489 82.0527 47.2239 81.9626 47.2239Z" fill="black"/>
<path d="M98.2733 50.5696H67.6476C67.5576 50.5696 67.4976 50.5096 67.4976 50.4196C67.4976 50.3296 67.5576 50.2695 67.6476 50.2695H98.2733C98.3633 50.2695 98.4233 50.3296 98.4233 50.4196C98.4233 50.5096 98.3633 50.5696 98.2733 50.5696Z" fill="black"/>
<path d="M85.7889 53.9323H67.6476C67.5576 53.9323 67.4976 53.8723 67.4976 53.7823C67.4976 53.6922 67.5576 53.6322 67.6476 53.6322H85.7889C85.879 53.6322 85.939 53.6922 85.939 53.7823C85.939 53.8573 85.879 53.9323 85.7889 53.9323Z" fill="black"/>
<path d="M85.7898 41.0419H67.6484V44.5981H85.7898V41.0419Z" fill="#DFF3FE"/>
<path d="M63.8065 41.0419H45.7402V59.1082H63.8065V41.0419Z" fill="#DFF3FE"/>
<path d="M42.0672 53.376H36.4552C36.3652 53.376 36.3052 53.316 36.3052 53.226V47.614C36.3052 47.524 36.3652 47.464 36.4552 47.464H41.7371C41.8271 47.464 41.8871 47.524 41.8871 47.614C41.8871 47.7041 41.8271 47.7641 41.7371 47.7641H36.6053V53.0759H41.9171V49.1296C41.9171 49.0395 41.9771 48.9795 42.0672 48.9795C42.1572 48.9795 42.2172 49.0395 42.2172 49.1296V53.226C42.2172 53.301 42.1572 53.376 42.0672 53.376Z" fill="black"/>
<path d="M39.2608 52.4156C39.2158 52.4156 39.1708 52.3856 39.1407 52.3556L36.95 49.2795C36.905 49.2195 36.92 49.1145 36.98 49.0694C37.04 49.0244 37.1451 49.0394 37.1901 49.0995L39.2608 52.0105L42.9671 46.8487C43.0121 46.7887 43.1021 46.7586 43.1772 46.8187C43.2372 46.8637 43.2672 46.9537 43.2072 47.0287L39.3808 52.3556C39.3508 52.3856 39.3058 52.4156 39.2608 52.4156Z" fill="#5479F7"/>
<path d="M90.7885 93.2291H67.6354C67.5454 93.2291 67.4854 93.169 67.4854 93.079C67.4854 92.989 67.5454 92.929 67.6354 92.929H90.7885C90.8785 92.929 90.9385 92.989 90.9385 93.079C90.9385 93.169 90.8785 93.2291 90.7885 93.2291Z" fill="black"/>
<path d="M94.7949 96.5898H67.6354C67.5454 96.5898 67.4854 96.5298 67.4854 96.4398C67.4854 96.3498 67.5454 96.2897 67.6354 96.2897H94.7949C94.8849 96.2897 94.9449 96.3498 94.9449 96.4398C94.9449 96.5148 94.8849 96.5898 94.7949 96.5898Z" fill="black"/>
<path d="M90.7885 99.9369H67.6354C67.5454 99.9369 67.4854 99.8769 67.4854 99.7869C67.4854 99.6969 67.5454 99.6368 67.6354 99.6368H90.7885C90.8785 99.6368 90.9385 99.6969 90.9385 99.7869C90.9385 99.8769 90.8785 99.9369 90.7885 99.9369Z" fill="black"/>
<path d="M85.794 87.0614H67.6377V90.6176H85.794V87.0614Z" fill="#DFF3FE"/>
<path d="M63.8065 87.0616H45.7402V105.128H63.8065V87.0616Z" fill="#DFF3FE"/>
<path d="M42.0672 99.3964H36.4552C36.3652 99.3964 36.3052 99.3364 36.3052 99.2464V93.6344C36.3052 93.5444 36.3652 93.4844 36.4552 93.4844H42.0672C42.1122 93.4844 42.1422 93.4994 42.1722 93.5294C42.2022 93.5594 42.2172 93.5894 42.2172 93.6344L42.2022 99.2464C42.2172 99.3214 42.1572 99.3964 42.0672 99.3964ZM36.6053 99.0963H41.9171L41.9321 93.7845H36.6203V99.0963H36.6053Z" fill="#E2EAFF"/>
<path d="M90.7885 70.8423H67.6354C67.5454 70.8423 67.4854 70.7823 67.4854 70.6922C67.4854 70.6022 67.5454 70.5422 67.6354 70.5422H90.7885C90.8785 70.5422 90.9385 70.6022 90.9385 70.6922C90.9385 70.7673 90.8785 70.8423 90.7885 70.8423Z" fill="black"/>
<path d="M98.2761 74.1879H67.6354C67.5454 74.1879 67.4854 74.1279 67.4854 74.0379C67.4854 73.9478 67.5454 73.8878 67.6354 73.8878H98.2761C98.3661 73.8878 98.4261 73.9478 98.4261 74.0379C98.4261 74.1279 98.3661 74.1879 98.2761 74.1879Z" fill="black"/>
<path d="M85.7917 77.55H67.6354C67.5454 77.55 67.4854 77.49 67.4854 77.4C67.4854 77.31 67.5454 77.2499 67.6354 77.2499H85.7917C85.8818 77.2499 85.9418 77.31 85.9418 77.4C85.9418 77.475 85.8818 77.55 85.7917 77.55Z" fill="black"/>
<path d="M85.794 64.6603H67.6377V68.2165H85.794V64.6603Z" fill="#DFF3FE"/>
<path d="M63.8065 64.6604H45.7402V82.7267H63.8065V64.6604Z" fill="#DFF3FE"/>
<path d="M42.0672 76.9953H36.4552C36.3652 76.9953 36.3052 76.9353 36.3052 76.8453V71.2333C36.3052 71.1433 36.3652 71.0833 36.4552 71.0833H42.0672C42.1122 71.0833 42.1422 71.0983 42.1722 71.1283C42.2022 71.1583 42.2172 71.1883 42.2172 71.2333L42.2022 76.8453C42.2172 76.9353 42.1572 76.9953 42.0672 76.9953ZM36.6053 76.6952H41.9171L41.9321 71.3834H36.6203V76.6952H36.6053Z" fill="#E2EAFF"/>
<path d="M41.3882 83.1609L39.1074 74.0677L47.0752 78.8394L43.3539 80.0548L41.3882 83.1609Z" fill="#7BBEE4"/>
<path d="M160.005 61.1473H149.006C148.451 61.1473 148 61.5975 148 62.1527V65.1687C148 65.7239 148.451 66.1741 149.006 66.1741H160.005C160.56 66.1741 161.01 65.7239 161.01 65.1687V62.1527C161.01 61.5975 160.56 61.1473 160.005 61.1473Z" fill="white"/>
<path d="M160.004 66.3248H149.005C148.36 66.3248 147.85 65.7996 147.85 65.1694V62.1533C147.85 61.5081 148.375 60.9979 149.005 60.9979H160.004C160.649 60.9979 161.159 61.5231 161.159 62.1533V65.1694C161.159 65.7996 160.649 66.3248 160.004 66.3248ZM148.99 61.298C148.51 61.298 148.135 61.6882 148.135 62.1533V65.1694C148.135 65.6495 148.525 66.0247 148.99 66.0247H159.989C160.469 66.0247 160.844 65.6345 160.844 65.1694V62.1533C160.844 61.6732 160.454 61.298 159.989 61.298H148.99Z" fill="black"/>
<path d="M165.077 39.5411H125.553V44.1177H165.077V39.5411Z" fill="#7BBEE4"/>
<path d="M165.059 55.6857H125.94C125.85 55.6857 125.79 55.6257 125.79 55.5357C125.79 55.4456 125.85 55.3856 125.94 55.3856H165.059C165.149 55.3856 165.209 55.4456 165.209 55.5357C165.209 55.6107 165.149 55.6857 165.059 55.6857Z" fill="black"/>
<path d="M138.515 51.56H125.94C125.85 51.56 125.79 51.5 125.79 51.4099C125.79 51.3199 125.85 51.2599 125.94 51.2599H138.515C138.605 51.2599 138.665 51.3199 138.665 51.4099C138.665 51.485 138.605 51.56 138.515 51.56Z" fill="black"/>
<path d="M154.044 51.56H141.92C141.83 51.56 141.77 51.5 141.77 51.4099C141.77 51.3199 141.83 51.2599 141.92 51.2599H154.044C154.134 51.2599 154.194 51.3199 154.194 51.4099C154.194 51.485 154.134 51.56 154.044 51.56Z" fill="black"/>
<path d="M159.886 87.8114H152.234C151.663 87.8114 151.198 87.3462 151.198 86.776V79.1234C151.198 78.5532 151.663 78.088 152.234 78.088H159.886C160.456 78.088 160.922 78.5532 160.922 79.1234V86.776C160.922 87.3462 160.456 87.8114 159.886 87.8114Z" fill="white"/>
<path d="M159.887 87.9621H152.234C151.589 87.9621 151.049 87.4369 151.049 86.7767V79.124C151.049 78.4788 151.574 77.9386 152.234 77.9386H159.887C160.532 77.9386 161.072 78.4638 161.072 79.124V86.7767C161.072 87.4369 160.532 87.9621 159.887 87.9621ZM152.234 78.2537C151.754 78.2537 151.349 78.6438 151.349 79.139V86.7917C151.349 87.2719 151.739 87.677 152.234 87.677H159.887C160.367 87.677 160.772 87.2869 160.772 86.7917V79.139C160.772 78.6588 160.382 78.2537 159.887 78.2537H152.234Z" fill="black"/>
<g clip-path="url(#clip0_3394_50041)">
<path d="M158.153 81.4481C158.153 81.4978 158.133 81.5455 158.098 81.5807C158.063 81.6159 158.015 81.6356 157.965 81.6356H157.212C157.214 81.6666 157.215 81.6977 157.215 81.7294C157.215 82.1022 157.067 82.4596 156.803 82.7233C156.539 82.9869 156.182 83.1352 155.809 83.1356H155.45L157.154 84.6844C157.172 84.7008 157.188 84.7208 157.198 84.7432C157.209 84.7655 157.215 84.7898 157.217 84.8146C157.218 84.8393 157.214 84.8641 157.206 84.8875C157.198 84.9109 157.185 84.9324 157.168 84.9507C157.152 84.9691 157.131 84.984 157.109 84.9945C157.086 85.005 157.062 85.0109 157.037 85.012C157.013 85.013 156.988 85.0091 156.965 85.0005C156.941 84.9919 156.92 84.9788 156.902 84.9619L154.839 83.0869C154.811 83.0614 154.792 83.0281 154.783 82.9913C154.774 82.9544 154.777 82.9158 154.79 82.8805C154.804 82.8452 154.828 82.8149 154.859 82.7935C154.891 82.7721 154.927 82.7606 154.965 82.7606H155.809C156.082 82.7603 156.345 82.6516 156.538 82.4582C156.731 82.2649 156.84 82.0028 156.84 81.7294C156.84 81.6977 156.839 81.6666 156.836 81.6356H154.965C154.916 81.6356 154.868 81.6159 154.833 81.5807C154.798 81.5455 154.778 81.4978 154.778 81.4481C154.778 81.3984 154.798 81.3507 154.833 81.3155C154.868 81.2804 154.916 81.2606 154.965 81.2606H156.727C156.641 81.0914 156.509 80.9493 156.347 80.8501C156.185 80.7508 155.999 80.6982 155.809 80.6981H154.965C154.916 80.6981 154.868 80.6784 154.833 80.6432C154.798 80.608 154.778 80.5603 154.778 80.5106C154.778 80.4609 154.798 80.4132 154.833 80.378C154.868 80.3429 154.916 80.3231 154.965 80.3231H157.965C158.015 80.3231 158.063 80.3429 158.098 80.378C158.133 80.4132 158.153 80.4609 158.153 80.5106C158.153 80.5603 158.133 80.608 158.098 80.6432C158.063 80.6784 158.015 80.6981 157.965 80.6981H156.764C156.931 80.8529 157.058 81.0459 157.135 81.2606H157.965C158.015 81.2606 158.063 81.2804 158.098 81.3155C158.133 81.3507 158.153 81.3984 158.153 81.4481Z" fill="black"/>
</g>
<g clip-path="url(#clip1_3394_50041)">
<path d="M164.528 62.8231C164.528 62.8563 164.515 62.8881 164.491 62.9115C164.468 62.935 164.436 62.9481 164.403 62.9481H163.9C163.902 62.9687 163.903 62.9895 163.903 63.0106C163.903 63.2592 163.804 63.4975 163.628 63.6732C163.452 63.849 163.214 63.9478 162.965 63.9481H162.726L163.862 64.9806C163.874 64.9916 163.884 65.0049 163.892 65.0198C163.899 65.0347 163.903 65.0509 163.904 65.0674C163.905 65.0839 163.902 65.1005 163.897 65.116C163.891 65.1316 163.883 65.146 163.871 65.1582C163.86 65.1704 163.847 65.1803 163.832 65.1874C163.817 65.1944 163.801 65.1983 163.784 65.199C163.768 65.1997 163.751 65.1971 163.736 65.1914C163.72 65.1856 163.706 65.1769 163.694 65.1656L162.319 63.9156C162.3 63.8987 162.287 63.8764 162.281 63.8519C162.275 63.8273 162.277 63.8016 162.286 63.7781C162.295 63.7545 162.311 63.7343 162.332 63.72C162.353 63.7058 162.378 63.6981 162.403 63.6981H162.965C163.148 63.6979 163.322 63.6254 163.451 63.4965C163.58 63.3676 163.653 63.1929 163.653 63.0106C163.653 62.9895 163.652 62.9687 163.65 62.9481H162.403C162.37 62.9481 162.338 62.935 162.314 62.9115C162.291 62.8881 162.278 62.8563 162.278 62.8231C162.278 62.79 162.291 62.7582 162.314 62.7347C162.338 62.7113 162.37 62.6981 162.403 62.6981H163.577C163.52 62.5853 163.432 62.4906 163.324 62.4244C163.216 62.3582 163.092 62.3232 162.965 62.3231H162.403C162.37 62.3231 162.338 62.31 162.314 62.2865C162.291 62.2631 162.278 62.2313 162.278 62.1981C162.278 62.165 162.291 62.1332 162.314 62.1097C162.338 62.0863 162.37 62.0731 162.403 62.0731H164.403C164.436 62.0731 164.468 62.0863 164.491 62.1097C164.515 62.1332 164.528 62.165 164.528 62.1981C164.528 62.2313 164.515 62.2631 164.491 62.2865C164.468 62.31 164.436 62.3231 164.403 62.3231H163.602C163.713 62.4263 163.798 62.555 163.849 62.6981H164.403C164.436 62.6981 164.468 62.7113 164.491 62.7347C164.515 62.7582 164.528 62.79 164.528 62.8231Z" fill="black"/>
</g>
<path d="M143.946 87.8128H131.222C130.592 87.8128 130.097 87.3026 130.097 86.6874V79.2448C130.097 78.6146 130.607 78.1194 131.222 78.1194H143.946C144.577 78.1194 145.072 78.6296 145.072 79.2448V86.6874C145.072 87.3026 144.577 87.8128 143.946 87.8128Z" fill="white"/>
<path d="M143.949 87.9635H131.224C130.519 87.9635 129.949 87.3933 129.949 86.6881V79.2455C129.949 78.5402 130.519 77.97 131.224 77.97H143.949C144.654 77.97 145.224 78.5402 145.224 79.2455V86.6881C145.224 87.3933 144.654 87.9635 143.949 87.9635ZM131.224 78.2551C130.684 78.2551 130.249 78.6903 130.249 79.2305V86.6731C130.249 87.2133 130.684 87.6484 131.224 87.6484H143.949C144.489 87.6484 144.924 87.2133 144.924 86.6731V79.2305C144.924 78.6903 144.489 78.2551 143.949 78.2551H131.224Z" fill="black"/>
<path d="M143.215 81.2111H141.189C140.844 81.2111 140.559 81.5112 140.559 81.8863V82.9517C140.559 83.3268 140.844 83.6269 141.189 83.6269H143.215C143.56 83.6269 143.845 83.3268 143.845 82.9517V81.8863C143.845 81.5112 143.56 81.2111 143.215 81.2111Z" fill="white"/>
<path d="M143.213 83.7776H141.187C140.752 83.7776 140.407 83.4025 140.407 82.9523V81.8869C140.407 81.4218 140.752 81.0616 141.187 81.0616H143.213C143.648 81.0616 143.993 81.4368 143.993 81.8869V82.9523C143.993 83.4175 143.633 83.7776 143.213 83.7776ZM141.187 81.3617C140.917 81.3617 140.707 81.6018 140.707 81.8869V82.9523C140.707 83.2524 140.917 83.4775 141.187 83.4775H143.213C143.483 83.4775 143.693 83.2374 143.693 82.9523V81.8869C143.693 81.5868 143.483 81.3617 143.213 81.3617H141.187Z" fill="black"/>
<path d="M133.909 85.0517H130.998V86.012H133.909V85.0517Z" fill="#E2EAFF"/>
<path d="M137.328 85.0517H134.417V86.012H137.328V85.0517Z" fill="#E2EAFF"/>
<path d="M140.751 85.0517H137.84V86.012H140.751V85.0517Z" fill="#E2EAFF"/>
<path d="M144.157 85.0517H141.246V86.012H144.157V85.0517Z" fill="#E2EAFF"/>
<path d="M137.342 76.1073C138.751 76.1073 139.893 74.9653 139.893 73.5564C139.893 72.1476 138.751 71.0056 137.342 71.0056C135.933 71.0056 134.791 72.1476 134.791 73.5564C134.791 74.9653 135.933 76.1073 137.342 76.1073Z" fill="white"/>
<path d="M137.343 76.258C135.857 76.258 134.642 75.0426 134.642 73.5571C134.642 72.0716 135.857 70.8561 137.343 70.8561C138.828 70.8561 140.043 72.0716 140.043 73.5571C140.043 75.0426 138.828 76.258 137.343 76.258ZM137.343 71.1713C136.022 71.1713 134.942 72.2516 134.942 73.5721C134.942 74.8925 136.022 75.9729 137.343 75.9729C138.663 75.9729 139.743 74.8925 139.743 73.5721C139.743 72.2366 138.663 71.1713 137.343 71.1713Z" fill="black"/>
<path d="M156.042 76.1067C157.45 76.1067 158.592 74.9646 158.592 73.5558C158.592 72.147 157.45 71.0049 156.042 71.0049C154.633 71.0049 153.491 72.147 153.491 73.5558C153.491 74.9646 154.633 76.1067 156.042 76.1067Z" fill="white"/>
<path d="M156.043 76.2574C154.557 76.2574 153.342 75.0419 153.342 73.5564C153.342 72.0709 154.557 70.8555 156.043 70.8555C157.528 70.8555 158.744 72.0709 158.744 73.5564C158.744 75.0419 157.528 76.2574 156.043 76.2574ZM156.043 71.1706C154.722 71.1706 153.642 72.251 153.642 73.5714C153.642 74.8919 154.722 75.9722 156.043 75.9722C157.363 75.9722 158.444 74.8919 158.444 73.5714C158.444 72.2359 157.363 71.1706 156.043 71.1706Z" fill="black"/>
<path d="M159.524 93.6356H131.734C130.969 93.6356 130.354 94.2508 130.354 95.0161V98.5123C130.354 99.2776 130.969 99.8928 131.734 99.8928H159.524C160.289 99.8928 160.904 99.2776 160.904 98.5123V95.0161C160.919 94.2508 160.289 93.6356 159.524 93.6356Z" fill="#7BBEE4"/>
<path d="M145.075 61.3732H125.943V65.9498H145.075V61.3732Z" fill="#DFF3FE"/>
<path d="M34.0005 192H12.0005V267H34.0005V192Z" fill="white"/>
<path d="M145.845 271H12.1561C12.0627 271 12.0005 270.937 12.0005 270.844V192.156C12.0005 192.062 12.0627 192 12.1561 192H35.1506C35.2439 192 35.3062 192.062 35.3062 192.156C35.3062 192.25 35.2439 192.313 35.1506 192.313H12.3116V270.687H79.0783H145.845C145.938 270.687 146 270.75 146 270.844C146 270.922 145.923 271 145.845 271Z" fill="black"/>
<path d="M31.6156 173.749C31.9605 173.374 32.3054 172.969 32.4554 172.474C32.6054 171.979 32.4854 171.38 32.0655 171.095C31.7655 170.885 31.3606 170.885 31.0757 170.66C30.6858 170.36 30.6258 169.76 30.8207 169.295C31.0157 168.83 31.3756 168.47 31.7056 168.11C32.6204 167.135 33.4302 165.996 33.7901 164.706C34.1501 163.416 34.0301 161.931 33.2203 160.852C32.4254 159.772 30.8807 159.217 29.651 159.757C28.7362 160.162 28.1363 161.032 27.5964 161.856C26.2167 163.941 24.8369 166.056 23.7872 168.32C22.7374 170.585 22.0325 173.074 22.1075 175.579C22.1375 176.494 22.2575 177.423 22.7074 178.218C23.1423 179.013 23.9371 179.673 24.8369 179.748C26.3066 179.883 26.8615 178.338 27.8064 177.513C29.1411 176.329 30.4158 175.069 31.6156 173.749Z" fill="white"/>
<path d="M25.0007 179.898C24.9407 179.898 24.8807 179.898 24.8057 179.883C23.9209 179.808 23.0511 179.193 22.5562 178.278C22.1663 177.574 21.9713 176.704 21.9413 175.564C21.8813 173.284 22.4512 170.825 23.636 168.245C24.6858 165.951 26.0955 163.821 27.4602 161.752C27.9701 160.987 28.6 160.027 29.5748 159.592C30.8345 159.052 32.4392 159.532 33.324 160.732C34.1038 161.782 34.3138 163.266 33.9089 164.721C33.579 165.876 32.8891 167.016 31.7793 168.185L31.6743 168.29C31.3744 168.605 31.0745 168.935 30.9095 169.325C30.7595 169.715 30.7745 170.24 31.1195 170.51C31.2544 170.615 31.4194 170.66 31.5844 170.72C31.7643 170.78 31.9443 170.84 32.0943 170.945C32.6191 171.29 32.6941 171.995 32.5442 172.505C32.3942 173.014 32.0493 173.434 31.6743 173.839C30.4746 175.174 29.1848 176.449 27.8351 177.619C27.5652 177.859 27.3402 178.143 27.0853 178.458C26.5754 179.178 25.9905 179.898 25.0007 179.898ZM30.6695 159.682C30.3396 159.682 30.0097 159.742 29.7097 159.877C28.8099 160.267 28.21 161.182 27.7151 161.917C26.3654 163.971 24.9557 166.101 23.9209 168.365C22.7511 170.9 22.1963 173.314 22.2562 175.549C22.2862 176.644 22.4662 177.454 22.8261 178.128C23.276 178.953 24.0559 179.508 24.8357 179.583C25.7805 179.673 26.3354 178.983 26.9053 178.263C27.1453 177.948 27.4002 177.634 27.6851 177.379C29.0199 176.209 30.2946 174.949 31.4944 173.629C31.8393 173.239 32.1692 172.865 32.3042 172.415C32.4242 171.995 32.3492 171.455 31.9743 171.2C31.8543 171.11 31.6893 171.065 31.5394 171.02C31.3444 170.96 31.1494 170.9 30.9845 170.765C30.5196 170.405 30.4746 169.73 30.6695 169.235C30.8495 168.8 31.1794 168.44 31.4944 168.11L31.5993 168.005C32.6641 166.866 33.339 165.771 33.6539 164.661C34.0439 163.296 33.8339 161.902 33.114 160.927C32.5142 160.147 31.5694 159.682 30.6695 159.682Z" fill="black"/>
<path d="M15.5376 174.949C14.3528 173.134 14.2479 170.465 15.8076 168.965C16.4524 168.35 17.3972 167.78 17.2922 166.895C17.2473 166.55 17.0373 166.25 16.8124 165.996C16.0025 165.066 14.9077 164.421 14.0229 163.566C13.1231 162.711 12.4032 161.481 12.6882 160.282C12.9281 159.247 13.873 158.467 14.9227 158.242C15.9575 158.017 17.0673 158.257 18.0271 158.707C20.9215 160.057 22.7361 163.131 23.336 166.265C23.9359 169.4 23.531 172.639 23.0511 175.804C22.9461 176.508 22.8261 177.243 22.4062 177.843C20.7566 180.243 16.5424 176.493 15.5376 174.949Z" fill="white"/>
<path d="M20.9227 178.773C20.9077 178.773 20.9077 178.773 20.8927 178.773C18.9131 178.743 16.2436 176.283 15.4188 175.023C14.264 173.254 14.054 170.449 15.7187 168.86C15.8537 168.74 16.0037 168.605 16.1386 168.485C16.6785 168.02 17.2334 167.54 17.1584 166.925C17.1134 166.61 16.9035 166.31 16.7085 166.1C16.2436 165.575 15.6737 165.125 15.1188 164.69C14.7139 164.375 14.294 164.046 13.9191 163.686C13.3792 163.176 12.1794 161.826 12.5394 160.266C12.7793 159.232 13.7091 158.362 14.8789 158.107C16.0936 157.837 17.2934 158.212 18.0732 158.587C20.7577 159.846 22.7823 162.711 23.4721 166.25C24.087 169.399 23.6821 172.579 23.1872 175.848C23.0822 176.493 22.9622 177.303 22.5273 177.948C22.1374 178.488 21.5975 178.773 20.9227 178.773ZM15.6587 174.858C16.4836 176.118 19.093 178.458 20.8927 178.473C21.4925 178.488 21.9425 178.233 22.2874 177.753C22.6923 177.168 22.7973 176.433 22.9023 175.773C23.3972 172.534 23.7871 169.384 23.1872 166.28C22.5123 162.831 20.5627 160.041 17.9533 158.827C17.2034 158.482 16.0786 158.122 14.9389 158.377C13.8741 158.617 13.0343 159.381 12.8243 160.311C12.5094 161.721 13.6191 162.981 14.114 163.461C14.489 163.821 14.8939 164.136 15.2988 164.45C15.8687 164.885 16.4386 165.35 16.9185 165.905C17.1284 166.145 17.3834 166.49 17.4284 166.88C17.5183 167.66 16.8735 168.215 16.3036 168.71C16.1536 168.83 16.0187 168.95 15.8987 169.07C14.369 170.569 14.5789 173.194 15.6587 174.858Z" fill="black"/>
<path d="M19.9315 176.748C19.9015 176.748 19.8565 176.733 19.8265 176.703C18.2368 175.248 18.2518 172.788 18.4168 171.454C18.4918 170.854 18.5968 170.254 18.7017 169.669C18.9117 168.469 19.1367 167.24 19.0317 166.025C18.8817 164.27 17.8019 162.381 16.0173 162.156C15.9423 162.141 15.8823 162.066 15.8823 161.991C15.8973 161.916 15.9723 161.856 16.0473 161.856C17.9819 162.111 19.1516 164.135 19.3166 165.995C19.4216 167.255 19.1966 168.499 18.9867 169.714C18.8817 170.284 18.7767 170.884 18.7167 171.469C18.5668 172.744 18.5368 175.098 20.0365 176.463C20.0965 176.523 20.0965 176.613 20.0515 176.673C20.0215 176.733 19.9765 176.748 19.9315 176.748Z" fill="black"/>
<path d="M20.7434 170.014C21.1933 168.965 21.8832 167.96 21.8832 166.82C21.8832 165.17 20.4885 163.911 19.4987 162.591C17.729 160.206 17.1592 156.877 18.3889 154.178C19.6187 151.478 22.753 149.663 25.6474 150.308C26.6972 150.533 27.732 151.118 28.2269 152.063C28.7968 153.158 28.5419 154.492 28.1819 155.677C27.807 156.862 27.3271 158.062 27.4771 159.291C27.732 161.466 29.8616 163.026 30.3115 165.17C30.7764 167.405 29.3217 169.549 27.792 171.244C26.9372 172.204 26.0374 173.134 25.3325 174.213C24.5377 175.458 24.4327 176.568 24.1627 177.963C23.8628 179.447 22.873 179.627 21.8982 178.548C20.9684 177.543 20.4585 176.103 20.2185 174.768C19.9336 173.179 20.0986 171.499 20.7434 170.014Z" fill="white"/>
<path d="M23.0821 179.373C22.6622 179.373 22.2123 179.118 21.7774 178.638C20.6526 177.408 20.2177 175.698 20.0677 174.784C19.7828 173.119 19.9778 171.409 20.6226 169.94C20.7426 169.685 20.8626 169.415 20.9976 169.16C21.3725 168.41 21.7624 167.615 21.7624 166.79C21.7624 165.545 20.9076 164.511 20.0828 163.506C19.8578 163.221 19.6178 162.936 19.4079 162.651C17.5183 160.101 17.0684 156.742 18.2831 154.088C19.5729 151.238 22.8422 149.499 25.7066 150.129C26.9514 150.398 27.9262 151.073 28.3911 151.958C29.0209 153.158 28.706 154.583 28.3611 155.677C28.3011 155.842 28.2561 156.022 28.1961 156.187C27.8662 157.177 27.5362 158.212 27.6562 159.232C27.7912 160.341 28.4061 161.271 29.0659 162.246C29.6508 163.131 30.2657 164.046 30.4906 165.095C31.0005 167.54 29.2759 169.805 27.9411 171.304C27.7912 171.469 27.6562 171.634 27.5063 171.784C26.8014 172.564 26.0815 173.374 25.4967 174.259C24.8368 175.278 24.6718 176.208 24.4619 177.288C24.4169 177.498 24.3869 177.723 24.3419 177.948C24.1919 178.698 23.847 179.178 23.3821 179.313C23.2621 179.373 23.1721 179.373 23.0821 179.373ZM20.8926 170.074C20.2777 171.484 20.0977 173.149 20.3677 174.754C20.5177 175.623 20.9376 177.273 22.0024 178.458C22.4523 178.953 22.9172 179.163 23.2771 179.073C23.622 178.968 23.892 178.578 24.0269 177.948C24.0719 177.723 24.1169 177.498 24.1469 177.288C24.3569 176.178 24.5368 175.218 25.2117 174.154C25.7966 173.239 26.5314 172.429 27.2513 171.649C27.4013 171.484 27.5362 171.319 27.6862 171.169C28.9759 169.715 30.6406 167.525 30.1607 165.215C29.9507 164.226 29.3659 163.326 28.781 162.471C28.1361 161.496 27.4612 160.491 27.3263 159.322C27.1913 158.242 27.5362 157.177 27.8812 156.157C27.9412 155.992 27.9861 155.812 28.0461 155.647C28.3761 154.598 28.676 153.248 28.1061 152.153C27.6862 151.343 26.7714 150.728 25.6316 150.473C22.8872 149.874 19.7828 151.538 18.5381 154.268C17.3833 156.832 17.8032 160.072 19.6328 162.531C19.8428 162.816 20.0828 163.101 20.3077 163.371C21.1625 164.421 22.0474 165.5 22.0474 166.85C22.0474 167.75 21.6424 168.56 21.2525 169.34C21.1325 169.55 20.9976 169.82 20.8926 170.074Z" fill="black"/>
<path d="M23.1276 177.978C23.0826 177.978 23.0376 177.963 23.0076 177.933C21.8229 176.569 21.9429 174.544 22.4528 173.089C22.8127 172.069 23.3676 171.125 23.8925 170.225C24.1774 169.73 24.4773 169.22 24.7473 168.695C25.6621 166.911 25.9171 165.351 25.4971 164.046C25.2272 163.191 24.6723 162.501 24.1024 161.752C23.7275 161.272 23.3376 160.777 23.0376 160.237C21.8829 158.182 22.0628 155.423 23.4576 153.518C23.5025 153.458 23.6075 153.443 23.6675 153.488C23.7275 153.533 23.7425 153.638 23.6975 153.698C22.3628 155.498 22.1978 158.122 23.2926 160.087C23.5775 160.612 23.9674 161.092 24.3274 161.572C24.8973 162.306 25.4821 163.056 25.7671 163.956C26.217 165.336 25.962 166.971 25.0022 168.83C24.7323 169.355 24.4324 169.865 24.1324 170.375C23.6075 171.275 23.0676 172.204 22.7077 173.194C22.2278 174.559 22.1078 176.479 23.2026 177.738C23.2626 177.798 23.2476 177.888 23.1876 177.948C23.1876 177.963 23.1576 177.978 23.1276 177.978Z" fill="black"/>
<path d="M32.7713 177.483H14.52L15.7498 191.446H31.5266L32.7713 177.483Z" fill="#DFF3FE"/>
<path d="M112.497 210.209L92.6484 209.789L95.7118 189.584H110.189L112.497 210.209Z" fill="white"/>
<path d="M112.497 210.419L92.6483 209.978C92.5853 209.978 92.5223 209.957 92.5014 209.894C92.4594 209.852 92.4384 209.789 92.4594 209.726L95.5228 189.521C95.5438 189.416 95.6277 189.332 95.7326 189.332H110.21C110.315 189.332 110.399 189.416 110.42 189.521L112.728 210.167C112.728 210.23 112.707 210.293 112.665 210.335C112.602 210.398 112.56 210.419 112.497 210.419ZM92.9 209.58L112.266 209.999L110 189.773H95.8795L92.9 209.58Z" fill="black"/>
<path d="M119.047 184.842C119.047 183.667 118.523 182.639 117.726 182.009C118.439 181.002 118.88 179.722 118.88 178.358C118.88 175.064 116.446 172.378 113.445 172.378C113.256 172.378 113.068 172.399 112.879 172.42C112.312 169.588 110.004 167.49 107.277 167.49C105.976 167.49 104.759 167.972 103.794 168.791C102.996 167.133 101.423 166 99.6182 166C97.3312 166 95.4218 167.804 94.9812 170.175C94.3937 169.987 93.7642 169.882 93.1138 169.882C89.5259 169.882 86.6304 173.071 86.6304 176.994C86.6304 178.694 87.1759 180.247 88.0782 181.485C87.9103 182.009 87.8054 182.576 87.8054 183.142C87.8054 184.947 88.7076 186.52 90.0295 187.36C89.6308 188.031 89.379 188.849 89.379 189.73C89.379 192.122 91.1415 194.053 93.3026 194.053C93.3656 194.053 93.4075 194.053 93.4705 194.053C93.4075 194.326 93.3656 194.598 93.3656 194.892C93.3656 196.801 94.7714 198.354 96.5129 198.354C97.1633 198.354 97.7718 198.123 98.2753 197.746C98.9048 198.627 99.8909 199.214 101.003 199.214C101.947 199.214 102.786 198.795 103.416 198.123C104.003 198.627 104.717 198.921 105.514 198.921C106.584 198.921 107.528 198.375 108.158 197.536C108.64 197.913 109.249 198.144 109.878 198.144C111.515 198.144 112.858 196.676 112.858 194.892C112.858 194.829 112.858 194.745 112.858 194.682C114.893 194.493 116.509 192.626 116.509 190.339C116.509 189.626 116.341 188.954 116.068 188.367C117.726 188.241 119.047 186.709 119.047 184.842Z" fill="black"/>
<path d="M66.6969 206.474C86.6087 202.089 120.306 202.131 138.329 207.04C160.402 213.083 204.317 240.15 193.239 258.194C182.895 275.043 146.092 252.781 146.092 252.781V266.251C146.092 268.832 144.015 270.909 141.434 270.909H60.9898C58.409 270.909 56.3318 268.832 56.3318 266.251V251.354C56.3318 251.354 19.5086 275.63 7.84263 259.432C-6.92862 238.912 51.3801 209.831 66.6969 206.474Z" fill="#7BBEE4"/>
<path d="M146.094 252.991C145.989 252.991 145.884 252.907 145.884 252.802C144.646 237.695 139.757 221.917 139.715 221.749C139.673 221.644 139.736 221.518 139.862 221.476C139.967 221.434 140.093 221.497 140.135 221.623C140.177 221.791 145.086 237.611 146.324 252.76C146.303 252.886 146.219 252.991 146.094 252.991Z" fill="black"/>
<path d="M56.4584 251.354C56.4374 251.354 56.4374 251.354 56.4584 251.354C56.3325 251.354 56.2485 251.249 56.2485 251.123C57.4865 235.974 62.3752 220.133 62.4382 219.986C62.4802 219.881 62.585 219.818 62.7109 219.839C62.8158 219.881 62.8788 219.986 62.8578 220.112C62.8159 220.28 57.9271 236.058 56.6891 251.165C56.6472 251.27 56.5633 251.354 56.4584 251.354Z" fill="black"/>
<defs>
<clipPath id="clip0_3394_50041">
<rect width="6" height="6" fill="white" transform="translate(153.278 79.5731)"/>
</clipPath>
<clipPath id="clip1_3394_50041">
<rect width="4" height="4" fill="white" transform="translate(161.278 61.5731)"/>
</clipPath>
</defs>
</svg>
