<svg width="200" height="272" viewBox="0 0 200 272" fill="none" xmlns="http://www.w3.org/2000/svg">
<rect width="200" height="272" rx="8" fill="#F5FBFF"/>
<path d="M88.9583 197.646H170.05C174.988 197.646 179.034 193.6 179.034 188.662L179.143 26.1516C179.143 21.2139 175.097 17.168 170.159 17.168H89.067C84.1293 17.168 80.0834 21.2139 80.0834 26.1516L79.9746 188.662C79.9746 193.6 84.0205 197.646 88.9583 197.646Z" fill="white"/>
<path d="M170.05 197.863H88.9583C86.5003 197.863 84.1945 196.906 82.4544 195.166C80.7142 193.425 79.7571 191.12 79.7571 188.662L79.8658 26.1514C79.8658 21.0831 83.9988 16.9502 89.067 16.9502H170.159C172.617 16.9502 174.923 17.9073 176.663 19.6475C178.403 21.3876 179.36 23.6934 179.36 26.1514L179.251 188.662C179.251 193.73 175.14 197.863 170.05 197.863ZM89.0888 17.3852C84.2598 17.3852 80.3226 21.3224 80.3226 26.1514L80.2139 188.662C80.2139 190.989 81.1275 193.186 82.7806 194.861C84.4338 196.514 86.6308 197.428 88.9583 197.428H170.05C174.879 197.428 178.816 193.491 178.816 188.662L178.925 26.1514C178.925 23.8239 178.012 21.6269 176.358 19.952C174.705 18.2988 172.508 17.3852 170.181 17.3852H89.0888Z" fill="black"/>
<path d="M167.375 192.141H91.6558C89.7851 192.141 88.0232 191.401 86.6963 190.074C85.3695 188.747 84.6299 186.985 84.6299 185.115L84.7386 29.2171C84.7386 25.3452 87.8927 22.1912 91.7646 22.1912H167.484C169.355 22.1912 171.116 22.9307 172.443 24.2576C173.77 25.5845 174.51 27.3464 174.51 29.2171L174.401 185.115C174.401 188.987 171.247 192.141 167.375 192.141ZM91.7646 22.6045C88.132 22.6045 85.1737 25.5627 85.1737 29.1954L85.0649 185.093C85.0649 186.855 85.7392 188.508 87.0009 189.748C88.2407 190.988 89.8939 191.684 91.6558 191.684H167.375C171.008 191.684 173.966 188.726 173.966 185.093L174.075 29.1954C174.075 27.4334 173.4 25.7803 172.139 24.5404C170.877 23.3005 169.246 22.6045 167.484 22.6045H91.7646Z" fill="black"/>
<path d="M138.924 27.7173H119.239C119.108 27.7173 119.021 27.6303 119.021 27.4997C119.021 27.3692 119.108 27.2822 119.239 27.2822H138.924C139.055 27.2822 139.142 27.3692 139.142 27.4997C139.142 27.6303 139.033 27.7173 138.924 27.7173Z" fill="black"/>
<path d="M167.462 85.3584H134.29C134.16 85.3584 134.073 85.2714 134.073 85.1409C134.073 85.0103 134.16 84.9233 134.29 84.9233H167.462C167.593 84.9233 167.68 85.0103 167.68 85.1409C167.68 85.2496 167.571 85.3584 167.462 85.3584Z" fill="black"/>
<path d="M167.439 89.4916H134.267C134.137 89.4916 134.05 89.4046 134.05 89.274C134.05 89.1435 134.137 89.0565 134.267 89.0565H167.439C167.57 89.0565 167.657 89.1435 167.657 89.274C167.657 89.4046 167.57 89.4916 167.439 89.4916Z" fill="black"/>
<path d="M149.385 93.6456H134.267C134.137 93.6456 134.05 93.5586 134.05 93.4281C134.05 93.2976 134.137 93.2106 134.267 93.2106H149.385C149.515 93.2106 149.602 93.2976 149.602 93.4281C149.602 93.5369 149.515 93.6456 149.385 93.6456Z" fill="black"/>
<path d="M149.387 77.7018H134.27V82.0957H149.387V77.7018Z" fill="#DFF3FE"/>
<path d="M129.525 77.7018H107.208V100.019H129.525V77.7018Z" fill="#DFF3FE"/>
<path d="M101.291 95.2755H91.5022C91.4369 95.2755 91.3934 95.2538 91.3499 95.2103C91.3064 95.1668 91.2847 95.1233 91.2847 95.058V85.2695C91.2847 85.139 91.3717 85.052 91.5022 85.052H100.747C100.877 85.052 100.964 85.139 100.964 85.2695C100.964 85.4 100.877 85.487 100.747 85.487H91.7197V94.8405H101.073V87.9015C101.073 87.771 101.16 87.684 101.291 87.684C101.421 87.684 101.508 87.771 101.508 87.9015V95.058C101.508 95.1885 101.421 95.2755 101.291 95.2755Z" fill="#DFF3FE"/>
<path d="M96.3963 93.6005C96.331 93.6005 96.2658 93.557 96.2223 93.5135L92.3939 88.1407C92.3286 88.0537 92.3504 87.9014 92.4374 87.8362C92.5462 87.7709 92.6767 87.7927 92.7419 87.8797L96.3963 93.0132L102.922 83.9426C102.987 83.8555 103.118 83.812 103.226 83.899C103.313 83.9643 103.357 84.0948 103.27 84.2036L96.5703 93.5353C96.5268 93.557 96.4616 93.6005 96.3963 93.6005Z" fill="#3E94D3"/>
<path d="M167.443 116.395H134.271C134.14 116.395 134.053 116.308 134.053 116.178C134.053 116.047 134.14 115.96 134.271 115.96H167.443C167.574 115.96 167.661 116.047 167.661 116.178C167.661 116.287 167.552 116.395 167.443 116.395Z" fill="black"/>
<path d="M167.419 120.528H134.247C134.116 120.528 134.029 120.441 134.029 120.31C134.029 120.18 134.116 120.093 134.247 120.093H167.419C167.549 120.093 167.636 120.18 167.636 120.31C167.636 120.441 167.549 120.528 167.419 120.528Z" fill="black"/>
<path d="M149.364 124.661H134.247C134.116 124.661 134.029 124.574 134.029 124.443C134.029 124.313 134.116 124.226 134.247 124.226H149.364C149.495 124.226 149.582 124.313 149.582 124.443C149.582 124.574 149.495 124.661 149.364 124.661Z" fill="black"/>
<path d="M149.366 108.717H134.249V113.111H149.366V108.717Z" fill="#DFF3FE"/>
<path d="M129.504 108.717H107.187V131.035H129.504V108.717Z" fill="#DFF3FE"/>
<path d="M101.272 124.38H91.4831C91.4179 124.38 91.3744 124.358 91.3309 124.315C91.2874 124.271 91.2656 124.228 91.2656 124.162V114.374C91.2656 114.243 91.3526 114.156 91.4831 114.156H100.728C100.858 114.156 100.945 114.243 100.945 114.374C100.945 114.504 100.858 114.591 100.728 114.591H91.7007V123.945H101.054V117.006C101.054 116.875 101.141 116.788 101.272 116.788C101.402 116.788 101.489 116.875 101.489 117.006V124.162C101.489 124.293 101.402 124.38 101.272 124.38Z" fill="#DFF3FE"/>
<path d="M96.3775 122.704C96.3123 122.704 96.247 122.661 96.2035 122.617L92.3751 117.244C92.3098 117.157 92.3316 117.005 92.4186 116.94C92.5274 116.875 92.6579 116.896 92.7231 116.983L96.3775 122.117L102.903 113.046C102.968 112.959 103.099 112.916 103.208 113.003C103.295 113.068 103.338 113.198 103.251 113.307L96.5515 122.639C96.508 122.661 96.4428 122.704 96.3775 122.704Z" fill="#3E94D3"/>
<path d="M167.421 147.566H134.249C134.118 147.566 134.031 147.479 134.031 147.349C134.031 147.218 134.118 147.131 134.249 147.131H167.421C167.551 147.131 167.638 147.218 167.638 147.349C167.638 147.479 167.529 147.566 167.421 147.566Z" fill="black"/>
<path d="M167.398 151.719H134.226C134.095 151.719 134.008 151.632 134.008 151.502C134.008 151.371 134.095 151.284 134.226 151.284H167.398C167.528 151.284 167.615 151.371 167.615 151.502C167.615 151.611 167.528 151.719 167.398 151.719Z" fill="black"/>
<path d="M149.343 155.853H134.226C134.095 155.853 134.008 155.766 134.008 155.636C134.008 155.505 134.095 155.418 134.226 155.418H149.343C149.474 155.418 149.561 155.505 149.561 155.636C149.561 155.766 149.474 155.853 149.343 155.853Z" fill="black"/>
<path d="M149.345 139.91H134.227V144.303H149.345V139.91Z" fill="#DFF3FE"/>
<path d="M129.483 139.91H107.165V162.227H129.483V139.91Z" fill="#DFF3FE"/>
<path d="M101.248 155.572H91.4592C91.394 155.572 91.3504 155.551 91.3069 155.507C91.2634 155.464 91.2417 155.42 91.2417 155.355V145.566C91.2417 145.436 91.3287 145.349 91.4592 145.349H100.704C100.834 145.349 100.921 145.436 100.921 145.566C100.921 145.697 100.834 145.784 100.704 145.784H91.6767V155.137H101.03V148.198C101.03 148.068 101.117 147.981 101.248 147.981C101.378 147.981 101.465 148.068 101.465 148.198V155.355C101.465 155.464 101.378 155.572 101.248 155.572Z" fill="#DFF3FE"/>
<path d="M96.3536 153.897C96.2883 153.897 96.2231 153.853 96.1796 153.81L92.3512 148.437C92.2859 148.35 92.3077 148.198 92.3947 148.132C92.5034 148.067 92.634 148.089 92.6992 148.176L96.3536 153.309L102.879 144.239C102.944 144.152 103.075 144.108 103.184 144.195C103.271 144.26 103.314 144.391 103.227 144.5L96.5276 153.831C96.4841 153.853 96.4188 153.897 96.3536 153.897Z" fill="#3E94D3"/>
<path d="M159.914 55.1483H144.992L159.631 34.7448H174.64L159.914 55.1483Z" fill="#7BBEE4"/>
<path d="M159.914 55.1487C159.914 58.8031 156.564 61.7614 152.453 61.7614C148.342 61.7614 144.992 58.8031 144.992 55.1487L152.453 54.4526L159.914 55.1487Z" fill="#7BBEE4"/>
<path d="M129.657 55.1482H114.735L129.374 34.7447H144.296L129.657 55.1482Z" fill="#7BBEE4"/>
<path d="M129.656 55.1487C129.656 58.8031 126.306 61.7614 122.195 61.7614C118.084 61.7614 114.734 58.8031 114.734 55.1487L122.195 54.4526L129.656 55.1487Z" fill="#7BBEE4"/>
<path d="M99.7022 55.1473H84.7803L99.7893 34.7438H114.885L99.7022 55.1473Z" fill="#7BBEE4"/>
<path d="M99.7025 55.1477C99.7025 58.8021 96.3527 61.7604 92.2415 61.7604C88.1304 61.7604 84.7805 58.8021 84.7805 55.1477L92.2415 54.4517L99.7025 55.1477Z" fill="#7BBEE4"/>
<path d="M129.373 34.7439L114.669 55.1474H99.7468L114.843 34.7439C114.821 34.7439 128.916 34.7222 129.373 34.7439Z" fill="white"/>
<path d="M107.251 62.5649H107.143C103.053 62.5649 99.7468 59.6284 99.7468 55.974V55.9522V55.1257L114.669 55.0822V55.9522C114.669 55.974 114.669 55.9957 114.669 56.0175C114.625 59.6501 111.319 62.5649 107.251 62.5649Z" fill="white"/>
<path d="M107.251 62.7823H107.142C102.965 62.7823 99.5286 59.737 99.5286 55.9739V55.1255C99.5286 55.0168 99.6156 54.908 99.7461 54.908L114.668 54.8645C114.712 54.8645 114.777 54.8863 114.82 54.9298C114.864 54.9733 114.886 55.0168 114.886 55.082V56.0174C114.842 59.7587 111.405 62.7823 107.251 62.7823ZM99.9419 55.3648V55.9956C99.9636 59.4977 103.183 62.369 107.12 62.369H107.229C111.166 62.369 114.385 59.5195 114.429 56.0391V55.3431L99.9419 55.3648Z" fill="black"/>
<path d="M114.993 35.0924C114.862 35.0924 114.775 35.0054 114.775 34.8749C114.775 34.7443 114.862 34.6573 114.993 34.6573C117.211 34.6573 119.43 34.6573 121.692 34.6356C124.085 34.6356 126.521 34.6138 129.11 34.6138C129.24 34.6138 129.327 34.7008 129.327 34.8314C129.327 34.9619 129.24 35.0489 129.11 35.0489C126.521 35.0489 124.085 35.0489 121.692 35.0706C119.43 35.0924 117.211 35.0924 114.993 35.0924Z" fill="black"/>
<path d="M144.88 55.1483H129.719L144.162 34.7665L159.715 34.7448L144.88 55.1483Z" fill="white"/>
<path d="M144.797 55.1491C144.797 58.8035 141.447 61.7618 137.336 61.7618C133.225 61.7618 129.875 58.8035 129.875 55.1491H144.797Z" fill="white"/>
<path d="M137.334 61.979C135.29 61.979 133.354 61.2612 131.918 59.9778C130.461 58.6945 129.656 56.976 129.656 55.1489C129.656 55.0183 129.743 54.9313 129.873 54.9313H144.795C144.861 54.9313 144.904 54.9531 144.948 54.9966C144.991 55.0401 145.013 55.0836 145.013 55.1489C145.013 58.912 141.576 61.979 137.334 61.979ZM130.091 55.3664C130.156 56.9978 130.896 58.4987 132.201 59.6733C133.571 60.8914 135.398 61.5657 137.334 61.5657C141.25 61.5657 144.447 58.8032 144.578 55.3881H130.091V55.3664Z" fill="black"/>
<path d="M159.303 35.0919H144.381C144.251 35.0919 144.164 35.0049 144.164 34.8744C144.164 34.7439 144.251 34.6569 144.381 34.6569H159.303C159.434 34.6569 159.521 34.7439 159.521 34.8744C159.521 35.0049 159.434 35.0919 159.303 35.0919Z" fill="black"/>
<path d="M77.4957 62.5659H77.3869C73.2975 62.5659 69.9912 59.6293 69.9912 55.975V55.9532V55.1266L74.7984 52.5599L84.9132 55.0831V55.9532C84.9132 55.975 84.9132 55.9967 84.9132 56.0185C84.8697 59.6511 81.5634 62.5659 77.4957 62.5659Z" fill="white"/>
<path d="M77.4955 62.7831H77.3867C73.2103 62.7831 69.7734 59.7378 69.7734 55.9746V55.1263C69.7734 55.0393 69.8169 54.9741 69.8822 54.9305L74.6894 52.3638C74.7329 52.342 74.7982 52.342 74.8417 52.342L84.9565 54.8653C85.0435 54.887 85.1305 54.974 85.1305 55.0828V56.0182C85.087 59.7595 81.6719 62.7831 77.4955 62.7831ZM70.2085 55.2786V55.9964C70.2302 59.4985 73.4496 62.3698 77.3867 62.3698H77.4955C81.4326 62.3698 84.6519 59.5203 84.6954 56.0399V55.2786L74.8199 52.8206L70.2085 55.2786Z" fill="black"/>
<path d="M99.8127 34.7436L84.9125 55.1471H69.9905L85.1735 34.7436C85.1735 34.7436 99.3559 34.7219 99.8127 34.7436Z" fill="white"/>
<path d="M84.912 55.3649H69.99C69.903 55.3649 69.8377 55.3214 69.7942 55.2561C69.7507 55.1909 69.7725 55.1039 69.816 55.0386L84.7597 34.7221C84.8032 34.6568 84.8685 34.6351 84.9337 34.6351C84.999 34.6351 90.5675 34.6568 99.3989 34.6568C99.5294 34.6568 99.6164 34.7438 99.6164 34.8743C99.6164 35.0049 99.5294 35.0919 99.3989 35.0919C99.3554 35.0919 99.2901 35.0919 99.2249 35.0919C91.1766 35.0919 85.8691 35.0701 85.0425 35.0701L70.4033 54.9516H84.8902C85.0207 54.9516 85.1077 55.0386 85.1077 55.1691C85.1295 55.2561 85.0425 55.3649 84.912 55.3649Z" fill="black"/>
<path d="M159.913 55.3644H84.6938C84.5633 55.3644 84.4763 55.2774 84.4763 55.1469C84.4763 55.0164 84.5633 54.9294 84.6938 54.9294H159.913C160.043 54.9294 160.13 55.0164 160.13 55.1469C160.13 55.2557 160.022 55.3644 159.913 55.3644Z" fill="#7BBEE4"/>
<path d="M14.0632 260.977H44.473C44.6087 260.977 44.6992 260.886 44.6992 260.751C44.6992 260.615 44.6087 260.524 44.473 260.524H14.0632C13.9274 260.524 13.8369 260.615 13.8369 260.751C13.8369 260.864 13.9274 260.977 14.0632 260.977Z" fill="black"/>
<path d="M48.4554 177.373C48.4554 177.373 25.9874 168.684 11.8007 182.305C-2.38601 195.926 -3.26846 255.117 44.4732 260.751H115.429L48.4554 177.373Z" fill="white"/>
<path d="M44.4731 260.977H115.429C115.52 260.977 115.588 260.932 115.633 260.842C115.678 260.774 115.656 260.661 115.61 260.593L48.6364 177.215C48.6138 177.192 48.5685 177.169 48.5459 177.147C48.5006 177.124 42.8214 174.952 35.4678 174.499C28.6799 174.069 19.0411 175.042 11.6423 182.147C7.70533 185.926 4.7639 193.143 3.60995 201.923C2.3655 211.312 3.29318 221.268 6.21198 230.002C8.9724 238.238 13.3392 245.026 19.1768 250.23C25.8969 256.181 34.3818 259.801 44.4279 261C44.4505 260.977 44.4731 260.977 44.4731 260.977ZM114.977 260.525H44.4958C26.01 258.33 12.57 247.447 6.66451 229.843C0.351761 210.996 4.40188 189.75 11.9817 182.464C19.2448 175.495 28.7704 174.522 35.4678 174.952C42.3462 175.382 47.754 177.328 48.3423 177.554L114.977 260.525Z" fill="black"/>
<path d="M22.7966 214.571C22.8645 214.571 22.9323 214.548 22.9776 214.48C23.0455 214.39 23.0455 214.231 22.9324 214.163C19.4479 211.403 16.8685 207.511 15.6693 203.212C15.6466 203.099 15.5109 203.031 15.3978 203.054C15.2846 203.076 15.2168 203.212 15.2394 203.325C16.4612 207.715 19.0859 211.674 22.6608 214.525C22.6835 214.548 22.7287 214.571 22.7966 214.571Z" fill="black"/>
<path d="M37.5732 221.427C31.7583 219.866 26.7805 217.739 23.1829 214.662C23.1829 214.662 22.6398 190.067 32.7086 171.808C33.6363 170.111 34.926 168.617 36.4419 167.418C39.9038 164.726 46.9406 160.698 58.0275 160.924C58.0275 160.924 72.3047 163.3 75.8344 169.5C79.4094 175.745 85.3601 193.303 85.3601 193.303L37.5732 221.427Z" fill="#7BBEE4"/>
<path d="M67.2817 193.618C67.3722 193.618 67.4627 193.551 67.5079 193.46L71.4449 179.839C71.4901 179.726 71.3996 179.59 71.2865 179.567C71.1734 179.522 71.0376 179.613 71.015 179.726L67.078 193.347C67.0328 193.46 67.1233 193.596 67.2364 193.618C67.2364 193.618 67.259 193.618 67.2817 193.618Z" fill="black"/>
<path d="M30.0646 218.827C30.0646 218.827 35.5402 202.626 58.5286 202.445C73.1226 202.332 91.2463 202.536 102.514 202.717C109.076 202.807 115.004 206.608 117.855 212.536L137.381 253.241L144.101 258.513C145.052 259.26 144.509 260.753 143.332 260.753H104.302C103.012 260.753 101.745 260.414 100.636 259.78C95.2964 256.771 78.8244 246.793 63.5968 230.343C53.053 223.42 42.2376 223.917 30.0646 218.827Z" fill="white"/>
<path d="M104.278 260.98H143.309C143.942 260.98 144.508 260.595 144.711 259.984C144.915 259.373 144.734 258.74 144.214 258.332L137.539 253.106L118.035 212.446C115.139 206.405 109.188 202.604 102.513 202.513C90.3177 202.332 72.7823 202.128 58.5277 202.242C58.3919 202.242 58.3014 202.355 58.3014 202.468C58.3014 202.604 58.4146 202.694 58.5277 202.694C72.7823 202.581 90.3177 202.785 102.513 202.966C109.03 203.056 114.822 206.767 117.65 212.65L137.154 253.332C137.177 253.355 137.2 253.4 137.222 253.422L143.942 258.694C144.372 259.034 144.395 259.509 144.282 259.848C144.168 260.188 143.852 260.55 143.309 260.55H104.278C103.034 260.55 101.812 260.233 100.726 259.622C95.9291 256.93 79.095 246.816 63.7544 230.23C63.7317 230.208 63.7317 230.208 63.7091 230.185C57.4869 226.09 51.1967 224.574 44.5219 222.967C39.9062 221.859 35.132 220.727 30.1542 218.646C30.0411 218.6 29.9054 218.646 29.8601 218.759C29.8149 218.872 29.8601 219.008 29.9732 219.053C34.9963 221.157 39.793 222.289 44.4088 223.397C51.0157 224.981 57.2606 226.474 63.415 230.525C78.8009 247.132 95.6802 257.269 100.477 259.984C101.654 260.64 102.943 260.98 104.278 260.98Z" fill="black"/>
<path d="M127.696 260.979H129.665C130.524 260.979 131.248 260.436 131.475 259.599C131.701 258.762 131.362 257.925 130.615 257.495L125.343 254.372L83.3258 213.826C77.6466 208.35 70.1573 205.251 62.2607 205.137L58.55 205.092C58.4368 205.092 58.3237 205.183 58.3237 205.318C58.3237 205.454 58.4142 205.545 58.55 205.545L62.2607 205.59C70.0442 205.703 77.4204 208.735 83.0317 214.143L125.071 254.689C125.094 254.712 125.094 254.712 125.117 254.712L130.411 257.857C131.09 258.264 131.181 258.966 131.067 259.463C130.932 259.938 130.502 260.504 129.687 260.504H127.719C127.583 260.504 127.493 260.595 127.493 260.73C127.47 260.866 127.56 260.979 127.696 260.979Z" fill="black"/>
<path d="M97.0832 227.199C97.1058 227.199 97.1284 227.199 97.1511 227.176C97.2642 227.131 97.3321 227.018 97.2869 226.882L92.9425 213.849C92.8973 213.736 92.7842 213.668 92.6484 213.714C92.5353 213.759 92.4674 213.872 92.5127 214.008L96.8569 227.041C96.9022 227.154 96.9927 227.199 97.0832 227.199Z" fill="black"/>
<path d="M62.7821 229.755C62.8499 229.755 62.8952 229.733 62.9404 229.688C63.0309 229.597 63.0083 229.461 62.9178 229.371C59.999 226.701 57.3517 223.714 54.9986 220.546C54.9307 220.456 54.7723 220.433 54.6818 220.501C54.5913 220.569 54.5687 220.727 54.6366 220.818C56.9897 224.031 59.6822 227.018 62.6236 229.71C62.6689 229.755 62.7142 229.755 62.7821 229.755Z" fill="black"/>
<path d="M94.3907 256.251L125.208 254.757C125.344 254.757 125.434 254.644 125.434 254.531C125.434 254.395 125.321 254.305 125.208 254.305L94.4133 255.798C94.2776 255.798 94.1871 255.911 94.1871 256.024C94.1644 256.16 94.2776 256.251 94.3907 256.251Z" fill="black"/>
<path d="M124.349 253.468H137.359C137.494 253.468 137.585 253.377 137.585 253.242C137.585 253.106 137.494 253.015 137.359 253.015H124.349C124.213 253.015 124.122 253.106 124.122 253.242C124.122 253.355 124.235 253.468 124.349 253.468Z" fill="black"/>
<path d="M50.4498 174.544L58.0522 193.188C58.0522 193.188 82.3529 193.528 84.6608 197.397C86.9461 201.266 83.258 202.805 83.258 202.805C83.258 202.805 55.2239 206.968 47.4405 204.072C39.657 201.153 34.8375 183.64 33.7741 177.101C32.7107 170.539 50.4498 174.544 50.4498 174.544Z" fill="#7BBEE4"/>
<path d="M47.4411 204.299C47.5316 204.299 47.6221 204.253 47.6448 204.163C47.69 204.05 47.6222 203.914 47.509 203.869C41.3547 201.561 37.3045 189.84 35.8338 184.908C35.7886 184.795 35.6754 184.727 35.5623 184.75C35.4492 184.795 35.3813 184.908 35.4039 185.021C37.2367 191.221 41.2415 201.991 47.3506 204.276C47.3959 204.276 47.4185 204.299 47.4411 204.299Z" fill="black"/>
<path d="M84.6608 197.623C84.706 197.623 84.7286 197.623 84.7739 197.6C84.887 197.532 84.9096 197.397 84.8644 197.284C82.6017 193.46 60.4505 193.007 58.2105 192.962L51.4453 176.399C51.4 176.286 51.2642 176.218 51.1511 176.286C51.038 176.332 50.9701 176.467 51.038 176.58L57.8485 193.256C57.8938 193.347 57.9616 193.392 58.0521 193.392C58.301 193.392 82.2623 193.776 84.4571 197.487C84.5023 197.578 84.5703 197.623 84.6608 197.623Z" fill="black"/>
<path d="M103.238 206.04H58.1207C56.9894 206.04 56.0844 205.134 56.0844 204.003C56.0844 202.872 56.9894 201.967 58.1207 201.967H106.722L103.238 206.04Z" fill="black"/>
<path d="M103.238 206.04L70.1811 205.451L81.9921 177.938C82.422 176.942 83.4176 176.286 84.5036 176.286H115.049C116.588 176.286 117.651 177.87 117.04 179.295L106.564 203.958C105.999 205.293 104.664 206.108 103.238 206.04Z" fill="black"/>
<path d="M101.066 185.404C101.066 185.97 100.613 186.445 100.025 186.445C99.4592 186.445 98.9841 185.992 98.9841 185.404C98.9841 184.838 99.4366 184.363 100.025 184.363C100.613 184.363 101.066 184.816 101.066 185.404Z" fill="#7BBEE4"/>
<path d="M59.9297 164.952C59.9976 164.952 60.0655 164.929 60.1108 164.861C60.3597 164.545 60.7217 164.137 61.1063 163.685C61.6946 162.983 62.3734 162.214 62.8033 161.671C62.8712 161.581 62.8712 161.422 62.758 161.354C62.6675 161.286 62.5092 161.286 62.4413 161.4C62.0114 161.92 61.3552 162.712 60.7669 163.391C60.3823 163.843 60.0202 164.273 59.7487 164.567C59.6582 164.658 59.6809 164.816 59.7714 164.884C59.8392 164.929 59.8845 164.952 59.9297 164.952Z" fill="black"/>
<path d="M57.8254 154.069L54.4994 159.002C54.0468 159.681 53.3906 160.224 52.6214 160.541L50.4266 161.468C50.4266 161.468 54.6803 171.017 62.0565 169.229C62.0565 169.229 66.8533 167.758 62.3054 161.875L63.7988 159.952L57.8254 154.069Z" fill="white"/>
<path d="M50.4484 161.694C50.471 161.694 50.5163 161.694 50.5389 161.672L52.7336 160.744C53.5482 160.405 54.227 159.839 54.7021 159.115L58.0282 154.182C58.0961 154.069 58.0735 153.933 57.9603 153.866C57.8472 153.798 57.7114 153.82 57.6435 153.933L54.3175 158.866C53.8876 159.522 53.2766 160.02 52.5526 160.337L50.3579 161.264C50.2447 161.31 50.1995 161.445 50.2447 161.559C50.2674 161.649 50.3579 161.694 50.4484 161.694Z" fill="black"/>
<path d="M60.8352 163.911C60.9031 163.911 60.971 163.888 61.0162 163.82L64.0029 160.087C64.0708 159.996 64.0708 159.86 63.9802 159.793L58.0069 153.91C57.9164 153.819 57.7807 153.819 57.6902 153.91C57.5997 154 57.5997 154.136 57.6902 154.226L63.5277 159.974L60.6542 163.549C60.5863 163.639 60.5863 163.797 60.6994 163.865C60.722 163.888 60.7673 163.911 60.8352 163.911Z" fill="black"/>
<path d="M57.5537 141.76C58.4813 141.941 59.228 142.416 59.7258 143.163C59.9747 142.031 60.7214 141.036 61.6943 140.38C62.6446 139.724 63.7985 139.384 64.9525 139.248C67.4866 138.954 70.1792 139.746 71.9893 141.534C73.7994 143.321 74.6366 146.127 73.8446 148.548C73.0527 150.969 70.5638 152.802 68.0297 152.598C68.3238 154.001 68.5274 155.449 68.3012 156.852C68.0749 158.255 67.3735 159.657 66.1743 160.427C64.8167 161.309 63.0066 161.264 61.5133 160.653C60.0199 160.042 58.7981 158.911 57.712 157.712C57.0785 157.01 56.5128 156.263 55.9019 155.539C55.5852 155.177 55.291 154.793 54.9516 154.453C54.7254 154.227 54.4539 154.069 54.2955 153.797C53.3904 152.349 52.7569 151.331 53.0057 148.525C53.1189 147.507 54.5444 141.172 57.5537 141.76Z" fill="black"/>
<path d="M66.1063 147.031C66.1063 147.031 67.4413 150.651 67.8033 153.276C67.8938 153.909 67.577 154.543 67.0114 154.86C66.1063 155.38 64.432 155.968 61.7621 155.652C57.3499 155.131 57.3046 151.805 57.0784 150.493C56.8068 148.864 57.5535 147.597 60.1556 148.253C63.821 149.18 66.1063 147.031 66.1063 147.031Z" fill="white"/>
<path d="M63.2101 155.991C65.0881 155.991 66.3325 155.516 67.1245 155.064C67.7806 154.702 68.12 153.978 68.0295 153.254C67.6675 150.629 66.3325 146.986 66.3325 146.963C66.3099 146.896 66.242 146.85 66.1742 146.828C66.1063 146.805 66.0158 146.828 65.9705 146.873C65.9479 146.896 63.7079 148.932 60.2234 148.05C58.9337 147.733 57.9834 147.823 57.3951 148.366C56.8973 148.841 56.6937 149.588 56.8747 150.538C56.8973 150.652 56.92 150.765 56.92 150.9C57.1236 152.349 57.5309 155.38 61.7394 155.878C62.2598 155.946 62.7576 155.991 63.2101 155.991ZM66.0157 147.416C66.3325 148.344 67.3055 151.172 67.577 153.321C67.6449 153.864 67.396 154.408 66.8982 154.679C65.9931 155.199 64.364 155.765 61.7846 155.448C57.9155 154.996 57.5535 152.303 57.3499 150.855C57.3273 150.719 57.3046 150.584 57.3046 150.471C57.2141 149.905 57.2141 149.158 57.6893 148.706C58.1418 148.276 58.979 148.208 60.1103 148.479C63.1649 149.249 65.2917 147.959 66.0157 147.416Z" fill="black"/>
<path d="M57.009 155.291C57.009 155.291 56.3302 153.978 55.8777 152.621C55.8777 152.621 53.1173 151.173 52.6874 153.39C52.2575 155.607 55.6062 157.485 57.009 155.291Z" fill="white"/>
<path d="M55.2908 156.49C55.9696 156.49 56.6936 156.196 57.1914 155.404C57.2367 155.336 57.2367 155.246 57.1914 155.178C57.1914 155.155 56.5126 153.865 56.0601 152.53C56.0375 152.485 55.9922 152.417 55.947 152.395C55.8791 152.349 54.3405 151.58 53.2997 152.078C52.8472 152.304 52.553 152.711 52.4399 153.322C52.191 154.68 53.1639 155.834 54.2726 156.264C54.5894 156.422 54.9514 156.49 55.2908 156.49ZM56.7389 155.268C56.2185 156.015 55.3587 156.241 54.4536 155.879C53.5486 155.517 52.6888 154.544 52.8924 153.435C52.9829 152.96 53.1866 152.666 53.5033 152.508C54.1595 152.191 55.2229 152.553 55.6754 152.779C56.0601 153.888 56.5805 154.929 56.7389 155.268Z" fill="black"/>
<path d="M55.9925 155.02C56.0604 155.02 56.1056 154.997 56.1509 154.952C56.2414 154.861 56.2414 154.726 56.1509 154.635C55.6078 154.115 54.8159 153.866 54.0693 154.002C53.9561 154.024 53.8656 154.137 53.8882 154.25C53.9109 154.364 54.024 154.454 54.1371 154.431C54.748 154.341 55.3815 154.545 55.8341 154.952C55.8793 154.997 55.9472 155.02 55.9925 155.02Z" fill="black"/>
</svg>
