<svg width="200" height="272" viewBox="0 0 200 272" fill="none" xmlns="http://www.w3.org/2000/svg">
<rect width="200" height="272" rx="8" fill="#F5FBFF"/>
<path d="M172.612 229.193H125.184V269.562H172.612V229.193Z" fill="white"/>
<path d="M172.612 269.746H125.184C125.074 269.746 125 269.673 125 269.562V229.193C125 229.083 125.074 229.009 125.184 229.009H172.612C172.722 229.009 172.796 229.083 172.796 229.193V269.562C172.796 269.673 172.722 269.746 172.612 269.746ZM125.368 269.378H172.428V229.377H125.368V269.378Z" fill="black"/>
<path d="M188.921 229.211H167.284V269.58H188.921V229.211Z" fill="white"/>
<path d="M188.921 269.764H167.284C167.174 269.764 167.1 269.69 167.1 269.58V229.211C167.1 229.101 167.174 229.027 167.284 229.027H188.921C189.031 229.027 189.105 229.101 189.105 229.211V269.58C189.105 269.69 189.031 269.764 188.921 269.764ZM167.468 269.396H188.737V229.395H167.468V269.396Z" fill="black"/>
<path d="M143.495 229.468L143.476 252.41H149.543L149.524 229.45L143.495 229.468Z" fill="#DFF3FE"/>
<path d="M176.327 229.45V252.392H180.978V229.431L176.327 229.45Z" fill="#DFF3FE"/>
<path d="M141.471 202.04H165.075V212.316H141.416C141.434 212.316 141.471 201.893 141.471 202.04Z" fill="white"/>
<path d="M165.075 212.5H141.416C141.361 212.5 141.324 212.481 141.287 212.445C141.251 212.408 141.232 212.371 141.232 212.316L141.269 202.15C141.269 202.113 141.269 202.095 141.269 202.058V202.04C141.287 201.948 141.324 201.856 141.453 201.856H141.471H165.075C165.185 201.856 165.259 201.93 165.259 202.04V212.316C165.259 212.426 165.185 212.5 165.075 212.5ZM141.618 212.132H164.891V202.224H141.637C141.637 203.474 141.618 210.864 141.618 212.132Z" fill="black"/>
<path d="M141.471 202.04H165.075V212.316H141.416C141.434 212.316 141.471 201.893 141.471 202.04Z" fill="white"/>
<path d="M165.075 212.5H141.416C141.361 212.5 141.324 212.481 141.287 212.445C141.251 212.408 141.232 212.371 141.232 212.316L141.269 202.15C141.269 202.113 141.269 202.095 141.269 202.058V202.04C141.287 201.948 141.324 201.856 141.453 201.856H141.471H165.075C165.185 201.856 165.259 201.93 165.259 202.04V212.316C165.259 212.426 165.185 212.5 165.075 212.5ZM141.618 212.132H164.891V202.224H141.637C141.637 203.474 141.618 210.864 141.618 212.132Z" fill="black"/>
<path d="M150.94 202.04H171.529V212.316H150.903C150.903 212.316 150.94 201.893 150.94 202.04Z" fill="white"/>
<path d="M171.529 212.5H150.903C150.848 212.5 150.811 212.481 150.774 212.445C150.737 212.408 150.719 212.371 150.719 212.316L150.756 202.15C150.756 202.113 150.756 202.095 150.756 202.058V202.04C150.774 201.948 150.811 201.856 150.94 201.856H150.958H171.529C171.639 201.856 171.712 201.93 171.712 202.04V212.316C171.712 212.426 171.621 212.5 171.529 212.5ZM151.087 212.132H171.345V202.224H151.123C151.105 203.474 151.087 210.864 151.087 212.132Z" fill="black"/>
<path d="M146.161 206.838C146.105 206.838 146.069 206.82 146.032 206.783L141.399 202.205C141.326 202.132 141.326 202.022 141.399 201.948C141.473 201.875 141.583 201.875 141.657 201.948L146.161 206.397L150.793 201.911C150.848 201.856 150.922 201.838 150.995 201.875C151.069 201.911 151.106 201.967 151.106 202.04L151.142 205.551H171.511C171.621 205.551 171.695 205.625 171.695 205.735C171.695 205.845 171.621 205.919 171.511 205.919H150.959C150.867 205.919 150.775 205.845 150.775 205.735L150.738 202.481L146.271 206.801C146.253 206.82 146.216 206.838 146.161 206.838Z" fill="black"/>
<path d="M141.436 212.5C141.399 212.5 141.363 212.5 141.344 212.463C141.252 212.408 141.234 212.298 141.289 212.206L145.278 205.827C145.333 205.735 145.444 205.717 145.536 205.772C145.627 205.827 145.646 205.937 145.591 206.029L141.602 212.408C141.546 212.482 141.491 212.5 141.436 212.5Z" fill="black"/>
<path d="M150.904 212.5C150.848 212.5 150.775 212.463 150.757 212.408L146.786 206.029C146.731 205.937 146.767 205.827 146.841 205.772C146.933 205.717 147.043 205.753 147.098 205.827L151.069 212.206C151.124 212.298 151.087 212.408 151.014 212.463C150.959 212.5 150.922 212.5 150.904 212.5Z" fill="black"/>
<path d="M130.61 212.317H169.325V229.174H130.536C130.555 229.193 130.61 212.078 130.61 212.317Z" fill="white"/>
<path d="M169.343 229.376H130.555C130.5 229.376 130.463 229.358 130.426 229.321C130.389 229.285 130.371 229.248 130.371 229.193L130.426 213.052C130.426 212.721 130.426 212.519 130.444 212.39C130.444 212.372 130.444 212.354 130.444 212.335H130.463C130.481 212.151 130.518 212.151 130.628 212.151C130.647 212.151 130.647 212.151 130.665 212.151H169.361C169.472 212.151 169.545 212.225 169.545 212.335V229.193C169.527 229.285 169.435 229.376 169.343 229.376ZM130.739 229.009H169.159V212.519H130.794C130.794 214.21 130.739 227.281 130.739 229.009Z" fill="black"/>
<path d="M130.61 212.317H169.325V229.174H130.536C130.555 229.193 130.61 212.078 130.61 212.317Z" fill="white"/>
<path d="M169.343 229.376H130.555C130.5 229.376 130.463 229.358 130.426 229.321C130.389 229.285 130.371 229.248 130.371 229.193L130.426 213.052C130.426 212.721 130.426 212.519 130.444 212.39C130.444 212.372 130.444 212.354 130.444 212.335H130.463C130.481 212.151 130.518 212.151 130.628 212.151C130.647 212.151 130.647 212.151 130.665 212.151H169.361C169.472 212.151 169.545 212.225 169.545 212.335V229.193C169.527 229.285 169.435 229.376 169.343 229.376ZM130.739 229.009H169.159V212.519H130.794C130.794 214.21 130.739 227.281 130.739 229.009Z" fill="black"/>
<path d="M146.125 212.317H179.895V229.174H146.07C146.07 229.193 146.125 212.078 146.125 212.317Z" fill="white"/>
<path d="M179.895 229.376H146.07C146.015 229.376 145.978 229.358 145.941 229.321C145.904 229.285 145.886 229.248 145.886 229.193L145.941 213.052C145.941 212.721 145.941 212.519 145.96 212.39C145.96 212.372 145.96 212.354 145.96 212.335H145.978C145.996 212.151 146.033 212.151 146.143 212.151C146.162 212.151 146.162 212.151 146.18 212.151H179.913C180.023 212.151 180.097 212.225 180.097 212.335V229.193C180.078 229.285 179.987 229.376 179.895 229.376ZM146.254 229.009H179.711V212.519H146.309C146.309 214.21 146.254 227.281 146.254 229.009Z" fill="black"/>
<path d="M161.218 212.629L161.199 222.023H166.861V212.629H161.218Z" fill="#DFF3FE"/>
<path d="M136.4 212.629L136.382 222.004H140.151V212.611L136.4 212.629Z" fill="#DFF3FE"/>
<path d="M169.417 132.339H27.6289C25.956 132.339 24.5957 130.978 24.5957 129.305V28.0332C24.5957 26.3603 25.956 25 27.6289 25H169.417C171.09 25 172.451 26.3603 172.451 28.0332V129.287C172.451 130.978 171.09 132.339 169.417 132.339Z" fill="white"/>
<path d="M111.085 114C110.936 114 110.788 114 110.639 114C110.387 113.882 110.083 113.809 109.89 113.625C109.504 113.257 109.147 112.845 108.828 112.418C108.591 112.102 108.368 111.742 108.242 111.374C108.056 110.837 107.982 110.263 107.819 109.719C107.485 108.601 107.136 107.483 106.765 106.372C106.624 105.952 106.409 105.555 106.208 105.158C106.149 105.048 106.015 104.974 105.926 104.878C105.711 104.636 105.451 104.422 105.31 104.143C105.073 103.65 104.894 103.128 104.724 102.605C104.59 102.201 104.508 101.782 104.39 101.377C104.293 101.039 104.189 100.722 104.189 100.347C104.189 99.9573 104.137 99.4791 103.759 99.1775C103.729 99.1554 103.737 99.0892 103.722 99.0451C103.64 98.7435 103.573 98.4345 103.484 98.1403C103.41 97.8902 103.299 97.6622 102.994 97.5886C102.935 97.5739 102.898 97.4047 102.868 97.3017C102.846 97.2281 102.883 97.1325 102.853 97.059C102.638 96.5955 102.423 96.1394 102.2 95.6834C102 95.2788 101.725 94.9036 101.606 94.477C101.473 94.0062 101.465 93.4913 101.413 92.9984C101.317 92.1083 101.347 91.1741 101.094 90.3281C100.812 89.3645 100.805 88.3788 100.634 87.4078C100.538 86.8634 100.5 86.297 100.523 85.7453C100.538 85.3039 100.567 84.7743 100.812 84.4433C101.235 83.8695 101.213 83.2737 100.99 82.6631C100.909 82.4498 100.901 82.1997 100.894 81.9716C100.886 81.7877 101.005 81.6038 100.812 81.4273C100.738 81.3611 100.753 81.1772 100.753 81.0521C100.745 80.7579 100.753 80.4636 100.753 80.1768C100.753 80.1253 100.723 80.0443 100.693 80.037C100.612 80.0223 100.463 80.0149 100.449 80.0517C100.367 80.243 100.248 80.4563 100.263 80.6549C100.33 81.8098 99.9883 82.3394 98.8898 82.7146C98.6449 82.7955 98.4148 82.9206 98.1699 82.9868C97.7988 83.0898 97.4202 83.2148 97.0417 83.2516C96.4257 83.3178 95.9432 82.9721 95.5424 82.5748C94.8299 81.8687 94.147 81.133 93.479 80.3827C93.197 80.0664 92.9743 79.6913 92.7294 79.3382C92.5735 79.1175 92.6997 78.9042 92.8704 78.8012C92.9521 78.7497 93.2712 78.8674 93.2861 78.9483C93.3677 79.4191 93.6794 79.1248 93.8873 79.1469C93.9986 79.1543 94.1099 79.1322 94.2138 79.1028C94.4365 79.0439 94.7482 79.0366 94.8596 78.8821C95.0154 78.6835 95.1193 78.632 95.342 78.7055C95.4014 78.7276 95.5201 78.7203 95.5498 78.6835C95.7725 78.3745 95.9877 78.0509 96.1956 77.7272C96.2178 77.6904 96.1956 77.5948 96.1659 77.5727C96.1362 77.5506 96.0397 77.5654 96.01 77.5948C95.6612 77.9994 95.1416 78.0288 94.6814 78.1538C94.4142 78.2274 94.058 78.2421 93.8205 78.1244C93.2861 77.8669 92.7888 77.5286 92.3063 77.1828C92.1504 77.0725 92.0688 76.8518 91.9575 76.6753C91.7645 76.359 91.7051 75.9029 91.1707 75.9544C91.1188 75.9617 91.0594 75.9102 91 75.8882C91 75.8367 91 75.7925 91 75.741C91.052 75.6454 91.1262 75.5498 91.1484 75.4468C91.2375 75.0349 91.5121 74.9613 91.8907 74.976C92.5587 75.0128 92.5512 74.9981 92.6848 74.3434C92.6997 74.2845 92.8036 74.1889 92.8556 74.1889C93.2861 74.2257 93.724 74.2845 94.1545 74.3507C94.4217 74.3875 94.7037 74.3287 94.9189 74.6082C95.1045 74.851 95.3865 74.7995 95.6537 74.645C95.9135 74.4979 96.1956 74.3581 96.4925 74.2772C96.7077 74.2183 96.9972 74.1595 97.0417 74.5641C97.0491 74.6376 97.3683 74.77 97.4277 74.7259C97.6132 74.5861 97.9324 74.4905 97.821 74.1374C97.7988 74.0639 97.8062 73.9314 97.8582 73.8947C98.0957 73.7034 97.925 73.5636 97.8285 73.4018C97.487 72.828 97.0714 72.2837 97.0417 71.5701C97.0417 71.4966 96.8487 71.3715 96.7374 71.3568C95.9432 71.2391 95.6241 70.6065 96.0249 69.9371C96.2401 69.5767 96.0694 69.1206 95.7131 69.1647C95.2604 69.2162 95.0822 68.8484 94.7853 68.6719C94.7111 68.6277 94.6814 68.4144 94.7111 68.3041C94.8373 67.8333 94.9486 67.3478 95.5053 67.1565C95.6463 67.105 95.7577 66.9579 95.8541 66.8402C96.0249 66.6342 96.1807 66.4135 96.3366 66.1929C96.5221 65.9207 96.7671 65.7588 97.1085 65.7809C97.4202 65.803 97.4202 66.0531 97.5019 66.2738C97.5835 66.5165 97.7914 66.7225 98.0734 66.5533C98.5187 66.2885 98.9863 66.3032 99.4688 66.3032C99.6321 66.3032 99.8547 66.2738 99.9438 66.1634C100.196 65.8471 100.322 65.4352 100.731 65.2292C100.76 65.2145 100.745 65.1115 100.768 65.0527C100.879 64.6922 101.072 64.4127 101.451 64.2509C101.807 64.1037 102.208 63.9345 102.46 63.6624C102.861 63.2284 103.224 62.7208 103.306 62.1029C103.365 61.6468 103.581 61.4776 104.048 61.507C104.419 61.5291 104.701 61.0583 104.635 60.6905C104.612 60.5581 104.672 60.3668 104.761 60.2712C105.095 59.9328 105.466 59.6239 105.815 59.2929C105.963 59.1531 106.097 59.006 106.023 58.7485C105.986 58.6161 106.075 58.4469 106.097 58.2924C106.127 58.1085 106.216 57.8805 106.141 57.7481C105.971 57.4538 106.112 57.2405 106.305 57.1228C106.616 56.9316 106.869 56.5785 107.329 56.6594C107.552 56.6962 107.707 56.5785 107.737 56.3357C107.767 56.1224 107.737 55.9532 107.47 55.8943C107.195 55.8355 106.928 55.7031 106.654 55.6884C106.401 55.6737 106.334 55.5854 106.401 55.3794C106.468 55.1661 106.371 55.041 106.186 55.0558C105.77 55.0925 105.577 54.7762 105.295 54.5997C105.184 54.5335 105.065 54.4526 104.939 54.4378C104.59 54.3864 104.382 54.2172 104.367 53.8641C104.36 53.6581 104.405 53.4521 104.382 53.2535C104.308 52.5547 104.197 51.8559 104.145 51.157C104.13 50.9805 104.212 50.6715 104.33 50.6274C104.553 50.5465 104.731 50.495 104.768 50.2228C104.776 50.164 104.917 50.083 104.998 50.0757C105.325 50.0536 105.533 49.8624 105.525 49.5755C105.525 49.4431 105.273 49.2886 105.102 49.2003C104.88 49.0826 104.753 48.9429 104.865 48.7148C104.984 48.4794 104.835 48.5236 104.687 48.4574C104.375 48.3176 104.019 48.1705 103.818 47.9204C103.64 47.6997 103.492 47.5967 103.254 47.6555C102.972 47.7144 102.749 47.6335 102.631 47.4054C102.482 47.1038 102.66 46.7581 102.935 46.5742C103.187 46.4124 103.447 46.2211 103.61 45.9857C103.892 45.5811 104.241 45.537 104.672 45.6106C104.857 45.64 105.05 45.6326 105.236 45.6473C105.243 45.6179 105.258 45.5885 105.266 45.5591C105.162 45.4781 105.065 45.3972 104.961 45.3163C104.961 45.2648 104.954 45.2207 104.954 45.1692C105.652 45.5076 106.238 45.1692 106.854 45C106.98 45 107.099 45 107.225 45C107.552 45.0662 107.871 45.1545 108.205 45.1913C108.427 45.2133 108.554 45.2648 108.531 45.5149C108.524 45.5664 108.65 45.6768 108.695 45.6694C109.029 45.5885 109.274 45.7577 109.348 46.0225C109.541 46.6993 110.209 46.7875 110.662 47.1333C110.847 47.273 111.025 47.3613 111.04 47.6114C111.055 47.8983 111.218 47.9792 111.5 48.0233C111.79 48.0675 112.072 48.1999 112.332 48.347C112.421 48.3985 112.421 48.5971 112.458 48.7295C112.443 48.7737 112.428 48.8178 112.413 48.8619C112.933 48.7148 113.445 48.5603 113.972 48.4206C114.447 48.2955 114.855 47.8983 115.404 48.0307C115.597 48.0748 115.746 48.0896 115.894 47.9057C115.954 47.8394 116.176 47.8689 116.302 47.9057C116.607 47.9939 116.896 48.1925 117.201 48.1925C117.676 48.1999 117.824 48.5971 118.128 48.8104C118.165 48.8325 118.173 48.9281 118.165 48.9796C118.076 49.3769 118.01 49.7888 117.869 50.1713C117.765 50.4582 117.757 50.8701 117.282 50.9069C117.215 50.9143 117.156 51.0393 117.097 51.1203C117.045 51.1865 117 51.3042 116.948 51.3115C116.607 51.3189 116.651 51.5763 116.629 51.7749C116.57 52.2457 116.34 52.4223 115.857 52.334C115.471 52.2678 115.427 52.3193 115.538 52.7165C115.597 52.9372 115.805 53.1505 115.456 53.3639C115.271 53.4816 115.479 53.8788 115.753 53.9597C115.872 53.9891 116.006 53.9818 116.117 54.0333C116.199 54.07 116.31 54.2245 116.295 54.2539C116.05 54.6144 116.332 54.8424 116.503 55.0999C116.629 55.2838 116.711 55.4603 116.443 55.6222C116.169 55.784 115.872 55.9385 115.664 56.1665C115.382 56.4755 115.204 56.321 115.011 56.115C114.937 56.0415 114.914 55.9164 114.84 55.8355C114.788 55.7767 114.677 55.6957 114.625 55.7104C114.543 55.7399 114.417 55.8576 114.425 55.9091C114.514 56.2989 114.64 56.6814 114.751 57.0713C114.848 57.4097 114.952 57.7407 115.018 58.0865C115.055 58.2777 115.033 58.4837 115.033 58.7706C115.508 58.3366 115.694 58.3807 115.902 58.8515C115.939 58.9398 115.976 59.0428 116.035 59.109C116.25 59.337 116.377 59.7342 116.837 59.5283C116.904 59.4988 117.045 59.6165 117.149 59.6827C117.252 59.7416 117.356 59.8078 117.438 59.8961C117.594 60.0505 117.735 60.2197 117.876 60.3816C117.935 60.4478 117.987 60.5875 118.047 60.5875C118.581 60.6022 118.915 60.9921 119.323 61.2422C119.494 61.3526 119.635 61.4482 119.36 61.7056C118.982 62.0587 118.403 62.3162 118.425 62.9783C118.425 63.0297 118.321 63.0812 118.292 63.1401C118.247 63.221 118.158 63.3461 118.188 63.4049C118.351 63.6991 118.165 63.8978 118.017 64.1111C117.92 64.2509 117.854 64.4127 117.75 64.5525C117.624 64.7143 117.638 64.8099 117.802 64.9497C117.972 65.0894 118.099 65.2292 118.344 65.1115C118.395 65.0821 118.507 65.1262 118.574 65.163C118.945 65.369 119.323 65.5749 119.687 65.803C119.806 65.8765 119.895 66.0016 120.006 66.0825C120.414 66.3768 120.793 66.7813 121.253 66.899C121.565 66.98 121.884 67.0535 122.166 67.1933C122.381 67.2963 122.552 67.4213 122.812 67.3478C122.879 67.3257 123.064 67.4507 123.079 67.5243C123.131 67.8186 123.368 67.8112 123.561 67.8848C123.769 67.9583 123.977 68.0466 124.192 68.1128C124.252 68.1275 124.356 68.1275 124.385 68.0907C124.593 67.8259 124.838 67.9215 125.09 67.9804C125.254 68.0172 125.439 68.0098 125.61 67.9951C125.825 67.973 126.055 67.8627 126.256 67.8995C126.553 67.951 126.835 68.0907 127.124 68.2084C127.183 68.2305 127.273 68.3114 127.265 68.3555C127.176 68.8852 127.48 69.0544 127.933 69.0985C127.978 69.1059 128.007 69.1574 128.052 69.1794C128.393 69.3633 128.69 69.7238 129.135 69.3045C129.314 69.1353 129.544 69.2309 129.529 69.5472C129.521 69.7679 129.625 69.9445 129.855 69.8562C130.382 69.6502 130.865 69.7826 131.325 70.0107C131.637 70.1651 131.867 70.1872 132.112 69.9297C132.245 69.79 132.349 69.7532 132.453 69.9959C132.505 70.1136 132.743 70.2461 132.876 70.2313C133.173 70.1946 133.893 70.0769 134.19 70.0916C134.235 70.0916 134.287 70.0401 134.316 70.0033C134.39 69.915 134.472 69.8341 134.524 69.7311C134.613 69.5546 134.732 69.3928 134.591 69.1574C134.316 68.7013 134.101 68.2158 134.257 67.6641C134.338 67.3772 134.561 67.0756 134.509 66.8181C134.42 66.362 134.717 66.3547 134.969 66.237C135.103 66.1781 135.229 66.1046 135.37 66.0531C135.467 66.0237 135.578 66.0016 135.667 66.031C136.068 66.1414 136.268 66.6195 136.083 67.105C135.986 67.3625 135.919 67.5832 136.157 67.8112C136.201 67.8553 136.157 67.9877 136.157 68.0834C136.164 68.2746 136.105 68.5468 136.209 68.6424C136.402 68.8116 136.684 68.8999 136.936 68.9882C137.1 69.047 137.3 68.9955 137.441 69.0691C138.072 69.4075 138.643 69.1206 139.141 68.8337C139.423 68.6719 139.601 68.6498 139.868 68.7601C140.068 68.841 140.284 68.9293 140.492 68.922C141.1 68.8999 141.701 68.841 142.31 68.7675C142.51 68.7454 142.696 68.6057 142.889 68.5689C143.171 68.5247 143.126 68.3555 143 68.2526C142.792 68.076 142.815 67.9215 142.911 67.7082C143.022 67.4655 142.874 67.3183 142.599 67.3698C142.547 67.3772 142.496 67.414 142.458 67.3993C142.288 67.333 142.065 67.2889 141.983 67.1639C141.894 67.0314 141.887 66.7961 141.931 66.6269C141.954 66.5533 142.199 66.5312 142.347 66.5018C142.488 66.4797 142.637 66.5018 142.77 66.465C143.03 66.3915 143.297 66.3106 143.542 66.1929C143.728 66.0972 144.047 65.8986 144.025 65.8103C143.95 65.5014 144.121 65.391 144.314 65.2586C144.633 65.0453 144.952 64.8393 144.967 64.3906C144.967 64.3097 145.13 64.1773 145.234 64.1552C145.984 64.0228 146.474 63.5594 146.919 62.9856C147.142 62.6987 147.454 62.4707 147.78 62.2941C147.891 62.2353 148.144 62.4413 148.337 62.5075C148.426 62.5369 148.53 62.5148 148.626 62.5295C148.804 62.559 148.997 62.5663 149.161 62.6399C149.413 62.7576 149.48 62.6325 149.636 62.4486C149.925 62.1029 150.304 61.8307 150.675 61.5659C150.719 61.5365 150.949 61.7792 151.098 61.8822C151.157 61.919 151.269 61.9043 151.298 61.9484C151.343 62.0293 151.387 62.147 151.358 62.2279C151.321 62.3309 151.209 62.4118 151.135 62.5001C151.142 62.5295 151.157 62.559 151.165 62.5884C151.514 62.3456 151.773 62.3456 151.892 62.7796C151.9 62.8091 151.937 62.8385 151.966 62.8606C152.159 62.9856 152.1 63.0959 151.989 63.2504C151.84 63.4711 151.729 63.7286 151.595 63.964C151.625 63.986 151.655 64.0007 151.684 64.0228C151.944 63.7801 152.211 63.6109 152.568 63.8463C152.619 63.883 152.709 63.8389 152.783 63.8536C153.117 63.9051 153.51 63.7065 153.755 64.0964C153.844 64.2361 153.918 64.3759 154 64.5157C154 64.6849 154 64.8614 154 65.0306C153.584 64.957 153.473 65.3322 153.258 65.5308C153.057 65.7147 153.065 65.9354 153.258 66.1414C153.399 66.2958 153.547 66.4503 153.666 66.6195C153.711 66.6784 153.703 66.8034 153.666 66.877C153.644 66.9138 153.503 66.9358 153.443 66.9064C153.28 66.8108 153.139 66.6857 152.991 66.5827C152.924 66.5386 152.827 66.4503 152.775 66.465C152.33 66.6269 151.87 66.774 151.462 67.0094C151.224 67.1418 151.083 67.436 150.875 67.6273C150.556 67.9215 150.215 68.179 149.888 68.4659C149.71 68.6277 149.48 68.8043 149.651 69.0838C149.888 69.481 149.784 69.812 149.561 70.1651C149.458 70.327 149.354 70.5256 149.369 70.7021C149.391 71.0258 149.302 71.2318 148.997 71.3789C148.797 71.4672 148.775 71.7908 148.923 71.9085C149.302 72.1881 149.339 72.3867 149.094 72.7765C148.708 73.4092 148.381 74.0565 148.292 74.8068C148.24 75.2261 148.174 75.2408 147.802 75.0569C147.75 75.0275 147.684 74.9981 147.624 74.9981C147.29 75.0054 146.956 75.0349 146.615 75.0275C146.333 75.0275 146.385 75.1158 146.481 75.307C146.778 75.8882 146.838 76.4987 146.645 77.124C146.585 77.3079 146.541 77.5139 146.266 77.4991C146.229 77.4991 146.147 77.5727 146.155 77.5948C146.229 77.9479 146.34 78.2862 146.392 78.6393C146.422 78.8527 146.407 79.0954 146.325 79.2867C146.259 79.4485 146.051 79.5441 145.947 79.6986C145.798 79.9119 145.68 79.9267 145.524 79.728C145.479 79.6692 145.361 79.5956 145.346 79.603C144.923 79.934 144.952 79.4926 144.937 79.3308C144.871 78.7497 144.685 78.2127 144.41 77.6978C144.321 77.5286 144.292 77.33 144.262 77.1387C144.203 76.7856 144.158 76.4252 144.091 76.0721C144.084 76.0206 143.935 75.9544 143.869 75.9691C143.46 76.0721 143.097 76.6532 143.215 77.0431C143.305 77.3447 143.164 77.5286 143 77.7345C142.874 77.889 142.755 77.8964 142.651 77.7272C142.533 77.5506 142.429 77.3741 142.317 77.1975C142.317 77.227 142.325 77.2564 142.317 77.2932C142.288 77.4403 142.251 77.5801 142.221 77.7272C142.139 77.5948 142.028 77.4771 141.969 77.3373C141.835 76.9989 141.738 76.6532 141.605 76.3148C141.501 76.0647 141.724 75.2114 141.954 75.0643C141.991 75.0349 142.043 75.0275 142.087 75.0128C142.436 74.8804 142.837 74.8215 143.112 74.6082C143.52 74.2845 143.958 73.9167 143.832 73.2841C143.824 73.2547 143.943 73.1664 144.01 73.1591C144.091 73.1517 144.173 73.1958 144.299 73.2253C143.921 72.7103 143.498 72.5632 142.941 72.7251C142.837 72.7545 142.726 72.7986 142.622 72.7986C141.716 72.7913 140.803 72.7986 139.898 72.7618C139.527 72.7471 139.156 72.5706 138.784 72.5559C138.406 72.5411 138.332 72.372 138.317 72.0483C138.302 71.629 138.257 71.2023 138.213 70.783C138.205 70.7021 138.124 70.6212 138.079 70.5477C138.012 70.6139 137.909 70.658 137.871 70.7389C137.73 71.092 137.471 71.0552 137.203 70.9375C136.936 70.8198 136.699 70.6801 136.676 70.3343C136.669 70.2461 136.558 70.1651 136.491 70.0769C136.513 70.2902 136.832 70.5403 136.298 70.5182C136.194 70.5109 136.09 70.6874 135.927 70.8272C135.89 70.6433 135.89 70.4667 135.816 70.327C135.764 70.2387 135.608 70.2019 135.496 70.1431C135.318 70.5256 134.843 70.7021 134.799 71.1876C134.784 71.3789 134.769 71.4892 135.006 71.5701C135.185 71.629 135.318 71.8129 135.467 71.9453C135.541 72.0115 135.608 72.1366 135.674 72.1366C136.001 72.1292 136.283 72.2028 136.498 72.4529C136.558 72.5191 136.647 72.5853 136.647 72.6515C136.647 72.9972 136.38 72.9825 136.142 72.9825C135.853 72.9752 135.63 72.9825 135.556 73.365C135.526 73.5269 135.422 73.902 135.051 73.6813C135.036 73.674 134.969 73.7181 134.947 73.7549C134.71 74.0859 134.769 74.4022 135.14 74.6156C135.348 74.7406 135.578 74.8436 135.816 74.9098C136.38 75.0643 136.543 75.6013 136.142 76.0426C135.897 76.3148 135.89 76.5061 136.179 76.69C136.409 76.8297 136.506 76.9622 136.387 77.2196C136.328 77.352 136.335 77.455 136.543 77.4329C136.869 77.3962 137.01 77.4844 136.766 77.8007C136.736 77.8449 136.721 77.9258 136.736 77.9773C136.825 78.3377 136.929 78.6908 137.01 79.0513C137.107 79.4706 137.203 79.8899 137.255 80.3092C137.293 80.6034 137.137 80.9197 137.359 81.2066C137.374 81.2287 137.241 81.3684 137.181 81.4494C136.907 81.1993 136.803 81.4861 136.632 81.67C136.543 81.4714 136.491 81.214 136.239 81.5156C136.194 81.5671 135.912 81.5156 135.83 81.4273C135.764 81.3611 135.823 81.1625 135.838 81.0227C135.845 80.9639 135.875 80.905 135.897 80.8535C135.823 80.8682 135.726 80.8535 135.682 80.8977C135.511 81.0668 135.452 80.9933 135.385 80.8094C135.281 80.5151 135.11 80.5593 134.94 80.7579C134.836 80.8756 134.754 81.0227 134.635 81.1257C134.368 81.3611 134.086 81.5818 133.804 81.8025C133.774 81.8245 133.708 81.8025 133.663 81.7951C133.188 81.6995 132.928 82.0158 132.683 82.3174C132.461 82.5896 132.55 82.8985 132.713 83.178C132.765 83.2663 132.795 83.3619 132.861 83.4355C133.084 83.6562 132.958 83.8327 132.795 83.9872C132.706 84.0681 132.587 84.1196 132.498 84.2079C132.438 84.2741 132.364 84.3918 132.386 84.458C132.453 84.7081 132.327 84.8111 132.134 84.9214C131.941 85.0244 131.689 85.1274 131.607 85.2966C131.414 85.7306 131.036 85.8189 130.642 85.9513C129.677 86.2823 128.705 86.6133 128.163 87.5917C128.007 87.8639 127.785 88.0993 127.577 88.3347C127.265 88.6951 126.879 88.9967 126.634 89.3939C126.419 89.7397 126.129 89.9236 125.81 90.1369C125.372 90.4311 124.845 90.6445 124.638 91.2109C124.586 91.3506 124.408 91.5125 124.266 91.5493C123.621 91.7037 123.19 92.1819 122.686 92.5423C122.611 92.5938 122.559 92.7483 122.574 92.8439C122.626 93.1161 122.441 93.7781 122.248 93.8885C121.988 94.0356 121.736 94.1901 121.461 94.2857C121.298 94.3372 121.09 94.2563 120.904 94.2784C120.652 94.3078 120.31 94.2857 120.169 94.4328C119.895 94.7197 119.754 95.1317 119.516 95.4627C119.435 95.5804 119.249 95.6392 119.101 95.676C119.049 95.6907 118.915 95.5657 118.893 95.4848C118.819 95.2273 118.678 95.2935 118.492 95.345C117.987 95.4848 117.787 95.9041 117.609 96.3013C117.445 96.6544 117.267 97.0295 117.416 97.4635C117.594 97.9785 117.794 98.5081 117.497 99.0598C117.475 99.0966 117.497 99.1554 117.497 99.2069C117.572 99.8469 117.564 100.509 117.742 101.12C117.95 101.826 117.616 102.414 117.505 103.047C117.453 103.334 117.29 103.635 117.089 103.849C116.592 104.386 116.51 105.033 116.54 105.695C116.577 106.534 116.688 107.372 116.748 108.211C116.785 108.748 116.763 108.755 116.206 108.733C116.072 108.726 115.939 108.711 115.805 108.689C115.427 108.637 115.293 108.748 115.271 109.138C115.263 109.219 115.248 109.307 115.204 109.366C115.026 109.616 114.818 109.844 114.67 110.109C114.566 110.293 114.432 110.631 114.514 110.719C114.662 110.881 114.966 110.999 115.197 110.977C115.501 110.955 115.516 111.087 115.56 111.3C115.308 111.256 115.085 111.212 114.855 111.175C114.217 111.072 113.69 111.44 113.111 111.595C112.821 111.675 112.599 111.904 112.584 112.33C112.562 112.838 112.443 113.375 111.79 113.566C111.53 113.617 111.315 113.846 111.085 114Z" stroke="black" stroke-width="0.5" stroke-miterlimit="10"/>
<path d="M131.489 77.9781C132.311 77.9781 132.978 77.3114 132.978 76.489C132.978 75.6667 132.311 75 131.489 75C130.667 75 130 75.6667 130 76.489C130 77.3114 130.667 77.9781 131.489 77.9781Z" fill="#7BBEE4"/>
<path d="M169.417 25.3677C170.888 25.3677 172.083 26.5626 172.083 28.0332V129.287C172.083 130.758 170.888 131.953 169.417 131.953H27.6289C26.1583 131.953 24.9634 130.758 24.9634 129.287V28.0332C24.9634 26.5626 26.1583 25.3677 27.6289 25.3677H169.417ZM169.417 25H27.6289C25.956 25 24.5957 26.3603 24.5957 28.0332V129.287C24.5957 130.96 25.956 132.32 27.6289 132.32H169.417C171.09 132.32 172.451 130.96 172.451 129.287V28.0332C172.451 26.3603 171.09 25 169.417 25Z" fill="black"/>
<path d="M39.982 32.9408C40.9465 32.9408 41.7284 32.1589 41.7284 31.1944C41.7284 30.2299 40.9465 29.448 39.982 29.448C39.0175 29.448 38.2356 30.2299 38.2356 31.1944C38.2356 32.1589 39.0175 32.9408 39.982 32.9408Z" fill="white"/>
<path d="M39.982 29.8157C40.7357 29.8157 41.3607 30.4407 41.3607 31.1944C41.3607 31.9481 40.7357 32.5731 39.982 32.5731C39.2283 32.5731 38.6033 31.9481 38.6033 31.1944C38.6033 30.4223 39.2099 29.8157 39.982 29.8157ZM39.982 29.448C39.0261 29.448 38.2356 30.2385 38.2356 31.1944C38.2356 32.1503 39.0077 32.9408 39.982 32.9408C40.9379 32.9408 41.7284 32.1503 41.7284 31.1944C41.71 30.2201 40.9379 29.448 39.982 29.448Z" fill="black"/>
<path d="M45.055 32.9408C46.0195 32.9408 46.8014 32.1589 46.8014 31.1944C46.8014 30.2299 46.0195 29.448 45.055 29.448C44.0905 29.448 43.3086 30.2299 43.3086 31.1944C43.3086 32.1589 44.0905 32.9408 45.055 32.9408Z" fill="white"/>
<path d="M45.055 29.8157C45.8087 29.8157 46.4337 30.4407 46.4337 31.1944C46.4337 31.9481 45.8087 32.5731 45.055 32.5731C44.3013 32.5731 43.6763 31.9481 43.6763 31.1944C43.6763 30.4223 44.3013 29.8157 45.055 29.8157ZM45.055 29.448C44.0991 29.448 43.3086 30.2385 43.3086 31.1944C43.3086 32.1503 44.0807 32.9408 45.055 32.9408C46.0109 32.9408 46.8014 32.1503 46.8014 31.1944C46.8014 30.2201 46.0293 29.448 45.055 29.448Z" fill="black"/>
<path d="M50.148 32.9408C51.1125 32.9408 51.8944 32.1589 51.8944 31.1944C51.8944 30.2299 51.1125 29.448 50.148 29.448C49.1835 29.448 48.4016 30.2299 48.4016 31.1944C48.4016 32.1589 49.1835 32.9408 50.148 32.9408Z" fill="white"/>
<path d="M50.148 29.8157C50.9017 29.8157 51.5267 30.4407 51.5267 31.1944C51.5267 31.9481 50.9017 32.5731 50.148 32.5731C49.3943 32.5731 48.7693 31.9481 48.7693 31.1944C48.7693 30.4223 49.3943 29.8157 50.148 29.8157ZM50.148 29.448C49.1921 29.448 48.4016 30.2385 48.4016 31.1944C48.4016 32.1503 49.1737 32.9408 50.148 32.9408C51.1223 32.9408 51.8944 32.1503 51.8944 31.1944C51.8944 30.2201 51.1039 29.448 50.148 29.448Z" fill="black"/>
<path d="M131.106 30.0919C131.823 30.0919 132.411 30.6802 132.411 31.3971V31.5809C132.411 32.2979 131.823 32.8861 131.106 32.8861H67.3537C66.6368 32.8861 66.0486 32.2979 66.0486 31.5809V31.3971C66.0486 30.6802 66.6368 30.0919 67.3537 30.0919H131.106ZM131.106 29.7242H67.3537C66.4346 29.7242 65.6809 30.4779 65.6809 31.3971V31.5809C65.6809 32.5001 66.4346 33.2538 67.3537 33.2538H131.106C132.025 33.2538 132.779 32.5001 132.779 31.5809V31.3971C132.779 30.4779 132.025 29.7242 131.106 29.7242Z" fill="black"/>
<path d="M29.6684 107.374C29.5582 107.374 29.4846 107.301 29.4846 107.19V38.9892H167.376V65.2586C167.376 65.3689 167.302 65.4424 167.192 65.4424C167.082 65.4424 167.008 65.3689 167.008 65.2586V39.3569H29.8523V107.19C29.8523 107.301 29.7604 107.374 29.6684 107.374Z" fill="black"/>
<path d="M72.8504 125.996H46.728C46.6177 125.996 46.5442 125.923 46.5442 125.812C46.5442 125.702 46.6177 125.629 46.728 125.629H72.8504C72.9607 125.629 73.0342 125.702 73.0342 125.812C73.0342 125.923 72.9607 125.996 72.8504 125.996Z" fill="black"/>
<path d="M121.51 125.996H86.0496C85.9393 125.996 85.8657 125.923 85.8657 125.812C85.8657 125.702 85.9393 125.629 86.0496 125.629H121.51C121.621 125.629 121.694 125.702 121.694 125.812C121.694 125.923 121.621 125.996 121.51 125.996Z" fill="black"/>
<path d="M40.5848 58.3272C43.1332 58.3272 45.199 56.2614 45.199 53.7131C45.199 51.1648 43.1332 49.0989 40.5848 49.0989C38.0365 49.0989 35.9707 51.1648 35.9707 53.7131C35.9707 56.2614 38.0365 58.3272 40.5848 58.3272Z" fill="#DFF3FE"/>
<path d="M40.0152 56.4153C39.9232 56.4153 39.8313 56.3602 39.7946 56.2867L37.9746 53.5476C37.8827 53.4189 37.9195 53.2535 38.0482 53.1615C38.1769 53.0696 38.3423 53.1064 38.4342 53.2351L40.0335 55.6433L42.9381 51.36C43.03 51.2313 43.1954 51.1946 43.3241 51.2865C43.4528 51.3784 43.4896 51.5438 43.3976 51.6725L40.2725 56.2867C40.199 56.3786 40.1071 56.4153 40.0152 56.4153Z" fill="white"/>
<path d="M40.5848 83.218C43.1332 83.218 45.199 81.1522 45.199 78.6039C45.199 76.0556 43.1332 73.9897 40.5848 73.9897C38.0365 73.9897 35.9707 76.0556 35.9707 78.6039C35.9707 81.1522 38.0365 83.218 40.5848 83.218Z" fill="#DFF3FE"/>
<path d="M40.0152 81.3062C39.9232 81.3062 39.8313 81.251 39.7946 81.1775L37.9746 78.4384C37.8827 78.3097 37.9195 78.1443 38.0482 78.0524C38.1769 77.9604 38.3423 77.9972 38.4342 78.1259L40.0335 80.5341L42.9381 76.2508C43.03 76.1221 43.1954 76.0854 43.3241 76.1773C43.4528 76.2692 43.4896 76.4346 43.3976 76.5633L40.2725 81.1775C40.199 81.2694 40.1071 81.3062 40.0152 81.3062Z" fill="white"/>
<path d="M40.5848 70.7727C43.1332 70.7727 45.199 68.7068 45.199 66.1585C45.199 63.6102 43.1332 61.5444 40.5848 61.5444C38.0365 61.5444 35.9707 63.6102 35.9707 66.1585C35.9707 68.7068 38.0365 70.7727 40.5848 70.7727Z" fill="#DFF3FE"/>
<path d="M40.0152 68.8608C39.9232 68.8608 39.8313 68.8056 39.7946 68.7321L37.9746 65.993C37.8827 65.8643 37.9195 65.6989 38.0482 65.607C38.1769 65.5151 38.3423 65.5518 38.4342 65.6805L40.0335 68.0887L42.9381 63.8054C43.03 63.6768 43.1954 63.64 43.3241 63.7319C43.4528 63.8238 43.4896 63.9893 43.3976 64.1179L40.2725 68.7321C40.199 68.824 40.1071 68.8608 40.0152 68.8608Z" fill="white"/>
<path d="M40.5848 95.9942C43.1332 95.9942 45.199 93.9283 45.199 91.38C45.199 88.8317 43.1332 86.7659 40.5848 86.7659C38.0365 86.7659 35.9707 88.8317 35.9707 91.38C35.9707 93.9283 38.0365 95.9942 40.5848 95.9942Z" fill="#DFF3FE"/>
<path d="M40.0152 94.0823C39.9232 94.0823 39.8313 94.0271 39.7946 93.9536L37.9746 91.2145C37.8827 91.0858 37.9195 90.9204 38.0482 90.8285C38.1769 90.7366 38.3423 90.7733 38.4342 90.902L40.0335 93.3102L42.9381 89.0269C43.03 88.8982 43.1954 88.8615 43.3241 88.9534C43.4528 89.0453 43.4896 89.2108 43.3976 89.3394L40.2725 93.9536C40.199 94.0271 40.1071 94.0823 40.0152 94.0823Z" fill="white"/>
<path d="M40.5848 108.439C43.1332 108.439 45.199 106.373 45.199 103.825C45.199 101.277 43.1332 99.2109 40.5848 99.2109C38.0365 99.2109 35.9707 101.277 35.9707 103.825C35.9707 106.373 38.0365 108.439 40.5848 108.439Z" fill="#DFF3FE"/>
<path d="M40.0152 106.527C39.9232 106.527 39.8313 106.472 39.7946 106.399L37.9746 103.66C37.8827 103.531 37.9195 103.365 38.0482 103.274C38.1769 103.182 38.3423 103.218 38.4342 103.347L40.0335 105.755L42.9381 101.472C43.03 101.343 43.1954 101.307 43.3241 101.398C43.4528 101.49 43.4896 101.656 43.3976 101.785L40.2725 106.399C40.199 106.472 40.1071 106.527 40.0152 106.527Z" fill="white"/>
<path d="M71.5618 52.4458H49.3367C49.2264 52.4458 49.1528 52.3723 49.1528 52.262C49.1528 52.1517 49.2264 52.0781 49.3367 52.0781H71.5618C71.6721 52.0781 71.7456 52.1517 71.7456 52.262C71.7456 52.3539 71.6721 52.4458 71.5618 52.4458Z" fill="black"/>
<path d="M71.5618 55.2032H49.3367C49.2264 55.2032 49.1528 55.1297 49.1528 55.0194C49.1528 54.9091 49.2264 54.8356 49.3367 54.8356H71.5618C71.6721 54.8356 71.7456 54.9091 71.7456 55.0194C71.7456 55.1297 71.6721 55.2032 71.5618 55.2032Z" fill="black"/>
<path d="M71.5618 77.3366H49.3367C49.2264 77.3366 49.1528 77.2631 49.1528 77.1528C49.1528 77.0425 49.2264 76.9689 49.3367 76.9689H71.5618C71.6721 76.9689 71.7456 77.0425 71.7456 77.1528C71.7456 77.2447 71.6721 77.3366 71.5618 77.3366Z" fill="black"/>
<path d="M71.5618 80.094H49.3367C49.2264 80.094 49.1528 80.0205 49.1528 79.9102C49.1528 79.7999 49.2264 79.7264 49.3367 79.7264H71.5618C71.6721 79.7264 71.7456 79.7999 71.7456 79.9102C71.7456 80.0205 71.6721 80.094 71.5618 80.094Z" fill="black"/>
<path d="M71.5618 64.8912H49.3367C49.2264 64.8912 49.1528 64.8177 49.1528 64.7074C49.1528 64.5971 49.2264 64.5236 49.3367 64.5236H71.5618C71.6721 64.5236 71.7456 64.5971 71.7456 64.7074C71.7456 64.8177 71.6721 64.8912 71.5618 64.8912Z" fill="black"/>
<path d="M71.5618 67.6487H49.3367C49.2264 67.6487 49.1528 67.5751 49.1528 67.4648C49.1528 67.3545 49.2264 67.281 49.3367 67.281H71.5618C71.6721 67.281 71.7456 67.3545 71.7456 67.4648C71.7456 67.5751 71.6721 67.6487 71.5618 67.6487Z" fill="black"/>
<path d="M71.5618 90.1127H49.3367C49.2264 90.1127 49.1528 90.0392 49.1528 89.9289C49.1528 89.8186 49.2264 89.7451 49.3367 89.7451H71.5618C71.6721 89.7451 71.7456 89.8186 71.7456 89.9289C71.7456 90.0208 71.6721 90.1127 71.5618 90.1127Z" fill="black"/>
<path d="M71.5618 92.8702H49.3367C49.2264 92.8702 49.1528 92.7966 49.1528 92.6863C49.1528 92.576 49.2264 92.5025 49.3367 92.5025H71.5618C71.6721 92.5025 71.7456 92.576 71.7456 92.6863C71.7456 92.7782 71.6721 92.8702 71.5618 92.8702Z" fill="black"/>
<path d="M71.5618 102.558H49.3367C49.2264 102.558 49.1528 102.484 49.1528 102.374C49.1528 102.263 49.2264 102.19 49.3367 102.19H71.5618C71.6721 102.19 71.7456 102.263 71.7456 102.374C71.7456 102.466 71.6721 102.558 71.5618 102.558Z" fill="black"/>
<path d="M71.5618 105.315H49.3367C49.2264 105.315 49.1528 105.242 49.1528 105.131C49.1528 105.021 49.2264 104.948 49.3367 104.948H71.5618C71.6721 104.948 71.7456 105.021 71.7456 105.131C71.7456 105.242 71.6721 105.315 71.5618 105.315Z" fill="black"/>
<path d="M117.372 70.4238C118.194 70.4238 118.861 69.7571 118.861 68.9348C118.861 68.1124 118.194 67.4457 117.372 67.4457C116.55 67.4457 115.883 68.1124 115.883 68.9348C115.883 69.7571 116.55 70.4238 117.372 70.4238Z" fill="#7BBEE4"/>
<path d="M102.849 70.1481C103.672 70.1481 104.338 69.4814 104.338 68.6591C104.338 67.8367 103.672 67.17 102.849 67.17C102.027 67.17 101.36 67.8367 101.36 68.6591C101.36 69.4814 102.027 70.1481 102.849 70.1481Z" fill="#7BBEE4"/>
<path d="M111.509 99.0682C112.331 99.0682 112.998 98.4015 112.998 97.5792C112.998 96.7568 112.331 96.0901 111.509 96.0901C110.687 96.0901 110.02 96.7568 110.02 97.5792C110.02 98.4015 110.687 99.0682 111.509 99.0682Z" fill="#7BBEE4"/>
<path d="M113.18 84.6156C114.003 84.6156 114.669 83.9489 114.669 83.1265C114.669 82.3042 114.003 81.6375 113.18 81.6375C112.358 81.6375 111.691 82.3042 111.691 83.1265C111.691 83.9489 112.358 84.6156 113.18 84.6156Z" fill="#7BBEE4"/>
<path d="M113.181 83.3103C113.144 83.3103 113.107 83.2919 113.071 83.2735C113.034 83.2368 112.997 83.1816 112.997 83.1265C112.997 82.961 112.997 82.7772 112.997 82.5934C112.997 82.4463 112.997 82.3176 112.997 82.1522C112.997 82.0419 113.089 81.9683 113.181 81.9683C113.291 81.9683 113.365 82.0602 113.365 82.1522C113.365 82.2992 113.365 82.4463 113.365 82.575C113.365 82.6669 113.365 82.7772 113.365 82.8691C113.585 82.8139 113.788 82.7588 114.008 82.722C114.1 82.7037 114.21 82.7588 114.229 82.8691C114.247 82.961 114.192 83.0713 114.082 83.0897C113.788 83.1448 113.512 83.2184 113.236 83.2919C113.218 83.3103 113.199 83.3103 113.181 83.3103ZM113.254 80.8837C113.236 80.8837 113.236 80.8837 113.254 80.8837C113.144 80.8837 113.071 80.7918 113.071 80.6815C113.126 80.0749 113.181 79.4499 113.273 78.8432C113.291 78.7513 113.383 78.6778 113.475 78.6961C113.567 78.7145 113.641 78.8064 113.622 78.8984C113.53 79.505 113.457 80.1116 113.42 80.7183C113.42 80.8102 113.346 80.8837 113.254 80.8837ZM113.714 77.6115C113.696 77.6115 113.696 77.6115 113.677 77.6115C113.585 77.5932 113.512 77.5012 113.53 77.3909C113.659 76.7843 113.806 76.1777 113.971 75.5894C114.008 75.4975 114.1 75.4423 114.192 75.4607C114.284 75.4975 114.339 75.5894 114.321 75.6813C114.155 76.2696 114.008 76.8578 113.879 77.4461C113.879 77.5564 113.806 77.6115 113.714 77.6115ZM114.615 74.4313C114.596 74.4313 114.578 74.4313 114.56 74.4129C114.468 74.3761 114.413 74.2658 114.449 74.1739C114.652 73.5857 114.891 73.0158 115.13 72.4459C115.166 72.354 115.277 72.3172 115.369 72.354C115.46 72.3908 115.497 72.5011 115.46 72.593C115.221 73.1445 114.982 73.7143 114.78 74.2842C114.743 74.3761 114.688 74.4313 114.615 74.4313ZM115.92 71.3981C115.883 71.3981 115.865 71.3981 115.828 71.3797C115.736 71.3245 115.699 71.2142 115.755 71.1407C116.03 70.5892 116.343 70.0561 116.655 69.523C116.71 69.4311 116.821 69.4127 116.913 69.4679C117.005 69.523 117.023 69.6333 116.968 69.7252C116.655 70.2399 116.343 70.773 116.067 71.3245C116.049 71.3613 115.975 71.3981 115.92 71.3981Z" fill="#7BBEE4"/>
<path d="M111.251 97.2064C111.233 97.2094 111.233 97.2094 111.251 97.2064C111.14 97.2244 111.05 97.1333 111.03 97.0097C110.975 96.3206 110.917 95.611 110.899 94.9159C110.9 94.8099 110.979 94.7125 111.075 94.7181C111.171 94.7237 111.262 94.8148 111.26 94.9208C111.278 95.6158 111.314 96.3079 111.387 96.9939C111.404 97.097 111.344 97.1914 111.251 97.2064ZM111.118 93.4633C111.1 93.4663 111.1 93.4663 111.081 93.4693C110.985 93.4636 110.895 93.3726 110.893 93.2459C110.912 92.5449 110.95 91.8409 111.009 91.1544C111.029 91.0454 111.112 90.9686 111.207 90.9742C111.307 91.0004 111.379 91.0945 111.377 91.2005C111.318 91.8869 111.277 92.5704 111.254 93.2508C111.274 93.3745 111.211 93.4483 111.118 93.4633ZM111.445 89.7512C111.427 89.7542 111.408 89.7572 111.386 89.7396C111.287 89.7134 111.212 89.5987 111.232 89.4897C111.328 88.7973 111.465 88.1195 111.602 87.4417C111.622 87.3326 111.726 87.2734 111.825 87.2996C111.924 87.3259 111.981 87.4435 111.961 87.5526C111.821 88.2098 111.684 88.8876 111.585 89.5594C111.565 89.6684 111.519 89.7392 111.445 89.7512ZM112.206 86.1381C112.169 86.1441 112.15 86.1471 112.11 86.1325C112.007 86.0857 111.95 85.968 111.992 85.8766C112.169 85.2134 112.386 84.5648 112.604 83.9162C112.642 83.8042 112.75 83.7656 112.852 83.8124C112.955 83.8593 112.993 83.9799 112.955 84.0919C112.734 84.7199 112.517 85.3685 112.34 86.0317C112.328 86.0759 112.261 86.1291 112.206 86.1381Z" fill="#7BBEE4"/>
<path d="M113.221 84.6053C113.191 84.6153 113.157 84.6162 113.128 84.5957C113.086 84.5696 113.066 84.5065 113.107 84.463C113.307 84.1877 113.52 83.9182 113.745 83.6543C113.787 83.6108 113.85 83.5999 113.895 83.6351C113.94 83.6702 113.948 83.7276 113.907 83.7712C113.691 84.0317 113.478 84.3012 113.275 84.5675C113.268 84.5798 113.251 84.5954 113.221 84.6053ZM114.404 83.1786C114.374 83.1885 114.327 83.1837 114.308 83.16C114.263 83.1249 114.256 83.0675 114.297 83.0239C114.526 82.7691 114.778 82.5167 115.023 82.2766C115.064 82.233 115.13 82.2312 115.175 82.2663C115.22 82.3015 115.218 82.3622 115.177 82.4057C114.932 82.6458 114.69 82.8949 114.458 83.1408C114.434 83.1687 114.424 83.172 114.404 83.1786ZM130.732 77.1096C130.712 77.1162 130.702 77.1195 130.679 77.1171C130.332 77.0811 129.999 77.0508 129.645 77.0271C129.589 77.0256 129.551 76.9782 129.556 76.9265C129.562 76.8748 129.616 76.8369 129.673 76.8384C130.026 76.8621 130.37 76.8891 130.716 76.9251C130.776 76.9356 130.814 76.9831 130.795 77.0291C130.797 77.0684 130.773 77.0964 130.732 77.1096ZM115.728 81.8754C115.687 81.8886 115.651 81.8805 115.619 81.851C115.584 81.8126 115.587 81.7519 115.631 81.7173C115.889 81.4829 116.16 81.2542 116.437 81.0436C116.481 81.009 116.547 81.0072 116.582 81.0457C116.617 81.0841 116.615 81.1448 116.57 81.1794C116.297 81.399 116.033 81.6154 115.775 81.8498C115.758 81.8654 115.748 81.8687 115.728 81.8754ZM128.865 76.9939C128.854 76.9972 128.844 77.0005 128.821 76.9981C128.474 76.9924 128.129 76.9958 127.777 77.0114C127.721 77.0099 127.676 76.9748 127.668 76.9174C127.673 76.8657 127.715 76.8222 127.778 76.8113C128.13 76.7957 128.485 76.789 128.833 76.7947C128.889 76.7962 128.937 76.8403 128.932 76.892C128.939 76.9494 128.905 76.9806 128.865 76.9939ZM117.193 80.6956C117.152 80.7088 117.103 80.695 117.081 80.6622C117.046 80.6238 117.059 80.5598 117.103 80.5252C117.383 80.3236 117.683 80.1153 117.978 79.9284C118.023 79.8938 118.092 79.901 118.12 79.9518C118.155 79.9902 118.142 80.0543 118.085 80.0831C117.789 80.27 117.51 80.4717 117.23 80.6733C117.213 80.6889 117.203 80.6922 117.193 80.6956ZM126.979 77.0635C126.969 77.0668 126.959 77.0701 126.949 77.0734C126.603 77.1071 126.247 77.1441 125.904 77.1869C125.851 77.1944 125.796 77.1625 125.788 77.1051C125.783 77.0568 125.822 77.0042 125.885 76.9934C126.238 76.9474 126.591 76.9013 126.94 76.8766C126.994 76.8691 127.052 76.91 127.046 76.9617C127.051 77.01 127.02 77.0503 126.979 77.0635ZM118.771 79.6582C118.721 79.6747 118.672 79.6609 118.647 79.6191C118.622 79.5774 118.634 79.5134 118.682 79.4878C118.98 79.3099 119.302 79.1344 119.607 78.9745C119.664 78.9457 119.726 78.9652 119.751 79.0069C119.776 79.0487 119.754 79.116 119.706 79.1416C119.392 79.3047 119.09 79.4736 118.788 79.6425C118.791 79.6516 118.781 79.6549 118.771 79.6582ZM125.097 77.312C125.097 77.312 125.087 77.3153 125.077 77.3186C124.73 77.3826 124.386 77.4557 124.044 77.5377C123.981 77.5486 123.929 77.5257 123.921 77.4683C123.917 77.42 123.942 77.3617 124.005 77.3509C124.347 77.2688 124.701 77.1924 125.048 77.1284C125.101 77.1209 125.157 77.1527 125.161 77.2011C125.179 77.2552 125.138 77.2987 125.097 77.312ZM120.456 78.7755C120.406 78.792 120.354 78.7692 120.329 78.7274C120.304 78.6857 120.33 78.6274 120.387 78.5985C120.573 78.5177 120.765 78.4245 120.954 78.3527C121.092 78.2974 121.23 78.2421 121.368 78.1868C121.418 78.1702 121.48 78.1898 121.505 78.2315C121.523 78.2856 121.494 78.3349 121.447 78.3604C121.309 78.4157 121.181 78.4677 121.043 78.523C120.857 78.6039 120.662 78.688 120.476 78.7689C120.466 78.7722 120.456 78.7755 120.456 78.7755ZM123.234 77.7539C122.899 77.854 122.563 77.9541 122.224 78.0755C122.163 78.0953 122.111 78.0725 122.093 78.0184C122.076 77.9643 122.104 77.9151 122.165 77.8952C122.504 77.7738 122.839 77.6737 123.185 77.5703C123.245 77.5505 123.3 77.5823 123.315 77.6274C123.32 77.6757 123.294 77.734 123.234 77.7539Z" fill="#7BBEE4"/>
<path d="M113.535 82.823C113.502 82.8269 113.449 82.8145 113.412 82.7818C113.337 82.7166 113.324 82.607 113.382 82.5262C113.715 82.0433 114.064 81.5585 114.415 81.0919C114.474 81.0111 114.574 80.9994 114.649 81.0647C114.724 81.13 114.737 81.2395 114.679 81.3203C114.327 81.7869 113.978 82.2717 113.643 82.7364C113.616 82.795 113.568 82.8191 113.535 82.823ZM115.44 80.3063C115.39 80.3122 115.338 80.2997 115.3 80.2671C115.225 80.2018 115.229 80.0903 115.287 80.0095C115.657 79.5593 116.044 79.107 116.435 78.6914C116.495 78.6288 116.612 78.6152 116.673 78.7007C116.731 78.7679 116.746 78.8957 116.669 78.9602C116.278 79.3759 115.891 79.8281 115.521 80.2784C115.521 80.2784 115.473 80.3025 115.44 80.3063ZM117.553 77.9874C117.503 77.9932 117.451 77.9808 117.412 77.9299C117.353 77.8627 117.355 77.7329 117.415 77.6704C117.823 77.2528 118.25 76.8515 118.678 76.4684C118.755 76.4039 118.858 76.4105 118.918 76.496C118.979 76.5815 118.975 76.693 118.898 76.7574C118.486 77.1386 118.059 77.5399 117.649 77.9392C117.618 77.9614 117.587 77.9835 117.553 77.9874ZM119.843 75.8701C119.793 75.876 119.722 75.8472 119.682 75.7963C119.621 75.7108 119.642 75.5974 119.702 75.5348C120.15 75.1681 120.598 74.8014 121.066 74.4692C121.143 74.4047 121.247 74.4296 121.291 74.517C121.352 74.6025 121.332 74.7159 121.252 74.7621C120.801 75.0924 120.353 75.4591 119.905 75.8258C119.893 75.8643 119.876 75.8662 119.843 75.8701ZM122.316 74.0275C122.25 74.0353 122.195 74.0046 122.154 73.9354C122.11 73.848 122.13 73.7346 122.209 73.6883C122.68 73.3744 123.167 73.0586 123.659 72.7793C123.738 72.7331 123.842 72.7579 123.888 72.8636C123.932 72.951 123.912 73.0645 123.816 73.1126C123.341 73.39 122.854 73.7058 122.383 74.0197C122.366 74.0217 122.333 74.0256 122.316 74.0275ZM144.266 70.8796C144.249 70.8815 144.216 70.8854 144.197 70.8691C143.653 70.6919 143.112 70.5513 142.572 70.4106C142.484 70.3838 142.423 70.2983 142.444 70.1849C142.467 70.0897 142.544 70.0252 142.648 70.0501C143.188 70.1908 143.748 70.3477 144.29 70.5066C144.378 70.5334 144.441 70.6372 144.401 70.7343C144.395 70.8275 144.333 70.8718 144.266 70.8796ZM124.957 72.4615C124.891 72.4693 124.818 72.4223 124.792 72.3512C124.748 72.2638 124.786 72.1484 124.865 72.1021C125.375 71.8391 125.888 71.5944 126.402 71.3679C126.484 71.3399 126.59 71.3831 126.617 71.4724C126.645 71.5618 126.607 71.6772 126.526 71.7051C126.012 71.9316 125.499 72.1764 125.005 72.4374C124.991 72.4576 124.974 72.4596 124.957 72.4615ZM141.305 70.1324C141.288 70.1344 141.272 70.1363 141.255 70.1383C140.702 70.0361 140.149 69.9339 139.601 69.8682C139.515 69.8597 139.436 69.7579 139.442 69.6646C139.448 69.5714 139.539 69.4867 139.625 69.4952C140.173 69.5609 140.743 69.6612 141.296 69.7634C141.384 69.7902 141.444 69.8756 141.438 69.9689C141.449 70.0602 141.388 70.1227 141.305 70.1324ZM127.739 71.2308C127.655 71.2405 127.582 71.1935 127.555 71.1041C127.528 71.0148 127.565 70.8994 127.663 70.8695C128.199 70.6776 128.734 70.4857 129.274 70.3303C129.355 70.3023 129.464 70.3637 129.474 70.455C129.502 70.5444 129.448 70.6617 129.364 70.6714C128.841 70.8248 128.306 71.0167 127.77 71.2087C127.756 71.2289 127.739 71.2308 127.739 71.2308ZM138.299 69.7237C138.282 69.7256 138.282 69.7256 138.265 69.7275C137.702 69.6821 137.141 69.6549 136.601 69.6622C136.516 69.6537 136.438 69.5702 136.428 69.4789C136.434 69.3856 136.509 69.3029 136.592 69.2932C137.151 69.3021 137.729 69.3274 138.292 69.3728C138.377 69.3814 138.455 69.4649 138.451 69.5764C138.443 69.6514 138.382 69.7139 138.299 69.7237ZM130.628 70.3393C130.544 70.349 130.469 70.2837 130.442 70.1943C130.414 70.105 130.47 70.0059 130.568 69.976C131.11 69.8389 131.673 69.7363 132.219 69.6357C132.301 69.6077 132.395 69.6893 132.407 69.7989C132.42 69.9084 132.362 69.9893 132.262 70.0009C131.716 70.1015 131.169 70.2021 130.628 70.3393ZM135.266 69.6696C134.695 69.6991 134.142 69.7449 133.592 69.809C133.492 69.8207 133.415 69.7371 133.404 69.6458C133.391 69.5363 133.449 69.4555 133.549 69.4438C134.1 69.3797 134.669 69.332 135.241 69.3024C135.341 69.2908 135.418 69.3743 135.414 69.4858C135.425 69.5771 135.366 69.6579 135.266 69.6696Z" fill="#7BBEE4"/>
<path d="M112.997 83.4023C112.905 83.4023 112.831 83.3471 112.813 83.2552C112.703 82.7037 112.555 82.1706 112.408 81.6375C112.372 81.5456 112.445 81.4353 112.537 81.4169C112.629 81.3801 112.739 81.4537 112.758 81.5456C112.923 82.0787 113.052 82.6302 113.162 83.2001C113.181 83.292 113.125 83.4023 113.015 83.4206C113.015 83.4023 113.015 83.4023 112.997 83.4023ZM112.133 80.3691C112.059 80.3691 111.986 80.3139 111.967 80.2404C111.765 79.6705 111.526 79.1006 111.287 78.5491C111.25 78.4572 111.287 78.3469 111.379 78.3102C111.471 78.2734 111.581 78.3102 111.618 78.4021C111.875 78.9536 112.114 79.5418 112.317 80.1117C112.353 80.2036 112.298 80.3139 112.206 80.3507C112.169 80.3691 112.151 80.3691 112.133 80.3691ZM110.791 77.3542C110.717 77.3542 110.662 77.3175 110.625 77.2623C110.331 76.7292 110.037 76.1961 109.706 75.6998C109.651 75.6078 109.669 75.4975 109.761 75.4424C109.853 75.3873 109.963 75.4056 110.019 75.4975C110.35 76.0123 110.662 76.5454 110.956 77.0969C111.011 77.1888 110.975 77.2991 110.883 77.3542C110.846 77.3359 110.809 77.3542 110.791 77.3542ZM109.026 74.56C108.971 74.56 108.916 74.5416 108.879 74.4865C108.511 74.0085 108.144 73.5306 107.739 73.071C107.666 72.9975 107.684 72.8872 107.758 72.8136C107.831 72.7401 107.941 72.7585 108.015 72.832C108.419 73.2916 108.805 73.7879 109.173 74.2843C109.228 74.3578 109.21 74.4865 109.136 74.5416C109.099 74.5416 109.063 74.56 109.026 74.56ZM106.857 72.0415C106.802 72.0415 106.765 72.0232 106.728 71.9864C106.305 71.5636 105.846 71.1408 105.386 70.7547C105.313 70.6812 105.294 70.5709 105.368 70.4974C105.441 70.4238 105.552 70.4054 105.625 70.479C106.085 70.8834 106.544 71.3062 106.985 71.7474C107.059 71.8209 107.059 71.9312 106.985 72.0048C106.967 72.0231 106.912 72.0415 106.857 72.0415ZM104.375 69.8723C104.338 69.8723 104.301 69.854 104.265 69.8356C103.787 69.4679 103.272 69.1186 102.757 68.8061C102.665 68.751 102.647 68.6407 102.702 68.5488C102.757 68.4568 102.868 68.4385 102.96 68.4936C103.474 68.8245 103.989 69.1738 104.485 69.5414C104.559 69.5966 104.577 69.7253 104.522 69.7988C104.485 69.8539 104.43 69.8723 104.375 69.8723Z" fill="#7BBEE4"/>
<path d="M148.155 63.7281C148.455 61.8841 147.202 60.1466 145.358 59.8474C143.514 59.5481 141.777 60.8003 141.478 62.6443C141.178 64.4883 142.431 66.2258 144.275 66.525C146.119 66.8243 147.856 65.5721 148.155 63.7281Z" fill="white"/>
<path d="M144.808 58.3674C142.198 58.3674 140.102 60.4815 140.102 63.0735C140.102 67.6141 144.808 72.3937 144.808 72.3937C144.808 72.3937 149.514 67.5773 149.514 63.0735C149.514 60.4631 147.4 58.3674 144.808 58.3674ZM144.808 65.3714C143.595 65.3714 142.621 64.3787 142.621 63.1838C142.621 61.9705 143.595 60.9962 144.808 60.9962C146.021 60.9962 146.996 61.9889 146.996 63.1838C146.996 64.3971 146.021 65.3714 144.808 65.3714Z" fill="#7BBEE4"/>
<path d="M15.2265 271.54H46.3233C46.4621 271.54 46.5547 271.447 46.5547 271.309C46.5547 271.17 46.4621 271.077 46.3233 271.077H15.2265C15.0876 271.077 14.9951 271.17 14.9951 271.309C14.9951 271.424 15.0876 271.54 15.2265 271.54Z" fill="black"/>
<path d="M50.3957 186.047C50.3957 186.047 27.4201 177.162 12.9128 191.091C-1.59443 205.02 -2.49681 265.548 46.3234 271.309H118.883L50.3957 186.047Z" fill="white"/>
<path d="M46.3234 271.54H118.883C118.975 271.54 119.045 271.494 119.091 271.402C119.137 271.332 119.114 271.216 119.068 271.147L50.5807 185.885C50.5576 185.862 50.5113 185.839 50.4881 185.816C50.4418 185.793 44.6343 183.571 37.1146 183.109C30.1733 182.669 20.3168 183.664 12.7508 190.929C8.72488 194.793 5.717 202.174 4.53698 211.151C3.26441 220.753 4.21305 230.934 7.19779 239.865C10.0206 248.287 14.4861 255.228 20.4556 260.55C27.3274 266.635 36.004 270.337 46.2771 271.564C46.3002 271.54 46.3234 271.54 46.3234 271.54ZM118.42 271.078H46.3465C27.4431 268.833 13.6994 257.704 7.66055 239.703C1.20517 220.43 5.34679 198.703 13.0979 191.253C20.525 184.127 30.2659 183.132 37.1146 183.571C44.1484 184.011 49.6783 186.001 50.2799 186.232L118.42 271.078Z" fill="black"/>
<path d="M24.1572 224.085C24.2266 224.085 24.296 224.062 24.3423 223.993C24.4117 223.9 24.4117 223.738 24.296 223.669C20.7328 220.846 18.0951 216.866 16.8688 212.47C16.8457 212.354 16.7069 212.285 16.5912 212.308C16.4755 212.331 16.4061 212.47 16.4292 212.586C17.6787 217.074 20.3626 221.124 24.0184 224.039C24.0415 224.062 24.0877 224.085 24.1572 224.085Z" fill="black"/>
<path d="M39.2673 231.097C33.3209 229.5 28.2307 227.325 24.5518 224.179C24.5518 224.179 23.9965 199.028 34.2927 180.356C35.2414 178.621 36.5602 177.094 38.1104 175.867C41.6505 173.114 48.8463 168.996 60.1837 169.227C60.1837 169.227 74.7835 171.656 78.3929 177.996C82.0486 184.382 88.1338 202.337 88.1338 202.337L39.2673 231.097Z" fill="#7BBEE4"/>
<path d="M69.6475 202.66C69.7401 202.66 69.8326 202.59 69.8789 202.498L73.9048 188.569C73.9511 188.453 73.8586 188.314 73.7429 188.291C73.6272 188.245 73.4884 188.338 73.4652 188.453L69.4393 202.382C69.393 202.498 69.4856 202.637 69.6013 202.66C69.6013 202.66 69.6244 202.66 69.6475 202.66Z" fill="black"/>
<path d="M31.589 228.437C31.589 228.437 37.1883 211.871 60.6961 211.686C75.6198 211.57 94.1529 211.778 105.675 211.963C112.385 212.056 118.447 215.943 121.363 222.005L141.33 263.629L148.202 269.021C149.174 269.784 148.619 271.311 147.416 271.311H107.503C106.185 271.311 104.889 270.964 103.755 270.316C98.2946 267.239 81.4504 257.035 65.8789 240.214C55.0968 233.134 44.037 233.643 31.589 228.437Z" fill="white"/>
<path d="M107.48 271.543H147.392C148.04 271.543 148.618 271.149 148.827 270.525C149.035 269.9 148.85 269.252 148.318 268.836L141.492 263.491L121.547 221.913C118.586 215.735 112.501 211.848 105.675 211.755C93.2039 211.57 75.2723 211.362 60.6957 211.478C60.5568 211.478 60.4643 211.593 60.4643 211.709C60.4643 211.848 60.58 211.94 60.6957 211.94C75.2723 211.825 93.2039 212.033 105.675 212.218C112.339 212.311 118.262 216.105 121.154 222.121L141.099 263.722C141.122 263.745 141.145 263.792 141.168 263.815L148.04 269.206C148.48 269.553 148.503 270.039 148.387 270.386C148.271 270.733 147.947 271.103 147.392 271.103H107.48C106.207 271.103 104.958 270.779 103.847 270.154C98.9421 267.401 81.7277 257.059 66.0404 240.099C66.0173 240.076 66.0173 240.076 65.9941 240.053C59.6313 235.865 53.1991 234.314 46.3735 232.672C41.6534 231.538 36.7714 230.381 31.6811 228.252C31.5655 228.206 31.4267 228.252 31.3804 228.368C31.3341 228.484 31.3804 228.623 31.4961 228.669C36.6326 230.821 41.5377 231.978 46.2578 233.111C53.014 234.731 59.3999 236.258 65.6934 240.4C81.4269 257.383 98.6875 267.748 103.593 270.525C104.796 271.196 106.115 271.543 107.48 271.543Z" fill="black"/>
<path d="M131.427 271.542H133.44C134.319 271.542 135.059 270.987 135.291 270.131C135.522 269.275 135.175 268.419 134.411 267.979L129.02 264.786L86.0538 223.324C80.2463 217.724 72.5878 214.555 64.5128 214.439L60.7182 214.393C60.6025 214.393 60.4868 214.485 60.4868 214.624C60.4868 214.763 60.5794 214.855 60.7182 214.855L64.5128 214.902C72.4721 215.017 80.015 218.118 85.7531 223.648L128.743 265.11C128.766 265.133 128.766 265.133 128.789 265.133L134.203 268.349C134.897 268.766 134.99 269.483 134.874 269.992C134.735 270.478 134.296 271.056 133.463 271.056H131.45C131.311 271.056 131.218 271.149 131.218 271.288C131.195 271.427 131.288 271.542 131.427 271.542Z" fill="black"/>
<path d="M100.122 236.999C100.145 236.999 100.168 236.999 100.191 236.976C100.307 236.929 100.377 236.814 100.33 236.675L95.8878 223.348C95.8415 223.232 95.7259 223.163 95.587 223.209C95.4713 223.255 95.4019 223.371 95.4482 223.51L99.8906 236.837C99.9369 236.953 100.029 236.999 100.122 236.999Z" fill="black"/>
<path d="M65.0457 239.613C65.1152 239.613 65.1614 239.59 65.2077 239.544C65.3002 239.451 65.2771 239.312 65.1845 239.22C62.1998 236.489 59.4927 233.435 57.0864 230.196C57.017 230.103 56.855 230.08 56.7625 230.15C56.6699 230.219 56.6468 230.381 56.7162 230.474C59.1225 233.759 61.8759 236.813 64.8837 239.567C64.93 239.613 64.9763 239.613 65.0457 239.613Z" fill="black"/>
<path d="M97.3686 266.707L128.882 265.18C129.021 265.18 129.113 265.064 129.113 264.948C129.113 264.81 128.998 264.717 128.882 264.717L97.3917 266.244C97.2528 266.244 97.1603 266.36 97.1603 266.475C97.1372 266.614 97.2529 266.707 97.3686 266.707Z" fill="black"/>
<path d="M128.004 263.861H141.308C141.447 263.861 141.539 263.769 141.539 263.63C141.539 263.491 141.447 263.398 141.308 263.398H128.004C127.865 263.398 127.772 263.491 127.772 263.63C127.772 263.746 127.888 263.861 128.004 263.861Z" fill="black"/>
<path d="M52.4349 183.154L60.2091 202.22C60.2091 202.22 85.0588 202.567 87.4189 206.523C89.7557 210.48 85.9843 212.053 85.9843 212.053C85.9843 212.053 57.3169 216.311 49.3576 213.349C41.3983 210.364 36.4699 192.456 35.3825 185.769C34.295 179.059 52.4349 183.154 52.4349 183.154Z" fill="#7BBEE4"/>
<path d="M49.3583 213.581C49.4509 213.581 49.5434 213.535 49.5666 213.442C49.6128 213.327 49.5435 213.188 49.4278 213.142C43.1343 210.782 38.9927 198.796 37.4888 193.752C37.4425 193.637 37.3268 193.567 37.2111 193.59C37.0954 193.637 37.026 193.752 37.0492 193.868C38.9233 200.208 43.0186 211.221 49.2658 213.558C49.312 213.558 49.3352 213.581 49.3583 213.581Z" fill="black"/>
<path d="M87.4188 206.755C87.4651 206.755 87.4883 206.755 87.5345 206.731C87.6502 206.662 87.6733 206.523 87.6271 206.408C85.3133 202.497 62.6616 202.035 60.371 201.988L53.4529 185.052C53.4066 184.936 53.2678 184.866 53.1521 184.936C53.0364 184.982 52.967 185.121 53.0364 185.237L60.0008 202.289C60.0471 202.382 60.1165 202.428 60.2091 202.428C60.4636 202.428 84.9662 202.821 87.2106 206.616C87.2569 206.708 87.3263 206.755 87.4188 206.755Z" fill="black"/>
<path d="M106.415 215.361H60.279C59.1222 215.361 58.1967 214.436 58.1967 213.279C58.1967 212.122 59.1222 211.197 60.279 211.197H109.979L106.415 215.361Z" fill="black"/>
<path d="M106.416 215.362L72.6119 214.76L84.6897 186.625C85.1293 185.607 86.1474 184.936 87.258 184.936H118.494C120.067 184.936 121.154 186.555 120.53 188.013L109.817 213.233C109.239 214.598 107.873 215.431 106.416 215.362Z" fill="black"/>
<path d="M104.194 194.26C104.194 194.838 103.732 195.324 103.13 195.324C102.552 195.324 102.066 194.861 102.066 194.26C102.066 193.681 102.528 193.195 103.13 193.195C103.732 193.195 104.194 193.658 104.194 194.26Z" fill="#7BBEE4"/>
<path d="M62.1292 173.345C62.1986 173.345 62.268 173.322 62.3143 173.253C62.5688 172.929 62.939 172.512 63.3323 172.05C63.9339 171.332 64.628 170.546 65.0676 169.991C65.137 169.898 65.137 169.736 65.0214 169.667C64.9288 169.597 64.7669 169.597 64.6974 169.713C64.2578 170.245 63.5868 171.055 62.9852 171.749C62.5919 172.212 62.2217 172.651 61.944 172.952C61.8515 173.045 61.8747 173.207 61.9672 173.276C62.0366 173.322 62.0829 173.345 62.1292 173.345Z" fill="black"/>
<path d="M59.9773 162.217L56.5761 167.261C56.1133 167.955 55.4423 168.51 54.6557 168.834L52.4113 169.783C52.4113 169.783 56.7612 179.547 64.304 177.719C64.304 177.719 69.2092 176.215 64.5586 170.199L66.0857 168.233L59.9773 162.217Z" fill="white"/>
<path d="M52.4335 170.014C52.4566 170.014 52.5029 170.014 52.526 169.991L54.7704 169.042C55.6033 168.695 56.2974 168.117 56.7833 167.377L60.1846 162.333C60.254 162.217 60.2309 162.078 60.1152 162.009C59.9995 161.939 59.8606 161.962 59.7912 162.078L56.39 167.122C55.9504 167.793 55.3257 168.302 54.5853 168.626L52.3409 169.575C52.2252 169.621 52.179 169.76 52.2252 169.875C52.2484 169.968 52.341 170.014 52.4335 170.014Z" fill="black"/>
<path d="M63.055 172.281C63.1244 172.281 63.1939 172.257 63.2401 172.188L66.2943 168.37C66.3637 168.278 66.3637 168.139 66.2711 168.07L60.1628 162.054C60.0703 161.961 59.9315 161.961 59.8389 162.054C59.7464 162.146 59.7464 162.285 59.8389 162.378L65.8084 168.255L62.8699 171.91C62.8005 172.003 62.8005 172.165 62.9162 172.234C62.9393 172.257 62.9856 172.281 63.055 172.281Z" fill="black"/>
<path d="M59.6994 149.63C60.648 149.815 61.4116 150.301 61.9206 151.064C62.1751 149.907 62.9386 148.889 63.9335 148.218C64.9053 147.547 66.0853 147.2 67.2653 147.061C69.8567 146.761 72.6101 147.57 74.4611 149.398C76.3121 151.226 77.1682 154.095 76.3584 156.571C75.5486 159.047 73.0035 160.921 70.4121 160.712C70.7128 162.147 70.9211 163.628 70.6897 165.062C70.4583 166.497 69.7411 167.931 68.5148 168.718C67.1265 169.62 65.2755 169.574 63.7484 168.949C62.2214 168.325 60.9719 167.168 59.8613 165.942C59.2135 165.224 58.635 164.461 58.0103 163.72C57.6864 163.35 57.3856 162.957 57.0385 162.61C56.8072 162.378 56.5295 162.216 56.3676 161.939C55.4421 160.458 54.7942 159.417 55.0487 156.548C55.1644 155.507 56.6221 149.028 59.6994 149.63Z" fill="black"/>
<path d="M68.4453 155.02C68.4453 155.02 69.8104 158.722 70.1806 161.406C70.2732 162.053 69.9493 162.701 69.3708 163.025C68.4453 163.557 66.7332 164.159 64.0029 163.835C59.4911 163.303 59.4448 159.902 59.2134 158.56C58.9357 156.894 59.6993 155.598 62.3601 156.269C66.1084 157.218 68.4453 155.02 68.4453 155.02Z" fill="white"/>
<path d="M65.4837 164.183C67.4041 164.183 68.6767 163.697 69.4865 163.234C70.1575 162.864 70.5046 162.123 70.412 161.383C70.0418 158.699 68.6767 154.974 68.6767 154.951C68.6536 154.881 68.5842 154.835 68.5147 154.812C68.4453 154.789 68.3527 154.812 68.3065 154.858C68.2833 154.881 65.9927 156.964 62.4296 156.061C61.1107 155.737 60.1389 155.83 59.5374 156.385C59.0283 156.871 58.8201 157.635 59.0052 158.606C59.0283 158.722 59.0514 158.838 59.0514 158.977C59.2597 160.457 59.6762 163.558 63.9798 164.067C64.5119 164.136 65.0209 164.183 65.4837 164.183ZM68.3527 155.413C68.6767 156.362 69.6716 159.254 69.9493 161.452C70.0187 162.008 69.7642 162.563 69.2551 162.841C68.3296 163.373 66.6637 163.951 64.026 163.627C60.0695 163.164 59.6993 160.411 59.4911 158.93C59.468 158.791 59.4448 158.653 59.4448 158.537C59.3522 157.959 59.3523 157.195 59.8382 156.732C60.3009 156.293 61.157 156.223 62.3139 156.501C65.4374 157.288 67.6123 155.969 68.3527 155.413Z" fill="black"/>
<path d="M59.1426 163.466C59.1426 163.466 58.4485 162.124 57.9857 160.736C57.9857 160.736 55.1629 159.255 54.7233 161.522C54.2837 163.79 57.708 165.71 59.1426 163.466Z" fill="white"/>
<path d="M57.385 164.692C58.0792 164.692 58.8195 164.392 59.3286 163.582C59.3749 163.512 59.3749 163.42 59.3286 163.35C59.3286 163.327 58.6344 162.008 58.1717 160.643C58.1486 160.597 58.1023 160.528 58.056 160.504C57.9866 160.458 56.4133 159.671 55.3489 160.18C54.8862 160.412 54.5854 160.828 54.4697 161.453C54.2152 162.841 55.2101 164.021 56.3439 164.461C56.6678 164.623 57.038 164.692 57.385 164.692ZM58.8658 163.443C58.3337 164.206 57.4545 164.438 56.529 164.068C55.6035 163.697 54.7242 162.702 54.9324 161.569C55.025 161.083 55.2333 160.782 55.5572 160.62C56.2282 160.296 57.3156 160.666 57.7784 160.898C58.1717 162.031 58.7039 163.096 58.8658 163.443Z" fill="black"/>
<path d="M58.1026 163.189C58.172 163.189 58.2183 163.166 58.2646 163.119C58.3571 163.027 58.3571 162.888 58.2646 162.796C57.7093 162.263 56.8995 162.009 56.1359 162.148C56.0202 162.171 55.9277 162.286 55.9508 162.402C55.974 162.518 56.0896 162.61 56.2053 162.587C56.83 162.495 57.4779 162.703 57.9406 163.119C57.9869 163.166 58.0563 163.189 58.1026 163.189Z" fill="black"/>
</svg>
